{
copyright = "Copyright (c) 2015, Cadson Demak (info@cadsondemak.com)";
customParameters = (
{
name = description;
value = "Copyright (c) 2015, Cadson Demak (info@cadsondemak.com)";
},
{
name = license;

glyphs = (
{
glyphname = A;
lastChange = "2015-07-18 10:08:22 +0000";
layers = (
{
layerId = "5D04EF83-1EDC-47E1-87A2-0FB57D789DB8";
name = Light;
paths = (
{
closed = 1;
nodes = (
"116 0 LINE SMOOTH",
"133 0 OFFCURVE",
"136 3 OFFCURVE",
"141 15 CURVE SMOOTH",
"209 178 LINE",
"518 178 LINE",
"586 15 LINE SMOOTH",
"591 3 OFFCURVE",
"594 0 OFFCURVE",
"611 0 CURVE SMOOTH",
"664 0 LINE SMOOTH",
"678 0 OFFCURVE",
"682 10 OFFCURVE",
"677 23 CURVE SMOOTH",
"408 659 LINE SMOOTH",
"401 675 OFFCURVE",
"397 680 OFFCURVE",
"382 680 CURVE SMOOTH",
"345 680 LINE SMOOTH",
"330 680 OFFCURVE",
"326 675 OFFCURVE",
"319 659 CURVE SMOOTH",
"50 23 LINE SMOOTH",
"45 10 OFFCURVE",
"49 0 OFFCURVE",
"63 0 CURVE SMOOTH"
);
},
{
closed = 1;
nodes = (
"363 557 LINE",
"491 249 LINE",
"235 249 LINE"
);
}
);
width = 727;
}
);
note = A;
unicode = 0041;
},
{
glyphname = Aacute;
lastChange = "2015-07-18 10:08:20 +0000";
layers = (
{
layerId = "5D04EF83-1EDC-47E1-87A2-0FB57D789DB8";
name = Light;
paths = (
{
closed = 1;
nodes = (
"116 0 LINE SMOOTH",
"133 0 OFFCURVE",
"136 3 OFFCURVE",
"141 15 CURVE SMOOTH",
"209 178 LINE",
"518 178 LINE",
"586 15 LINE SMOOTH",
"591 3 OFFCURVE",
"594 0 OFFCURVE",
"611 0 CURVE SMOOTH",
"664 0 LINE SMOOTH",
"678 0 OFFCURVE",
"682 10 OFFCURVE",
"677 23 CURVE SMOOTH",
"408 659 LINE SMOOTH",
"401 675 OFFCURVE",
"397 680 OFFCURVE",
"382 680 CURVE SMOOTH",
"345 680 LINE SMOOTH",
"330 680 OFFCURVE",
"326 675 OFFCURVE",
"319 659 CURVE SMOOTH",
"50 23 LINE SMOOTH",
"45 10 OFFCURVE",
"49 0 OFFCURVE",
"63 0 CURVE SMOOTH"
);
},
{
closed = 1;
nodes = (
"363 557 LINE",
"491 249 LINE",
"235 249 LINE"
);
},
{
closed = 1;
nodes = (
"383 735 LINE SMOOTH",
"401 735 OFFCURVE",
"408 739 OFFCURVE",
"414 752 CURVE SMOOTH",
"480 888 LINE SMOOTH",
"488 904 OFFCURVE",
"482 912 OFFCURVE",
"465 912 CURVE SMOOTH",
"414 912 LINE SMOOTH",
"395 912 OFFCURVE",
"390 907 OFFCURVE",
"385 893 CURVE SMOOTH",
"336 757 LINE SMOOTH",
"331 744 OFFCURVE",
"334 735 OFFCURVE",
"349 735 CURVE SMOOTH"
);
}
);
width = 727;
}
);
note = Aacute;
unicode = 00C1;
},
{
glyphname = Abreve;
lastChange = "2015-07-18 10:08:21 +0000";
layers = (
{
layerId = "5D04EF83-1EDC-47E1-87A2-0FB57D789DB8";
name = Light;
paths = (
{
closed = 1;
nodes = (
"116 0 LINE SMOOTH",
"133 0 OFFCURVE",
"136 3 OFFCURVE",
"141 15 CURVE SMOOTH",
"209 178 LINE",
"518 178 LINE",
"586 15 LINE SMOOTH",
"591 3 OFFCURVE",
"594 0 OFFCURVE",
"611 0 CURVE SMOOTH",
"664 0 LINE SMOOTH",
"678 0 OFFCURVE",
"682 10 OFFCURVE",
"677 23 CURVE SMOOTH",
"408 659 LINE SMOOTH",
"401 675 OFFCURVE",
"397 680 OFFCURVE",
"382 680 CURVE SMOOTH",
"345 680 LINE SMOOTH",
"330 680 OFFCURVE",
"326 675 OFFCURVE",
"319 659 CURVE SMOOTH",
"50 23 LINE SMOOTH",
"45 10 OFFCURVE",
"49 0 OFFCURVE",
"63 0 CURVE SMOOTH"
);
},
{
closed = 1;
nodes = (
"363 557 LINE",
"491 249 LINE",
"235 249 LINE"
);
},
{
closed = 1;
nodes = (
"467 762 OFFCURVE",
"516 828 OFFCURVE",
"516 920 CURVE SMOOTH",
"516 931 OFFCURVE",
"510 938 OFFCURVE",
"500 938 CURVE SMOOTH",
"455 938 LINE SMOOTH",
"441 938 OFFCURVE",
"438 931 OFFCURVE",
"438 919 CURVE SMOOTH",
"438 869 OFFCURVE",
"424 831 OFFCURVE",
"363 831 CURVE SMOOTH",
"302 831 OFFCURVE",
"288 869 OFFCURVE",
"288 919 CURVE SMOOTH",
"288 931 OFFCURVE",
"285 938 OFFCURVE",
"271 938 CURVE SMOOTH",
"226 938 LINE SMOOTH",
"216 938 OFFCURVE",
"210 931 OFFCURVE",
"210 920 CURVE SMOOTH",
"210 828 OFFCURVE",
"258 762 OFFCURVE",
"363 762 CURVE SMOOTH"
);
}
);
width = 727;
}
);
note = Abreve;
unicode = 0102;
},
{
glyphname = Abreveacute;
lastChange = "2015-07-18 10:08:21 +0000";
layers = (
{
layerId = "5D04EF83-1EDC-47E1-87A2-0FB57D789DB8";
name = Light;
paths = (
{
closed = 1;
nodes = (
"116 0 LINE SMOOTH",
"133 0 OFFCURVE",
"136 3 OFFCURVE",
"141 15 CURVE SMOOTH",
"209 178 LINE",
"518 178 LINE",
"586 15 LINE SMOOTH",
"591 3 OFFCURVE",
"594 0 OFFCURVE",
"611 0 CURVE SMOOTH",
"664 0 LINE SMOOTH",
"678 0 OFFCURVE",
"682 10 OFFCURVE",
"677 23 CURVE SMOOTH",
"408 659 LINE SMOOTH",
"401 675 OFFCURVE",
"397 680 OFFCURVE",
"382 680 CURVE SMOOTH",
"345 680 LINE SMOOTH",
"330 680 OFFCURVE",
"326 675 OFFCURVE",
"319 659 CURVE SMOOTH",
"50 23 LINE SMOOTH",
"45 10 OFFCURVE",
"49 0 OFFCURVE",
"63 0 CURVE SMOOTH"
);
},
{
closed = 1;
nodes = (
"363 557 LINE",
"491 249 LINE",
"235 249 LINE"
);
},
{
closed = 1;
nodes = (
"451 746 OFFCURVE",
"520 786 OFFCURVE",
"520 878 CURVE SMOOTH",
"520 889 OFFCURVE",
"514 896 OFFCURVE",
"504 896 CURVE SMOOTH",
"459 896 LINE SMOOTH",
"445 896 OFFCURVE",
"442 889 OFFCURVE",
"442 877 CURVE SMOOTH",
"442 827 OFFCURVE",
"418 815 OFFCURVE",
"367 815 CURVE SMOOTH",
"316 815 OFFCURVE",
"292 827 OFFCURVE",
"292 877 CURVE SMOOTH",
"292 889 OFFCURVE",
"289 896 OFFCURVE",
"275 896 CURVE SMOOTH",
"230 896 LINE SMOOTH",
"220 896 OFFCURVE",
"214 889 OFFCURVE",
"214 878 CURVE SMOOTH",
"214 786 OFFCURVE",
"282 746 OFFCURVE",
"367 746 CURVE SMOOTH"
);
},
{
closed = 1;
nodes = (
"367 856 LINE SMOOTH",
"384 856 OFFCURVE",
"390 859 OFFCURVE",
"397 872 CURVE SMOOTH",
"449 974 LINE SMOOTH",
"457 989 OFFCURVE",
"452 998 OFFCURVE",
"436 998 CURVE SMOOTH",
"397 998 LINE SMOOTH",
"379 998 OFFCURVE",
"374 993 OFFCURVE",
"369 979 CURVE SMOOTH",
"332 876 LINE SMOOTH",
"328 864 OFFCURVE",
"331 856 OFFCURVE",
"345 856 CURVE SMOOTH"
);
}
);
width = 727;
}
);
note = Abreveacute;
unicode = 1EAE;
},
{
glyphname = Abrevedotbelow;
lastChange = "2015-07-18 10:08:22 +0000";
layers = (
{
layerId = "5D04EF83-1EDC-47E1-87A2-0FB57D789DB8";
name = Light;
paths = (
{
closed = 1;
nodes = (
"116 0 LINE SMOOTH",
"133 0 OFFCURVE",
"136 3 OFFCURVE",
"141 15 CURVE SMOOTH",
"209 178 LINE",
"518 178 LINE",
"586 15 LINE SMOOTH",
"591 3 OFFCURVE",
"594 0 OFFCURVE",
"611 0 CURVE SMOOTH",
"664 0 LINE SMOOTH",
"678 0 OFFCURVE",
"682 10 OFFCURVE",
"677 23 CURVE SMOOTH",
"408 659 LINE SMOOTH",
"401 675 OFFCURVE",
"397 680 OFFCURVE",
"382 680 CURVE SMOOTH",
"345 680 LINE SMOOTH",
"330 680 OFFCURVE",
"326 675 OFFCURVE",
"319 659 CURVE SMOOTH",
"50 23 LINE SMOOTH",
"45 10 OFFCURVE",
"49 0 OFFCURVE",
"63 0 CURVE SMOOTH"
);
},
{
closed = 1;
nodes = (
"372 -172 LINE SMOOTH",
"397 -172 OFFCURVE",
"412 -153 OFFCURVE",
"412 -130 CURVE SMOOTH",
"412 -114 LINE SMOOTH",
"412 -91 OFFCURVE",
"396 -72 OFFCURVE",
"372 -72 CURVE SMOOTH",
"355 -72 LINE SMOOTH",
"332 -72 OFFCURVE",
"315 -91 OFFCURVE",
"315 -114 CURVE SMOOTH",
"315 -130 LINE SMOOTH",
"315 -153 OFFCURVE",
"332 -172 OFFCURVE",
"355 -172 CURVE SMOOTH"
);
},
{
closed = 1;
nodes = (
"363 557 LINE",
"491 249 LINE",
"235 249 LINE"
);
},
{
closed = 1;
nodes = (
"467 750 OFFCURVE",
"516 816 OFFCURVE",
"516 908 CURVE SMOOTH",
"516 919 OFFCURVE",
"510 926 OFFCURVE",
"500 926 CURVE SMOOTH",
"455 926 LINE SMOOTH",
"441 926 OFFCURVE",
"438 919 OFFCURVE",
"438 907 CURVE SMOOTH",
"438 857 OFFCURVE",
"424 819 OFFCURVE",
"363 819 CURVE SMOOTH",
"302 819 OFFCURVE",
"288 857 OFFCURVE",
"288 907 CURVE SMOOTH",
"288 919 OFFCURVE",
"285 926 OFFCURVE",
"271 926 CURVE SMOOTH",
"226 926 LINE SMOOTH",
"216 926 OFFCURVE",
"210 919 OFFCURVE",
"210 908 CURVE SMOOTH",
"210 816 OFFCURVE",
"258 750 OFFCURVE",
"363 750 CURVE SMOOTH"
);
}
);
width = 727;
}
);
note = Abrevedotbelow;
unicode = 1EB6;
},
{
glyphname = Abrevegrave;
lastChange = "2015-07-18 10:08:21 +0000";
layers = (
{
layerId = "5D04EF83-1EDC-47E1-87A2-0FB57D789DB8";
name = Light;
paths = (
{
closed = 1;
nodes = (
"116 0 LINE SMOOTH",
"133 0 OFFCURVE",
"136 3 OFFCURVE",
"141 15 CURVE SMOOTH",
"209 178 LINE",
"518 178 LINE",
"586 15 LINE SMOOTH",
"591 3 OFFCURVE",
"594 0 OFFCURVE",
"611 0 CURVE SMOOTH",
"664 0 LINE SMOOTH",
"678 0 OFFCURVE",
"682 10 OFFCURVE",
"677 23 CURVE SMOOTH",
"408 659 LINE SMOOTH",
"401 675 OFFCURVE",
"397 680 OFFCURVE",
"382 680 CURVE SMOOTH",
"345 680 LINE SMOOTH",
"330 680 OFFCURVE",
"326 675 OFFCURVE",
"319 659 CURVE SMOOTH",
"50 23 LINE SMOOTH",
"45 10 OFFCURVE",
"49 0 OFFCURVE",
"63 0 CURVE SMOOTH"
);
},
{
closed = 1;
nodes = (
"363 557 LINE",
"491 249 LINE",
"235 249 LINE"
);
},
{
closed = 1;
nodes = (
"451 746 OFFCURVE",
"520 786 OFFCURVE",
"520 878 CURVE SMOOTH",
"520 889 OFFCURVE",
"514 896 OFFCURVE",
"504 896 CURVE SMOOTH",
"459 896 LINE SMOOTH",
"445 896 OFFCURVE",
"442 889 OFFCURVE",
"442 877 CURVE SMOOTH",
"442 827 OFFCURVE",
"418 815 OFFCURVE",
"367 815 CURVE SMOOTH",
"316 815 OFFCURVE",
"292 827 OFFCURVE",
"292 877 CURVE SMOOTH",
"292 889 OFFCURVE",
"289 896 OFFCURVE",
"275 896 CURVE SMOOTH",
"230 896 LINE SMOOTH",
"220 896 OFFCURVE",
"214 889 OFFCURVE",
"214 878 CURVE SMOOTH",
"214 786 OFFCURVE",
"282 746 OFFCURVE",
"367 746 CURVE SMOOTH"
);
},
{
closed = 1;
nodes = (
"387 856 LINE SMOOTH",
"401 856 OFFCURVE",
"404 864 OFFCURVE",
"400 876 CURVE SMOOTH",
"363 979 LINE SMOOTH",
"358 993 OFFCURVE",
"353 998 OFFCURVE",
"335 998 CURVE SMOOTH",
"296 998 LINE SMOOTH",
"280 998 OFFCURVE",
"275 989 OFFCURVE",
"283 974 CURVE SMOOTH",
"335 872 LINE SMOOTH",
"342 859 OFFCURVE",
"348 856 OFFCURVE",
"365 856 CURVE SMOOTH"
);
}
);
width = 727;
}
);
note = Abrevegrave;
unicode = 1EB0;
},
{
glyphname = Abrevehookabove;
lastChange = "2015-07-18 10:08:22 +0000";
layers = (
{
layerId = "5D04EF83-1EDC-47E1-87A2-0FB57D789DB8";
name = Light;
paths = (
{
closed = 1;
nodes = (
"116 0 LINE SMOOTH",
"133 0 OFFCURVE",
"136 3 OFFCURVE",
"141 15 CURVE SMOOTH",
"209 178 LINE",
"518 178 LINE",
"586 15 LINE SMOOTH",
"591 3 OFFCURVE",
"594 0 OFFCURVE",
"611 0 CURVE SMOOTH",
"664 0 LINE SMOOTH",
"678 0 OFFCURVE",
"682 10 OFFCURVE",
"677 23 CURVE SMOOTH",
"408 659 LINE SMOOTH",
"401 675 OFFCURVE",
"397 680 OFFCURVE",
"382 680 CURVE SMOOTH",
"345 680 LINE SMOOTH",
"330 680 OFFCURVE",
"326 675 OFFCURVE",
"319 659 CURVE SMOOTH",
"50 23 LINE SMOOTH",
"45 10 OFFCURVE",
"49 0 OFFCURVE",
"63 0 CURVE SMOOTH"
);
},
{
closed = 1;
nodes = (
"363 557 LINE",
"491 249 LINE",
"235 249 LINE"
);
},
{
closed = 1;
nodes = (
"445 745 OFFCURVE",
"514 785 OFFCURVE",
"514 877 CURVE SMOOTH",
"514 888 OFFCURVE",
"508 895 OFFCURVE",
"498 895 CURVE SMOOTH",
"453 895 LINE SMOOTH",
"439 895 OFFCURVE",
"436 888 OFFCURVE",
"436 876 CURVE SMOOTH",
"436 826 OFFCURVE",
"412 814 OFFCURVE",
"361 814 CURVE SMOOTH",
"310 814 OFFCURVE",
"286 826 OFFCURVE",
"286 876 CURVE SMOOTH",
"286 888 OFFCURVE",
"283 895 OFFCURVE",
"269 895 CURVE SMOOTH",
"224 895 LINE SMOOTH",
"214 895 OFFCURVE",
"208 888 OFFCURVE",
"208 877 CURVE SMOOTH",
"208 785 OFFCURVE",
"276 745 OFFCURVE",
"361 745 CURVE SMOOTH"
);
},
{
closed = 1;
nodes = (
"355 853 LINE SMOOTH",
"369 853 OFFCURVE",
"376 861 OFFCURVE",
"376 875 CURVE SMOOTH",
"376 887 LINE",
"415 887 OFFCURVE",
"452 914 OFFCURVE",
"452 961 CURVE SMOOTH",
"452 1009 OFFCURVE",
"419 1036 OFFCURVE",
"356 1036 CURVE SMOOTH",
"326 1036 OFFCURVE",
"292 1028 OFFCURVE",
"272 1016 CURVE",
"268 1013 OFFCURVE",
"267 1011 OFFCURVE",
"269 1006 CURVE",
"285 974 LINE SMOOTH",
"287 970 OFFCURVE",
"289 970 OFFCURVE",
"293 972 CURVE",
"308 981 OFFCURVE",
"329 986 OFFCURVE",
"349 986 CURVE SMOOTH",
"375 986 OFFCURVE",
"388 978 OFFCURVE",
"388 960 CURVE SMOOTH",
"388 938 OFFCURVE",
"378 930 OFFCURVE",
"345 930 CURVE SMOOTH",
"323 930 OFFCURVE",
"312 920 OFFCURVE",
"312 900 CURVE SMOOTH",
"312 875 LINE SMOOTH",
"312 861 OFFCURVE",
"319 853 OFFCURVE",
"334 853 CURVE SMOOTH"
);
}
);
width = 727;
}
);
note = Abrevehookabove;
unicode = 1EB2;
},
{
glyphname = Abrevetilde;
lastChange = "2015-07-18 10:08:21 +0000";
layers = (
{
layerId = "5D04EF83-1EDC-47E1-87A2-0FB57D789DB8";
name = Light;
paths = (
{
closed = 1;
nodes = (
"116 0 LINE SMOOTH",
"133 0 OFFCURVE",
"136 3 OFFCURVE",
"141 15 CURVE SMOOTH",
"209 178 LINE",
"518 178 LINE",
"586 15 LINE SMOOTH",
"591 3 OFFCURVE",
"594 0 OFFCURVE",
"611 0 CURVE SMOOTH",
"664 0 LINE SMOOTH",
"678 0 OFFCURVE",
"682 10 OFFCURVE",
"677 23 CURVE SMOOTH",
"408 659 LINE SMOOTH",
"401 675 OFFCURVE",
"397 680 OFFCURVE",
"382 680 CURVE SMOOTH",
"345 680 LINE SMOOTH",
"330 680 OFFCURVE",
"326 675 OFFCURVE",
"319 659 CURVE SMOOTH",
"50 23 LINE SMOOTH",
"45 10 OFFCURVE",
"49 0 OFFCURVE",
"63 0 CURVE SMOOTH"
);
},
{
closed = 1;
nodes = (
"363 557 LINE",
"491 249 LINE",
"235 249 LINE"
);
},
{
closed = 1;
nodes = (
"447 745 OFFCURVE",
"516 785 OFFCURVE",
"516 877 CURVE SMOOTH",
"516 888 OFFCURVE",
"510 895 OFFCURVE",
"500 895 CURVE SMOOTH",
"455 895 LINE SMOOTH",
"441 895 OFFCURVE",
"438 888 OFFCURVE",
"438 876 CURVE SMOOTH",
"438 826 OFFCURVE",
"414 814 OFFCURVE",
"363 814 CURVE SMOOTH",
"312 814 OFFCURVE",
"288 826 OFFCURVE",
"288 876 CURVE SMOOTH",
"288 888 OFFCURVE",
"285 895 OFFCURVE",
"271 895 CURVE SMOOTH",
"226 895 LINE SMOOTH",
"216 895 OFFCURVE",
"210 888 OFFCURVE",
"210 877 CURVE SMOOTH",
"210 785 OFFCURVE",
"278 745 OFFCURVE",
"363 745 CURVE SMOOTH"
);
},
{
closed = 1;
nodes = (
"461 920 OFFCURVE",
"493 939 OFFCURVE",
"518 972 CURVE SMOOTH",
"531 989 OFFCURVE",
"532 998 OFFCURVE",
"515 1011 CURVE SMOOTH",
"495 1027 OFFCURVE",
"487 1026 OFFCURVE",
"475 1010 CURVE SMOOTH",
"460 989 OFFCURVE",
"447 980 OFFCURVE",
"421 980 CURVE SMOOTH",
"373 980 OFFCURVE",
"359 1027 OFFCURVE",
"289 1027 CURVE SMOOTH",
"248 1027 OFFCURVE",
"215 1006 OFFCURVE",
"191 973 CURVE SMOOTH",
"178 956 OFFCURVE",
"187 947 OFFCURVE",
"196 939 CURVE SMOOTH",
"213 924 OFFCURVE",
"225 921 OFFCURVE",
"236 935 CURVE SMOOTH",
"251 954 OFFCURVE",
"264 967 OFFCURVE",
"291 967 CURVE SMOOTH",
"337 967 OFFCURVE",
"359 920 OFFCURVE",
"420 920 CURVE SMOOTH"
);
}
);
width = 727;
}
);
note = Abrevetilde;
unicode = 1EB4;
},
{
glyphname = Acaron;
lastChange = "2015-07-18 10:08:20 +0000";
layers = (
{
layerId = "5D04EF83-1EDC-47E1-87A2-0FB57D789DB8";
name = Light;
paths = (
{
closed = 1;
nodes = (
"116 0 LINE SMOOTH",
"133 0 OFFCURVE",
"136 3 OFFCURVE",
"141 15 CURVE SMOOTH",
"209 178 LINE",
"518 178 LINE",
"586 15 LINE SMOOTH",
"591 3 OFFCURVE",
"594 0 OFFCURVE",
"611 0 CURVE SMOOTH",
"664 0 LINE SMOOTH",
"678 0 OFFCURVE",
"682 10 OFFCURVE",
"677 23 CURVE SMOOTH",
"408 659 LINE SMOOTH",
"401 675 OFFCURVE",
"397 680 OFFCURVE",
"382 680 CURVE SMOOTH",
"345 680 LINE SMOOTH",
"330 680 OFFCURVE",
"326 675 OFFCURVE",
"319 659 CURVE SMOOTH",
"50 23 LINE SMOOTH",
"45 10 OFFCURVE",
"49 0 OFFCURVE",
"63 0 CURVE SMOOTH"
);
},
{
closed = 1;
nodes = (
"363 557 LINE",
"491 249 LINE",
"235 249 LINE"
);
},
{
closed = 1;
nodes = (
"381 744 LINE SMOOTH",
"399 744 OFFCURVE",
"402 750 OFFCURVE",
"412 763 CURVE SMOOTH",
"520 912 LINE SMOOTH",
"530 925 OFFCURVE",
"527 937 OFFCURVE",
"512 937 CURVE SMOOTH",
"472 937 LINE SMOOTH",
"452 937 OFFCURVE",
"449 933 OFFCURVE",
"441 921 CURVE SMOOTH",
"364 807 LINE",
"286 921 LINE SMOOTH",
"278 933 OFFCURVE",
"275 937 OFFCURVE",
"255 937 CURVE SMOOTH",
"215 937 LINE SMOOTH",
"200 937 OFFCURVE",
"198 926 OFFCURVE",
"208 912 CURVE SMOOTH",
"316 763 LINE SMOOTH",
"326 750 OFFCURVE",
"329 744 OFFCURVE",
"347 744 CURVE SMOOTH"
);
}
);
width = 727;
}
);
note = Acaron;
unicode = 01CD;
},
{
glyphname = Acircumflex;
lastChange = "2015-07-18 10:08:20 +0000";
layers = (
{
layerId = "5D04EF83-1EDC-47E1-87A2-0FB57D789DB8";
name = Light;
paths = (
{
closed = 1;
nodes = (
"116 0 LINE SMOOTH",
"133 0 OFFCURVE",
"136 3 OFFCURVE",
"141 15 CURVE SMOOTH",
"209 178 LINE",
"518 178 LINE",
"586 15 LINE SMOOTH",
"591 3 OFFCURVE",
"594 0 OFFCURVE",
"611 0 CURVE SMOOTH",
"664 0 LINE SMOOTH",
"678 0 OFFCURVE",
"682 10 OFFCURVE",
"677 23 CURVE SMOOTH",
"408 659 LINE SMOOTH",
"401 675 OFFCURVE",
"397 680 OFFCURVE",
"382 680 CURVE SMOOTH",
"345 680 LINE SMOOTH",
"330 680 OFFCURVE",
"326 675 OFFCURVE",
"319 659 CURVE SMOOTH",
"50 23 LINE SMOOTH",
"45 10 OFFCURVE",
"49 0 OFFCURVE",
"63 0 CURVE SMOOTH"
);
},
{
closed = 1;
nodes = (
"363 557 LINE",
"491 249 LINE",
"235 249 LINE"
);
},
{
closed = 1;
nodes = (
"254 730 LINE SMOOTH",
"274 730 OFFCURVE",
"279 737 OFFCURVE",
"287 749 CURVE SMOOTH",
"363 860 LINE",
"439 749 LINE SMOOTH",
"447 737 OFFCURVE",
"452 730 OFFCURVE",
"472 730 CURVE SMOOTH",
"505 730 LINE SMOOTH",
"520 730 OFFCURVE",
"529 741 OFFCURVE",
"519 755 CURVE SMOOTH",
"411 904 LINE SMOOTH",
"401 917 OFFCURVE",
"398 923 OFFCURVE",
"380 923 CURVE SMOOTH",
"346 923 LINE SMOOTH",
"328 923 OFFCURVE",
"325 917 OFFCURVE",
"315 904 CURVE SMOOTH",
"207 755 LINE SMOOTH",
"197 741 OFFCURVE",
"206 730 OFFCURVE",
"221 730 CURVE SMOOTH"
);
}
);
width = 727;
}
);
note = Acircumflex;
unicode = 00C2;
},
{
glyphname = Acircumflexacute;
lastChange = "2015-07-18 10:08:23 +0000";
layers = (
{
background = {
paths = (
{
closed = 1;
nodes = (
"116 0 LINE SMOOTH",
"133 0 OFFCURVE",
"136 3 OFFCURVE",
"141 15 CURVE SMOOTH",
"209 178 LINE",
"518 178 LINE",
"586 15 LINE SMOOTH",
"591 3 OFFCURVE",
"594 0 OFFCURVE",
"611 0 CURVE SMOOTH",
"664 0 LINE SMOOTH",
"678 0 OFFCURVE",
"682 10 OFFCURVE",
"677 23 CURVE SMOOTH",
"408 659 LINE SMOOTH",
"401 675 OFFCURVE",
"397 680 OFFCURVE",
"382 680 CURVE SMOOTH",
"345 680 LINE SMOOTH",
"330 680 OFFCURVE",
"326 675 OFFCURVE",
"319 659 CURVE SMOOTH",
"50 23 LINE SMOOTH",
"45 10 OFFCURVE",
"49 0 OFFCURVE",
"63 0 CURVE SMOOTH"
);
},
{
closed = 1;
nodes = (
"363 557 LINE",
"491 249 LINE",
"235 249 LINE"
);
},
{
closed = 1;
nodes = (
"279 741 LINE SMOOTH",
"296 741 OFFCURVE",
"301 743 OFFCURVE",
"310 756 CURVE",
"385 846 LINE",
"460 756 LINE SMOOTH",
"470 744 OFFCURVE",
"474 741 OFFCURVE",
"491 741 CURVE SMOOTH",
"523 741 LINE SMOOTH",
"539 741 OFFCURVE",
"546 753 OFFCURVE",
"535 766 CURVE SMOOTH",
"431 891 LINE",
"421 904 OFFCURVE",
"415 910 OFFCURVE",
"398 910 CURVE SMOOTH",
"372 910 LINE SMOOTH",
"355 910 OFFCURVE",
"349 904 OFFCURVE",
"339 891 CURVE",
"235 766 LINE SMOOTH",
"224 753 OFFCURVE",
"231 741 OFFCURVE",
"247 741 CURVE SMOOTH"
);
},
{
closed = 1;
nodes = (
"518 859 LINE SMOOTH",
"535 859 OFFCURVE",
"541 862 OFFCURVE",
"548 875 CURVE SMOOTH",
"600 977 LINE SMOOTH",
"608 992 OFFCURVE",
"603 1001 OFFCURVE",
"587 1001 CURVE SMOOTH",
"548 1001 LINE SMOOTH",
"530 1001 OFFCURVE",
"525 996 OFFCURVE",
"520 982 CURVE SMOOTH",
"483 879 LINE SMOOTH",
"479 867 OFFCURVE",
"482 859 OFFCURVE",
"496 859 CURVE SMOOTH"
);
}
);
};
layerId = "5D04EF83-1EDC-47E1-87A2-0FB57D789DB8";
name = Light;
paths = (
{
closed = 1;
nodes = (
"116 0 LINE SMOOTH",
"133 0 OFFCURVE",
"136 3 OFFCURVE",
"141 15 CURVE SMOOTH",
"209 178 LINE",
"518 178 LINE",
"586 15 LINE SMOOTH",
"591 3 OFFCURVE",
"594 0 OFFCURVE",
"611 0 CURVE SMOOTH",
"664 0 LINE SMOOTH",
"678 0 OFFCURVE",
"682 10 OFFCURVE",
"677 23 CURVE SMOOTH",
"408 659 LINE SMOOTH",
"401 675 OFFCURVE",
"397 680 OFFCURVE",
"382 680 CURVE SMOOTH",
"345 680 LINE SMOOTH",
"330 680 OFFCURVE",
"326 675 OFFCURVE",
"319 659 CURVE SMOOTH",
"50 23 LINE SMOOTH",
"45 10 OFFCURVE",
"49 0 OFFCURVE",
"63 0 CURVE SMOOTH"
);
},
{
closed = 1;
nodes = (
"363 557 LINE",
"491 249 LINE",
"235 249 LINE"
);
},
{
closed = 1;
nodes = (
"258 741 LINE SMOOTH",
"275 741 OFFCURVE",
"280 743 OFFCURVE",
"289 756 CURVE",
"364 846 LINE",
"439 756 LINE SMOOTH",
"449 744 OFFCURVE",
"453 741 OFFCURVE",
"470 741 CURVE SMOOTH",
"502 741 LINE SMOOTH",
"518 741 OFFCURVE",
"525 753 OFFCURVE",
"514 766 CURVE SMOOTH",
"410 891 LINE",
"400 904 OFFCURVE",
"394 910 OFFCURVE",
"377 910 CURVE SMOOTH",
"351 910 LINE SMOOTH",
"334 910 OFFCURVE",
"328 904 OFFCURVE",
"318 891 CURVE",
"214 766 LINE SMOOTH",
"203 753 OFFCURVE",
"210 741 OFFCURVE",
"226 741 CURVE SMOOTH"
);
},
{
closed = 1;
nodes = (
"511 859 LINE SMOOTH",
"528 859 OFFCURVE",
"534 862 OFFCURVE",
"541 875 CURVE SMOOTH",
"593 977 LINE SMOOTH",
"601 992 OFFCURVE",
"596 1001 OFFCURVE",
"580 1001 CURVE SMOOTH",
"541 1001 LINE SMOOTH",
"523 1001 OFFCURVE",
"518 996 OFFCURVE",
"513 982 CURVE SMOOTH",
"476 879 LINE SMOOTH",
"472 867 OFFCURVE",
"475 859 OFFCURVE",
"489 859 CURVE SMOOTH"
);
}
);
width = 727;
}
);
note = Acircumflexacute;
unicode = 1EA4;
},
{
glyphname = Acircumflexdotbelow;
lastChange = "2015-07-18 10:08:22 +0000";
layers = (
{
layerId = "5D04EF83-1EDC-47E1-87A2-0FB57D789DB8";
name = Light;
paths = (
{
closed = 1;
nodes = (
"116 0 LINE SMOOTH",
"133 0 OFFCURVE",
"136 3 OFFCURVE",
"141 15 CURVE SMOOTH",
"209 178 LINE",
"518 178 LINE",
"586 15 LINE SMOOTH",
"591 3 OFFCURVE",
"594 0 OFFCURVE",
"611 0 CURVE SMOOTH",
"664 0 LINE SMOOTH",
"678 0 OFFCURVE",
"682 10 OFFCURVE",
"677 23 CURVE SMOOTH",
"408 659 LINE SMOOTH",
"401 675 OFFCURVE",
"397 680 OFFCURVE",
"382 680 CURVE SMOOTH",
"345 680 LINE SMOOTH",
"330 680 OFFCURVE",
"326 675 OFFCURVE",
"319 659 CURVE SMOOTH",
"50 23 LINE SMOOTH",
"45 10 OFFCURVE",
"49 0 OFFCURVE",
"63 0 CURVE SMOOTH"
);
},
{
closed = 1;
nodes = (
"372 -172 LINE SMOOTH",
"397 -172 OFFCURVE",
"412 -153 OFFCURVE",
"412 -130 CURVE SMOOTH",
"412 -114 LINE SMOOTH",
"412 -91 OFFCURVE",
"396 -72 OFFCURVE",
"372 -72 CURVE SMOOTH",
"355 -72 LINE SMOOTH",
"332 -72 OFFCURVE",
"315 -91 OFFCURVE",
"315 -114 CURVE SMOOTH",
"315 -130 LINE SMOOTH",
"315 -153 OFFCURVE",
"332 -172 OFFCURVE",
"355 -172 CURVE SMOOTH"
);
},
{
closed = 1;
nodes = (
"363 557 LINE",
"491 249 LINE",
"235 249 LINE"
);
},
{
closed = 1;
nodes = (
"254 742 LINE SMOOTH",
"274 742 OFFCURVE",
"279 749 OFFCURVE",
"287 761 CURVE SMOOTH",
"363 872 LINE",
"439 761 LINE SMOOTH",
"447 749 OFFCURVE",
"452 742 OFFCURVE",
"472 742 CURVE SMOOTH",
"505 742 LINE SMOOTH",
"520 742 OFFCURVE",
"529 753 OFFCURVE",
"519 767 CURVE SMOOTH",
"411 916 LINE SMOOTH",
"401 929 OFFCURVE",
"398 935 OFFCURVE",
"380 935 CURVE SMOOTH",
"346 935 LINE SMOOTH",
"328 935 OFFCURVE",
"325 929 OFFCURVE",
"315 916 CURVE SMOOTH",
"207 767 LINE SMOOTH",
"197 753 OFFCURVE",
"206 742 OFFCURVE",
"221 742 CURVE SMOOTH"
);
}
);
width = 727;
}
);
note = Acircumflexdotbelow;
unicode = 1EAC;
},
{
glyphname = Acircumflexgrave;
lastChange = "2015-07-18 10:08:22 +0000";
layers = (
{
layerId = "5D04EF83-1EDC-47E1-87A2-0FB57D789DB8";
name = Light;
paths = (
{
closed = 1;
nodes = (
"116 0 LINE SMOOTH",
"133 0 OFFCURVE",
"136 3 OFFCURVE",
"141 15 CURVE SMOOTH",
"209 178 LINE",
"518 178 LINE",
"586 15 LINE SMOOTH",
"591 3 OFFCURVE",
"594 0 OFFCURVE",
"611 0 CURVE SMOOTH",
"664 0 LINE SMOOTH",
"678 0 OFFCURVE",
"682 10 OFFCURVE",
"677 23 CURVE SMOOTH",
"408 659 LINE SMOOTH",
"401 675 OFFCURVE",
"397 680 OFFCURVE",
"382 680 CURVE SMOOTH",
"345 680 LINE SMOOTH",
"330 680 OFFCURVE",
"326 675 OFFCURVE",
"319 659 CURVE SMOOTH",
"50 23 LINE SMOOTH",
"45 10 OFFCURVE",
"49 0 OFFCURVE",
"63 0 CURVE SMOOTH"
);
},
{
closed = 1;
nodes = (
"363 557 LINE",
"491 249 LINE",
"235 249 LINE"
);
},
{
closed = 1;
nodes = (
"257 859 LINE SMOOTH",
"271 859 OFFCURVE",
"274 867 OFFCURVE",
"270 879 CURVE SMOOTH",
"233 982 LINE SMOOTH",
"228 996 OFFCURVE",
"223 1001 OFFCURVE",
"205 1001 CURVE SMOOTH",
"166 1001 LINE SMOOTH",
"150 1001 OFFCURVE",
"145 992 OFFCURVE",
"153 977 CURVE SMOOTH",
"205 875 LINE SMOOTH",
"212 862 OFFCURVE",
"218 859 OFFCURVE",
"235 859 CURVE SMOOTH"
);
},
{
closed = 1;
nodes = (
"262 741 LINE SMOOTH",
"279 741 OFFCURVE",
"283 744 OFFCURVE",
"293 756 CURVE SMOOTH",
"368 846 LINE",
"443 756 LINE",
"452 743 OFFCURVE",
"457 741 OFFCURVE",
"474 741 CURVE SMOOTH",
"506 741 LINE SMOOTH",
"522 741 OFFCURVE",
"529 753 OFFCURVE",
"518 766 CURVE SMOOTH",
"414 891 LINE",
"404 904 OFFCURVE",
"398 910 OFFCURVE",
"381 910 CURVE SMOOTH",
"355 910 LINE SMOOTH",
"338 910 OFFCURVE",
"332 904 OFFCURVE",
"322 891 CURVE",
"218 766 LINE SMOOTH",
"207 753 OFFCURVE",
"214 741 OFFCURVE",
"230 741 CURVE SMOOTH"
);
}
);
width = 727;
}
);
note = Acircumflexgrave;
unicode = 1EA6;
},
{
glyphname = Acircumflexhookabove;
lastChange = "2015-07-18 10:08:20 +0000";
layers = (
{
layerId = "5D04EF83-1EDC-47E1-87A2-0FB57D789DB8";
name = Light;
paths = (
{
closed = 1;
nodes = (
"116 0 LINE SMOOTH",
"133 0 OFFCURVE",
"136 3 OFFCURVE",
"141 15 CURVE SMOOTH",
"209 178 LINE",
"518 178 LINE",
"586 15 LINE SMOOTH",
"591 3 OFFCURVE",
"594 0 OFFCURVE",
"611 0 CURVE SMOOTH",
"664 0 LINE SMOOTH",
"678 0 OFFCURVE",
"682 10 OFFCURVE",
"677 23 CURVE SMOOTH",
"408 659 LINE SMOOTH",
"401 675 OFFCURVE",
"397 680 OFFCURVE",
"382 680 CURVE SMOOTH",
"345 680 LINE SMOOTH",
"330 680 OFFCURVE",
"326 675 OFFCURVE",
"319 659 CURVE SMOOTH",
"50 23 LINE SMOOTH",
"45 10 OFFCURVE",
"49 0 OFFCURVE",
"63 0 CURVE SMOOTH"
);
},
{
closed = 1;
nodes = (
"363 557 LINE",
"491 249 LINE",
"235 249 LINE"
);
},
{
closed = 1;
nodes = (
"258 741 LINE SMOOTH",
"275 741 OFFCURVE",
"280 743 OFFCURVE",
"289 756 CURVE",
"364 846 LINE",
"439 756 LINE SMOOTH",
"449 744 OFFCURVE",
"453 741 OFFCURVE",
"470 741 CURVE SMOOTH",
"502 741 LINE SMOOTH",
"518 741 OFFCURVE",
"525 753 OFFCURVE",
"514 766 CURVE SMOOTH",
"410 891 LINE",
"400 904 OFFCURVE",
"394 910 OFFCURVE",
"377 910 CURVE SMOOTH",
"351 910 LINE SMOOTH",
"334 910 OFFCURVE",
"328 904 OFFCURVE",
"318 891 CURVE",
"214 766 LINE SMOOTH",
"203 753 OFFCURVE",
"210 741 OFFCURVE",
"226 741 CURVE SMOOTH"
);
},
{
closed = 1;
nodes = (
"507 849 LINE SMOOTH",
"521 849 OFFCURVE",
"528 857 OFFCURVE",
"528 871 CURVE SMOOTH",
"528 883 LINE",
"567 883 OFFCURVE",
"604 907 OFFCURVE",
"604 957 CURVE SMOOTH",
"604 1005 OFFCURVE",
"571 1032 OFFCURVE",
"508 1032 CURVE SMOOTH",
"478 1032 OFFCURVE",
"444 1024 OFFCURVE",
"424 1012 CURVE",
"420 1009 OFFCURVE",
"419 1007 OFFCURVE",
"421 1002 CURVE",
"437 970 LINE SMOOTH",
"439 966 OFFCURVE",
"441 966 OFFCURVE",
"445 968 CURVE",
"460 977 OFFCURVE",
"481 982 OFFCURVE",
"501 982 CURVE SMOOTH",
"527 982 OFFCURVE",
"540 974 OFFCURVE",
"540 956 CURVE SMOOTH",
"540 934 OFFCURVE",
"530 926 OFFCURVE",
"497 926 CURVE SMOOTH",
"475 926 OFFCURVE",
"464 916 OFFCURVE",
"464 896 CURVE SMOOTH",
"464 871 LINE SMOOTH",
"464 857 OFFCURVE",
"471 849 OFFCURVE",
"486 849 CURVE SMOOTH"
);
}
);
width = 727;
}
);
note = Acircumflexhookabove;
unicode = 1EA8;
},
{
glyphname = Acircumflextilde;
lastChange = "2015-07-18 10:08:20 +0000";
layers = (
{
layerId = "5D04EF83-1EDC-47E1-87A2-0FB57D789DB8";
name = Light;
paths = (
{
closed = 1;
nodes = (
"116 0 LINE SMOOTH",
"133 0 OFFCURVE",
"136 3 OFFCURVE",
"141 15 CURVE SMOOTH",
"209 178 LINE",
"518 178 LINE",
"586 15 LINE SMOOTH",
"591 3 OFFCURVE",
"594 0 OFFCURVE",
"611 0 CURVE SMOOTH",
"664 0 LINE SMOOTH",
"678 0 OFFCURVE",
"682 10 OFFCURVE",
"677 23 CURVE SMOOTH",
"408 659 LINE SMOOTH",
"401 675 OFFCURVE",
"397 680 OFFCURVE",
"382 680 CURVE SMOOTH",
"345 680 LINE SMOOTH",
"330 680 OFFCURVE",
"326 675 OFFCURVE",
"319 659 CURVE SMOOTH",
"50 23 LINE SMOOTH",
"45 10 OFFCURVE",
"49 0 OFFCURVE",
"63 0 CURVE SMOOTH"
);
},
{
closed = 1;
nodes = (
"363 557 LINE",
"491 249 LINE",
"235 249 LINE"
);
},
{
closed = 1;
nodes = (
"264 741 LINE SMOOTH",
"281 741 OFFCURVE",
"286 743 OFFCURVE",
"295 756 CURVE",
"370 846 LINE",
"445 756 LINE SMOOTH",
"455 744 OFFCURVE",
"459 741 OFFCURVE",
"476 741 CURVE SMOOTH",
"508 741 LINE SMOOTH",
"524 741 OFFCURVE",
"531 753 OFFCURVE",
"520 766 CURVE SMOOTH",
"416 891 LINE",
"406 904 OFFCURVE",
"400 910 OFFCURVE",
"383 910 CURVE SMOOTH",
"357 910 LINE SMOOTH",
"340 910 OFFCURVE",
"334 904 OFFCURVE",
"324 891 CURVE",
"220 766 LINE SMOOTH",
"209 753 OFFCURVE",
"216 741 OFFCURVE",
"232 741 CURVE SMOOTH"
);
},
{
closed = 1;
nodes = (
"485 924 OFFCURVE",
"517 943 OFFCURVE",
"542 976 CURVE SMOOTH",
"555 993 OFFCURVE",
"556 1002 OFFCURVE",
"539 1015 CURVE SMOOTH",
"519 1031 OFFCURVE",
"511 1030 OFFCURVE",
"499 1014 CURVE SMOOTH",
"484 993 OFFCURVE",
"471 984 OFFCURVE",
"445 984 CURVE SMOOTH",
"397 984 OFFCURVE",
"383 1031 OFFCURVE",
"313 1031 CURVE SMOOTH",
"272 1031 OFFCURVE",
"239 1010 OFFCURVE",
"215 977 CURVE SMOOTH",
"202 960 OFFCURVE",
"211 951 OFFCURVE",
"220 943 CURVE SMOOTH",
"237 928 OFFCURVE",
"249 925 OFFCURVE",
"260 939 CURVE SMOOTH",
"275 958 OFFCURVE",
"288 971 OFFCURVE",
"315 971 CURVE SMOOTH",
"361 971 OFFCURVE",
"383 924 OFFCURVE",
"444 924 CURVE SMOOTH"
);
}
);
width = 727;
}
);
note = Acircumflextilde;
unicode = 1EAA;
},
{
glyphname = Adieresis;
lastChange = "2015-07-18 10:08:21 +0000";
layers = (
{
layerId = "5D04EF83-1EDC-47E1-87A2-0FB57D789DB8";
name = Light;
paths = (
{
closed = 1;
nodes = (
"116 0 LINE SMOOTH",
"133 0 OFFCURVE",
"136 3 OFFCURVE",
"141 15 CURVE SMOOTH",
"209 178 LINE",
"518 178 LINE",
"586 15 LINE SMOOTH",
"591 3 OFFCURVE",
"594 0 OFFCURVE",
"611 0 CURVE SMOOTH",
"664 0 LINE SMOOTH",
"678 0 OFFCURVE",
"682 10 OFFCURVE",
"677 23 CURVE SMOOTH",
"408 659 LINE SMOOTH",
"401 675 OFFCURVE",
"397 680 OFFCURVE",
"382 680 CURVE SMOOTH",
"345 680 LINE SMOOTH",
"330 680 OFFCURVE",
"326 675 OFFCURVE",
"319 659 CURVE SMOOTH",
"50 23 LINE SMOOTH",
"45 10 OFFCURVE",
"49 0 OFFCURVE",
"63 0 CURVE SMOOTH"
);
},
{
closed = 1;
nodes = (
"363 557 LINE",
"491 249 LINE",
"235 249 LINE"
);
},
{
closed = 1;
nodes = (
"278 728 LINE SMOOTH",
"302 728 OFFCURVE",
"318 747 OFFCURVE",
"318 770 CURVE SMOOTH",
"318 786 LINE SMOOTH",
"318 809 OFFCURVE",
"301 828 OFFCURVE",
"278 828 CURVE SMOOTH",
"261 828 LINE SMOOTH",
"237 828 OFFCURVE",
"221 809 OFFCURVE",
"221 786 CURVE SMOOTH",
"221 770 LINE SMOOTH",
"221 747 OFFCURVE",
"237 728 OFFCURVE",
"261 728 CURVE SMOOTH"
);
},
{
closed = 1;
nodes = (
"466 728 LINE SMOOTH",
"491 728 OFFCURVE",
"506 747 OFFCURVE",
"506 770 CURVE SMOOTH",
"506 786 LINE SMOOTH",
"506 809 OFFCURVE",
"490 828 OFFCURVE",
"466 828 CURVE SMOOTH",
"449 828 LINE SMOOTH",
"426 828 OFFCURVE",
"409 809 OFFCURVE",
"409 786 CURVE SMOOTH",
"409 770 LINE SMOOTH",
"409 747 OFFCURVE",
"426 728 OFFCURVE",
"449 728 CURVE SMOOTH"
);
}
);
width = 727;
}
);
note = Adieresis;
unicode = 00C4;
},
{
glyphname = Adotbelow;
lastChange = "2015-07-18 10:08:22 +0000";
layers = (
{
layerId = "5D04EF83-1EDC-47E1-87A2-0FB57D789DB8";
name = Light;
paths = (
{
closed = 1;
nodes = (
"116 0 LINE SMOOTH",
"133 0 OFFCURVE",
"136 3 OFFCURVE",
"141 15 CURVE SMOOTH",
"209 178 LINE",
"518 178 LINE",
"586 15 LINE SMOOTH",
"591 3 OFFCURVE",
"594 0 OFFCURVE",
"611 0 CURVE SMOOTH",
"664 0 LINE SMOOTH",
"678 0 OFFCURVE",
"682 10 OFFCURVE",
"677 23 CURVE SMOOTH",
"408 659 LINE SMOOTH",
"401 675 OFFCURVE",
"397 680 OFFCURVE",
"382 680 CURVE SMOOTH",
"345 680 LINE SMOOTH",
"330 680 OFFCURVE",
"326 675 OFFCURVE",
"319 659 CURVE SMOOTH",
"50 23 LINE SMOOTH",
"45 10 OFFCURVE",
"49 0 OFFCURVE",
"63 0 CURVE SMOOTH"
);
},
{
closed = 1;
nodes = (
"372 -172 LINE SMOOTH",
"397 -172 OFFCURVE",
"412 -153 OFFCURVE",
"412 -130 CURVE SMOOTH",
"412 -114 LINE SMOOTH",
"412 -91 OFFCURVE",
"396 -72 OFFCURVE",
"372 -72 CURVE SMOOTH",
"355 -72 LINE SMOOTH",
"332 -72 OFFCURVE",
"315 -91 OFFCURVE",
"315 -114 CURVE SMOOTH",
"315 -130 LINE SMOOTH",
"315 -153 OFFCURVE",
"332 -172 OFFCURVE",
"355 -172 CURVE SMOOTH"
);
},
{
closed = 1;
nodes = (
"363 557 LINE",
"491 249 LINE",
"235 249 LINE"
);
}
);
width = 727;
}
);
note = Adotbelow;
unicode = 1EA0;
},
{
glyphname = Agrave;
lastChange = "2015-07-18 10:08:20 +0000";
layers = (
{
layerId = "5D04EF83-1EDC-47E1-87A2-0FB57D789DB8";
name = Light;
paths = (
{
closed = 1;
nodes = (
"116 0 LINE SMOOTH",
"133 0 OFFCURVE",
"136 3 OFFCURVE",
"141 15 CURVE SMOOTH",
"209 178 LINE",
"518 178 LINE",
"586 15 LINE SMOOTH",
"591 3 OFFCURVE",
"594 0 OFFCURVE",
"611 0 CURVE SMOOTH",
"664 0 LINE SMOOTH",
"678 0 OFFCURVE",
"682 10 OFFCURVE",
"677 23 CURVE SMOOTH",
"408 659 LINE SMOOTH",
"401 675 OFFCURVE",
"397 680 OFFCURVE",
"382 680 CURVE SMOOTH",
"345 680 LINE SMOOTH",
"330 680 OFFCURVE",
"326 675 OFFCURVE",
"319 659 CURVE SMOOTH",
"50 23 LINE SMOOTH",
"45 10 OFFCURVE",
"49 0 OFFCURVE",
"63 0 CURVE SMOOTH"
);
},
{
closed = 1;
nodes = (
"363 557 LINE",
"491 249 LINE",
"235 249 LINE"
);
},
{
closed = 1;
nodes = (
"389 735 LINE SMOOTH",
"404 735 OFFCURVE",
"408 744 OFFCURVE",
"403 757 CURVE SMOOTH",
"353 893 LINE SMOOTH",
"348 908 OFFCURVE",
"344 912 OFFCURVE",
"324 912 CURVE SMOOTH",
"274 912 LINE SMOOTH",
"257 912 OFFCURVE",
"250 904 OFFCURVE",
"258 888 CURVE SMOOTH",
"325 752 LINE SMOOTH",
"331 739 OFFCURVE",
"337 735 OFFCURVE",
"355 735 CURVE SMOOTH"
);
}
);
width = 727;
}
);
note = Agrave;
unicode = 00C0;
},
{
glyphname = Ahookabove;
lastChange = "2015-07-18 10:08:21 +0000";
layers = (
{
layerId = "5D04EF83-1EDC-47E1-87A2-0FB57D789DB8";
name = Light;
paths = (
{
closed = 1;
nodes = (
"116 0 LINE SMOOTH",
"133 0 OFFCURVE",
"136 3 OFFCURVE",
"141 15 CURVE SMOOTH",
"209 178 LINE",
"518 178 LINE",
"586 15 LINE SMOOTH",
"591 3 OFFCURVE",
"594 0 OFFCURVE",
"611 0 CURVE SMOOTH",
"664 0 LINE SMOOTH",
"678 0 OFFCURVE",
"682 10 OFFCURVE",
"677 23 CURVE SMOOTH",
"408 659 LINE SMOOTH",
"401 675 OFFCURVE",
"397 680 OFFCURVE",
"382 680 CURVE SMOOTH",
"345 680 LINE SMOOTH",
"330 680 OFFCURVE",
"326 675 OFFCURVE",
"319 659 CURVE SMOOTH",
"50 23 LINE SMOOTH",
"45 10 OFFCURVE",
"49 0 OFFCURVE",
"63 0 CURVE SMOOTH"
);
},
{
closed = 1;
nodes = (
"363 557 LINE",
"491 249 LINE",
"235 249 LINE"
);
},
{
closed = 1;
nodes = (
"374 734 LINE SMOOTH",
"390 734 OFFCURVE",
"397 742 OFFCURVE",
"397 757 CURVE SMOOTH",
"397 782 LINE",
"449 782 OFFCURVE",
"498 815 OFFCURVE",
"498 875 CURVE SMOOTH",
"498 932 OFFCURVE",
"458 969 OFFCURVE",
"372 969 CURVE SMOOTH",
"333 969 OFFCURVE",
"290 959 OFFCURVE",
"264 942 CURVE",
"259 939 OFFCURVE",
"259 937 OFFCURVE",
"261 932 CURVE",
"278 894 LINE",
"280 890 OFFCURVE",
"283 890 OFFCURVE",
"287 892 CURVE SMOOTH",
"313 905 OFFCURVE",
"336 912 OFFCURVE",
"366 912 CURVE SMOOTH",
"407 912 OFFCURVE",
"427 900 OFFCURVE",
"427 873 CURVE SMOOTH",
"427 843 OFFCURVE",
"411 830 OFFCURVE",
"361 830 CURVE SMOOTH",
"337 830 OFFCURVE",
"326 819 OFFCURVE",
"326 799 CURVE SMOOTH",
"326 757 LINE SMOOTH",
"326 742 OFFCURVE",
"333 734 OFFCURVE",
"349 734 CURVE SMOOTH"
);
}
);
width = 727;
}
);
note = Ahookabove;
unicode = 1EA2;
},
{
glyphname = Amacron;
lastChange = "2015-07-18 10:08:22 +0000";
layers = (
{
layerId = "5D04EF83-1EDC-47E1-87A2-0FB57D789DB8";
name = Light;
paths = (
{
closed = 1;
nodes = (
"116 0 LINE SMOOTH",
"133 0 OFFCURVE",
"136 3 OFFCURVE",
"141 15 CURVE SMOOTH",
"209 178 LINE",
"518 178 LINE",
"586 15 LINE SMOOTH",
"591 3 OFFCURVE",
"594 0 OFFCURVE",
"611 0 CURVE SMOOTH",
"664 0 LINE SMOOTH",
"678 0 OFFCURVE",
"682 10 OFFCURVE",
"677 23 CURVE SMOOTH",
"408 659 LINE SMOOTH",
"401 675 OFFCURVE",
"397 680 OFFCURVE",
"382 680 CURVE SMOOTH",
"345 680 LINE SMOOTH",
"330 680 OFFCURVE",
"326 675 OFFCURVE",
"319 659 CURVE SMOOTH",
"50 23 LINE SMOOTH",
"45 10 OFFCURVE",
"49 0 OFFCURVE",
"63 0 CURVE SMOOTH"
);
},
{
closed = 1;
nodes = (
"363 557 LINE",
"491 249 LINE",
"235 249 LINE"
);
},
{
closed = 1;
nodes = (
"502 789 LINE SMOOTH",
"523 789 OFFCURVE",
"531 796 OFFCURVE",
"531 817 CURVE SMOOTH",
"531 833 LINE SMOOTH",
"531 854 OFFCURVE",
"523 862 OFFCURVE",
"502 862 CURVE SMOOTH",
"226 862 LINE SMOOTH",
"205 862 OFFCURVE",
"197 854 OFFCURVE",
"197 833 CURVE SMOOTH",
"197 817 LINE SMOOTH",
"197 796 OFFCURVE",
"205 789 OFFCURVE",
"226 789 CURVE SMOOTH"
);
}
);
width = 727;
}
);
note = Amacron;
unicode = 0100;
},
{
glyphname = Aogonek;
lastChange = "2015-07-18 10:08:22 +0000";
layers = (
{
layerId = "5D04EF83-1EDC-47E1-87A2-0FB57D789DB8";
name = Light;
paths = (
{
closed = 1;
nodes = (
"116 0 LINE SMOOTH",
"133 0 OFFCURVE",
"136 3 OFFCURVE",
"141 15 CURVE SMOOTH",
"209 178 LINE",
"518 178 LINE",
"586 15 LINE SMOOTH",
"591 3 OFFCURVE",
"594 0 OFFCURVE",
"611 0 CURVE SMOOTH",
"664 0 LINE SMOOTH",
"678 0 OFFCURVE",
"682 10 OFFCURVE",
"677 23 CURVE SMOOTH",
"408 659 LINE SMOOTH",
"401 675 OFFCURVE",
"397 680 OFFCURVE",
"382 680 CURVE SMOOTH",
"345 680 LINE SMOOTH",
"330 680 OFFCURVE",
"326 675 OFFCURVE",
"319 659 CURVE SMOOTH",
"50 23 LINE SMOOTH",
"45 10 OFFCURVE",
"49 0 OFFCURVE",
"63 0 CURVE SMOOTH"
);
},
{
closed = 1;
nodes = (
"624 -202 OFFCURVE",
"645 -200 OFFCURVE",
"660 -192 CURVE SMOOTH",
"672 -186 OFFCURVE",
"673 -182 OFFCURVE",
"670 -175 CURVE",
"657 -148 LINE SMOOTH",
"653 -139 OFFCURVE",
"650 -140 OFFCURVE",
"643 -143 CURVE",
"637 -146 OFFCURVE",
"630 -147 OFFCURVE",
"621 -147 CURVE SMOOTH",
"605 -147 OFFCURVE",
"597 -138 OFFCURVE",
"597 -120 CURVE SMOOTH",
"597 -91 OFFCURVE",
"609 -66 OFFCURVE",
"655 -10 CURVE SMOOTH",
"662 -2 OFFCURVE",
"657 6 OFFCURVE",
"645 6 CURVE SMOOTH",
"605 6 LINE SMOOTH",
"592 6 OFFCURVE",
"588 2 OFFCURVE",
"580 -7 CURVE SMOOTH",
"536 -57 OFFCURVE",
"519 -94 OFFCURVE",
"519 -130 CURVE SMOOTH",
"519 -169 OFFCURVE",
"545 -202 OFFCURVE",
"599 -202 CURVE SMOOTH"
);
},
{
closed = 1;
nodes = (
"363 557 LINE",
"491 249 LINE",
"235 249 LINE"
);
}
);
width = 727;
}
);
note = Aogonek;
unicode = 0104;
},
{
glyphname = Aring;
lastChange = "2015-07-18 10:08:22 +0000";
layers = (
{
layerId = "5D04EF83-1EDC-47E1-87A2-0FB57D789DB8";
name = Light;
paths = (
{
closed = 1;
nodes = (
"116 0 LINE SMOOTH",
"133 0 OFFCURVE",
"136 3 OFFCURVE",
"141 15 CURVE SMOOTH",
"209 178 LINE",
"518 178 LINE",
"586 15 LINE SMOOTH",
"591 3 OFFCURVE",
"594 0 OFFCURVE",
"611 0 CURVE SMOOTH",
"664 0 LINE SMOOTH",
"678 0 OFFCURVE",
"682 10 OFFCURVE",
"677 23 CURVE SMOOTH",
"408 659 LINE SMOOTH",
"401 675 OFFCURVE",
"397 680 OFFCURVE",
"382 680 CURVE SMOOTH",
"345 680 LINE SMOOTH",
"330 680 OFFCURVE",
"326 675 OFFCURVE",
"319 659 CURVE SMOOTH",
"50 23 LINE SMOOTH",
"45 10 OFFCURVE",
"49 0 OFFCURVE",
"63 0 CURVE SMOOTH"
);
},
{
closed = 1;
nodes = (
"363 557 LINE",
"491 249 LINE",
"235 249 LINE"
);
},
{
closed = 1;
nodes = (
"426 638 OFFCURVE",
"477 688 OFFCURVE",
"477 751 CURVE SMOOTH",
"477 814 OFFCURVE",
"426 865 OFFCURVE",
"363 865 CURVE SMOOTH",
"300 865 OFFCURVE",
"250 814 OFFCURVE",
"250 751 CURVE SMOOTH",
"250 688 OFFCURVE",
"300 638 OFFCURVE",
"363 638 CURVE SMOOTH"
);
},
{
closed = 1;
nodes = (
"329 690 OFFCURVE",
"302 717 OFFCURVE",
"302 751 CURVE SMOOTH",
"302 785 OFFCURVE",
"329 812 OFFCURVE",
"363 812 CURVE SMOOTH",
"397 812 OFFCURVE",
"424 785 OFFCURVE",
"424 751 CURVE SMOOTH",
"424 717 OFFCURVE",
"397 690 OFFCURVE",
"363 690 CURVE SMOOTH"
);
}
);
width = 727;
}
);
note = Aring;
unicode = 00C5;
},
{
glyphname = Aringacute;
lastChange = "2015-07-18 10:08:21 +0000";
layers = (
{
layerId = "5D04EF83-1EDC-47E1-87A2-0FB57D789DB8";
name = Light;
paths = (
{
closed = 1;
nodes = (
"116 0 LINE SMOOTH",
"133 0 OFFCURVE",
"136 3 OFFCURVE",
"141 15 CURVE SMOOTH",
"209 178 LINE",
"518 178 LINE",
"586 15 LINE SMOOTH",
"591 3 OFFCURVE",
"594 0 OFFCURVE",
"611 0 CURVE SMOOTH",
"664 0 LINE SMOOTH",
"678 0 OFFCURVE",
"682 10 OFFCURVE",
"677 23 CURVE SMOOTH",
"408 659 LINE SMOOTH",
"401 675 OFFCURVE",
"397 680 OFFCURVE",
"382 680 CURVE SMOOTH",
"345 680 LINE SMOOTH",
"330 680 OFFCURVE",
"326 675 OFFCURVE",
"319 659 CURVE SMOOTH",
"50 23 LINE SMOOTH",
"45 10 OFFCURVE",
"49 0 OFFCURVE",
"63 0 CURVE SMOOTH"
);
},
{
closed = 1;
nodes = (
"363 557 LINE",
"491 249 LINE",
"235 249 LINE"
);
},
{
closed = 1;
nodes = (
"426 638 OFFCURVE",
"477 688 OFFCURVE",
"477 751 CURVE SMOOTH",
"477 814 OFFCURVE",
"426 865 OFFCURVE",
"363 865 CURVE SMOOTH",
"300 865 OFFCURVE",
"250 814 OFFCURVE",
"250 751 CURVE SMOOTH",
"250 688 OFFCURVE",
"300 638 OFFCURVE",
"363 638 CURVE SMOOTH"
);
},
{
closed = 1;
nodes = (
"329 690 OFFCURVE",
"302 717 OFFCURVE",
"302 751 CURVE SMOOTH",
"302 785 OFFCURVE",
"329 812 OFFCURVE",
"363 812 CURVE SMOOTH",
"397 812 OFFCURVE",
"424 785 OFFCURVE",
"424 751 CURVE SMOOTH",
"424 717 OFFCURVE",
"397 690 OFFCURVE",
"363 690 CURVE SMOOTH"
);
},
{
closed = 1;
nodes = (
"367 894 LINE SMOOTH",
"385 894 OFFCURVE",
"392 898 OFFCURVE",
"398 911 CURVE SMOOTH",
"464 1047 LINE SMOOTH",
"472 1063 OFFCURVE",
"466 1071 OFFCURVE",
"449 1071 CURVE SMOOTH",
"398 1071 LINE SMOOTH",
"379 1071 OFFCURVE",
"374 1066 OFFCURVE",
"369 1052 CURVE SMOOTH",
"320 916 LINE SMOOTH",
"315 903 OFFCURVE",
"318 894 OFFCURVE",
"333 894 CURVE SMOOTH"
);
}
);
width = 727;
}
);
note = Aringacute;
unicode = 01FA;
},
{
glyphname = Atilde;
lastChange = "2015-07-18 10:08:21 +0000";
layers = (
{
layerId = "5D04EF83-1EDC-47E1-87A2-0FB57D789DB8";
name = Light;
paths = (
{
closed = 1;
nodes = (
"116 0 LINE SMOOTH",
"133 0 OFFCURVE",
"136 3 OFFCURVE",
"141 15 CURVE SMOOTH",
"209 178 LINE",
"518 178 LINE",
"586 15 LINE SMOOTH",
"591 3 OFFCURVE",
"594 0 OFFCURVE",
"611 0 CURVE SMOOTH",
"664 0 LINE SMOOTH",
"678 0 OFFCURVE",
"682 10 OFFCURVE",
"677 23 CURVE SMOOTH",
"408 659 LINE SMOOTH",
"401 675 OFFCURVE",
"397 680 OFFCURVE",
"382 680 CURVE SMOOTH",
"345 680 LINE SMOOTH",
"330 680 OFFCURVE",
"326 675 OFFCURVE",
"319 659 CURVE SMOOTH",
"50 23 LINE SMOOTH",
"45 10 OFFCURVE",
"49 0 OFFCURVE",
"63 0 CURVE SMOOTH"
);
},
{
closed = 1;
nodes = (
"363 557 LINE",
"491 249 LINE",
"235 249 LINE"
);
},
{
closed = 1;
nodes = (
"506 735 OFFCURVE",
"536 756 OFFCURVE",
"565 799 CURVE SMOOTH",
"577 817 OFFCURVE",
"576 828 OFFCURVE",
"556 844 CURVE SMOOTH",
"537 860 OFFCURVE",
"524 860 OFFCURVE",
"513 845 CURVE SMOOTH",
"491 816 OFFCURVE",
"476 807 OFFCURVE",
"448 807 CURVE SMOOTH",
"386 807 OFFCURVE",
"343 860 OFFCURVE",
"261 860 CURVE SMOOTH",
"214 860 OFFCURVE",
"185 833 OFFCURVE",
"162 806 CURVE SMOOTH",
"149 791 OFFCURVE",
"149 778 OFFCURVE",
"163 764 CURVE SMOOTH",
"181 746 OFFCURVE",
"195 744 OFFCURVE",
"206 757 CURVE",
"226 779 OFFCURVE",
"236 789 OFFCURVE",
"265 789 CURVE SMOOTH",
"320 789 OFFCURVE",
"379 735 OFFCURVE",
"448 735 CURVE SMOOTH"
);
}
);
width = 727;
}
);
note = Atilde;
unicode = 00C3;
},
{
glyphname = AE;
lastChange = "2015-07-18 10:08:21 +0000";
layers = (
{
layerId = "5D04EF83-1EDC-47E1-87A2-0FB57D789DB8";
name = Light;
paths = (
{
closed = 1;
nodes = (
"106 0 LINE SMOOTH",
"127 0 OFFCURVE",
"137 4 OFFCURVE",
"143 19 CURVE SMOOTH",
"209 178 LINE",
"423 178 LINE",
"423 30 LINE SMOOTH",
"423 10 OFFCURVE",
"432 0 OFFCURVE",
"454 0 CURVE SMOOTH",
"825 0 LINE SMOOTH",
"846 0 OFFCURVE",
"855 7 OFFCURVE",
"855 27 CURVE SMOOTH",
"855 44 LINE SMOOTH",
"855 65 OFFCURVE",
"846 73 OFFCURVE",
"825 73 CURVE SMOOTH",
"511 73 LINE",
"511 304 LINE",
"738 304 LINE SMOOTH",
"759 304 OFFCURVE",
"767 313 OFFCURVE",
"767 333 CURVE SMOOTH",
"767 349 LINE SMOOTH",
"767 370 OFFCURVE",
"759 377 OFFCURVE",
"738 377 CURVE SMOOTH",
"511 377 LINE",
"511 607 LINE",
"825 607 LINE SMOOTH",
"846 607 OFFCURVE",
"855 615 OFFCURVE",
"855 636 CURVE SMOOTH",
"855 653 LINE SMOOTH",
"855 673 OFFCURVE",
"846 680 OFFCURVE",
"825 680 CURVE SMOOTH",
"345 680 LINE SMOOTH",
"330 680 OFFCURVE",
"325 675 OFFCURVE",
"319 659 CURVE",
"50 23 LINE SMOOTH",
"45 10 OFFCURVE",
"50 0 OFFCURVE",
"63 0 CURVE SMOOTH"
);
},
{
closed = 1;
nodes = (
"383 607 LINE",
"423 607 LINE",
"423 249 LINE",
"233 249 LINE"
);
}
);
width = 892;
}
);
note = AE;
unicode = 00C6;
},
{
glyphname = AEacute;
lastChange = "2015-07-18 10:08:20 +0000";
layers = (
{
layerId = "5D04EF83-1EDC-47E1-87A2-0FB57D789DB8";
name = Light;
paths = (
{
closed = 1;
nodes = (
"106 0 LINE SMOOTH",
"127 0 OFFCURVE",
"137 4 OFFCURVE",
"143 19 CURVE SMOOTH",
"209 178 LINE",
"423 178 LINE",
"423 30 LINE SMOOTH",
"423 10 OFFCURVE",
"432 0 OFFCURVE",
"454 0 CURVE SMOOTH",
"825 0 LINE SMOOTH",
"846 0 OFFCURVE",
"855 7 OFFCURVE",
"855 27 CURVE SMOOTH",
"855 44 LINE SMOOTH",
"855 65 OFFCURVE",
"846 73 OFFCURVE",
"825 73 CURVE SMOOTH",
"511 73 LINE",
"511 304 LINE",
"738 304 LINE SMOOTH",
"759 304 OFFCURVE",
"767 313 OFFCURVE",
"767 333 CURVE SMOOTH",
"767 349 LINE SMOOTH",
"767 370 OFFCURVE",
"759 377 OFFCURVE",
"738 377 CURVE SMOOTH",
"511 377 LINE",
"511 607 LINE",
"825 607 LINE SMOOTH",
"846 607 OFFCURVE",
"855 615 OFFCURVE",
"855 636 CURVE SMOOTH",
"855 653 LINE SMOOTH",
"855 673 OFFCURVE",
"846 680 OFFCURVE",
"825 680 CURVE SMOOTH",
"345 680 LINE SMOOTH",
"330 680 OFFCURVE",
"325 675 OFFCURVE",
"319 659 CURVE",
"50 23 LINE SMOOTH",
"45 10 OFFCURVE",
"50 0 OFFCURVE",
"63 0 CURVE SMOOTH"
);
},
{
closed = 1;
nodes = (
"383 607 LINE",
"423 607 LINE",
"423 249 LINE",
"233 249 LINE"
);
},
{
closed = 1;
nodes = (
"494 735 LINE SMOOTH",
"512 735 OFFCURVE",
"519 739 OFFCURVE",
"525 752 CURVE SMOOTH",
"591 888 LINE SMOOTH",
"599 904 OFFCURVE",
"593 912 OFFCURVE",
"576 912 CURVE SMOOTH",
"525 912 LINE SMOOTH",
"506 912 OFFCURVE",
"501 907 OFFCURVE",
"496 893 CURVE SMOOTH",
"447 757 LINE SMOOTH",
"442 744 OFFCURVE",
"445 735 OFFCURVE",
"460 735 CURVE SMOOTH"
);
}
);
width = 892;
}
);
note = AEacute;
unicode = 01FC;
},
{
glyphname = B;
lastChange = "2015-07-18 10:08:20 +0000";
layers = (
{
layerId = "5D04EF83-1EDC-47E1-87A2-0FB57D789DB8";
name = Light;
paths = (
{
closed = 1;
nodes = (
"388 0 LINE SMOOTH",
"534 0 OFFCURVE",
"604 88 OFFCURVE",
"604 193 CURVE SMOOTH",
"604 270 OFFCURVE",
"570 328 OFFCURVE",
"486 354 CURVE",
"549 380 OFFCURVE",
"583 436 OFFCURVE",
"583 500 CURVE SMOOTH",
"583 606 OFFCURVE",
"515 680 OFFCURVE",
"381 680 CURVE SMOOTH",
"97 680 LINE SMOOTH",
"76 680 OFFCURVE",
"67 670 OFFCURVE",
"67 650 CURVE SMOOTH",
"67 30 LINE SMOOTH",
"67 10 OFFCURVE",
"76 0 OFFCURVE",
"97 0 CURVE SMOOTH"
);
},
{
closed = 1;
nodes = (
"158 316 LINE",
"371 316 LINE SMOOTH",
"459 316 OFFCURVE",
"515 277 OFFCURVE",
"515 193 CURVE SMOOTH",
"515 128 OFFCURVE",
"481 73 OFFCURVE",
"387 73 CURVE SMOOTH",
"158 73 LINE"
);
},
{
closed = 1;
nodes = (
"158 607 LINE",
"372 607 LINE SMOOTH",
"458 607 OFFCURVE",
"494 576 OFFCURVE",
"494 500 CURVE SMOOTH",
"494 431 OFFCURVE",
"452 388 OFFCURVE",
"373 388 CURVE SMOOTH",
"158 388 LINE"
);
}
);
width = 651;
}
);
note = B;
unicode = 0042;
},
{
glyphname = C;
lastChange = "2015-07-18 10:08:16 +0000";
layers = (
{
layerId = "5D04EF83-1EDC-47E1-87A2-0FB57D789DB8";
name = Light;
paths = (
{
closed = 1;
nodes = (
"492 -15 OFFCURVE",
"566 1 OFFCURVE",
"620 37 CURVE SMOOTH",
"630 44 OFFCURVE",
"632 47 OFFCURVE",
"627 56 CURVE SMOOTH",
"605 94 LINE SMOOTH",
"600 103 OFFCURVE",
"595 103 OFFCURVE",
"585 97 CURVE SMOOTH",
"539 69 OFFCURVE",
"483 55 OFFCURVE",
"402 55 CURVE SMOOTH",
"249 55 OFFCURVE",
"136 136 OFFCURVE",
"136 340 CURVE SMOOTH",
"136 539 OFFCURVE",
"243 625 OFFCURVE",
"400 625 CURVE SMOOTH",
"476 625 OFFCURVE",
"535 607 OFFCURVE",
"572 584 CURVE SMOOTH",
"582 578 OFFCURVE",
"585 578 OFFCURVE",
"591 588 CURVE SMOOTH",
"612 623 LINE SMOOTH",
"618 633 OFFCURVE",
"616 638 OFFCURVE",
"607 644 CURVE SMOOTH",
"555 678 OFFCURVE",
"476 695 OFFCURVE",
"393 695 CURVE SMOOTH",
"171 695 OFFCURVE",
"47 565 OFFCURVE",
"47 340 CURVE SMOOTH",
"47 115 OFFCURVE",
"173 -15 OFFCURVE",
"394 -15 CURVE SMOOTH"
);
}
);
width = 676;
}
);
note = C;
unicode = 0043;
},
{
glyphname = Cacute;
lastChange = "2015-07-18 10:08:22 +0000";
layers = (
{
layerId = "5D04EF83-1EDC-47E1-87A2-0FB57D789DB8";
name = Light;
paths = (
{
closed = 1;
nodes = (
"492 -15 OFFCURVE",
"566 1 OFFCURVE",
"620 37 CURVE SMOOTH",
"630 44 OFFCURVE",
"632 47 OFFCURVE",
"627 56 CURVE SMOOTH",
"605 94 LINE SMOOTH",
"600 103 OFFCURVE",
"595 103 OFFCURVE",
"585 97 CURVE SMOOTH",
"539 69 OFFCURVE",
"483 55 OFFCURVE",
"402 55 CURVE SMOOTH",
"249 55 OFFCURVE",
"136 136 OFFCURVE",
"136 340 CURVE SMOOTH",
"136 539 OFFCURVE",
"243 625 OFFCURVE",
"400 625 CURVE SMOOTH",
"476 625 OFFCURVE",
"535 607 OFFCURVE",
"572 584 CURVE SMOOTH",
"582 578 OFFCURVE",
"585 578 OFFCURVE",
"591 588 CURVE SMOOTH",
"612 623 LINE SMOOTH",
"618 633 OFFCURVE",
"616 638 OFFCURVE",
"607 644 CURVE SMOOTH",
"555 678 OFFCURVE",
"476 695 OFFCURVE",
"393 695 CURVE SMOOTH",
"171 695 OFFCURVE",
"47 565 OFFCURVE",
"47 340 CURVE SMOOTH",
"47 115 OFFCURVE",
"173 -15 OFFCURVE",
"394 -15 CURVE SMOOTH"
);
},
{
closed = 1;
nodes = (
"386 759 LINE SMOOTH",
"404 759 OFFCURVE",
"411 763 OFFCURVE",
"417 776 CURVE SMOOTH",
"483 912 LINE SMOOTH",
"491 928 OFFCURVE",
"485 936 OFFCURVE",
"468 936 CURVE SMOOTH",
"417 936 LINE SMOOTH",
"398 936 OFFCURVE",
"393 931 OFFCURVE",
"388 917 CURVE SMOOTH",
"339 781 LINE SMOOTH",
"334 768 OFFCURVE",
"337 759 OFFCURVE",
"352 759 CURVE SMOOTH"
);
}
);
width = 676;
}
);
note = Cacute;
unicode = 0106;
},
{
glyphname = Ccaron;
lastChange = "2015-07-18 10:08:22 +0000";
layers = (
{
layerId = "5D04EF83-1EDC-47E1-87A2-0FB57D789DB8";
name = Light;
paths = (
{
closed = 1;
nodes = (
"492 -15 OFFCURVE",
"566 1 OFFCURVE",
"620 37 CURVE SMOOTH",
"630 44 OFFCURVE",
"632 47 OFFCURVE",
"627 56 CURVE SMOOTH",
"605 94 LINE SMOOTH",
"600 103 OFFCURVE",
"595 103 OFFCURVE",
"585 97 CURVE SMOOTH",
"539 69 OFFCURVE",
"483 55 OFFCURVE",
"402 55 CURVE SMOOTH",
"249 55 OFFCURVE",
"136 136 OFFCURVE",
"136 340 CURVE SMOOTH",
"136 539 OFFCURVE",
"243 625 OFFCURVE",
"400 625 CURVE SMOOTH",
"476 625 OFFCURVE",
"535 607 OFFCURVE",
"572 584 CURVE SMOOTH",
"582 578 OFFCURVE",
"585 578 OFFCURVE",
"591 588 CURVE SMOOTH",
"612 623 LINE SMOOTH",
"618 633 OFFCURVE",
"616 638 OFFCURVE",
"607 644 CURVE SMOOTH",
"555 678 OFFCURVE",
"476 695 OFFCURVE",
"393 695 CURVE SMOOTH",
"171 695 OFFCURVE",
"47 565 OFFCURVE",
"47 340 CURVE SMOOTH",
"47 115 OFFCURVE",
"173 -15 OFFCURVE",
"394 -15 CURVE SMOOTH"
);
},
{
closed = 1;
nodes = (
"418 756 LINE SMOOTH",
"436 756 OFFCURVE",
"439 762 OFFCURVE",
"449 775 CURVE SMOOTH",
"557 924 LINE SMOOTH",
"567 937 OFFCURVE",
"564 949 OFFCURVE",
"549 949 CURVE SMOOTH",
"509 949 LINE SMOOTH",
"489 949 OFFCURVE",
"486 945 OFFCURVE",
"478 933 CURVE SMOOTH",
"401 819 LINE",
"323 933 LINE SMOOTH",
"315 945 OFFCURVE",
"312 949 OFFCURVE",
"292 949 CURVE SMOOTH",
"252 949 LINE SMOOTH",
"237 949 OFFCURVE",
"235 938 OFFCURVE",
"245 924 CURVE SMOOTH",
"353 775 LINE SMOOTH",
"363 762 OFFCURVE",
"366 756 OFFCURVE",
"384 756 CURVE SMOOTH"
);
}
);
width = 676;
}
);
note = Ccaron;
unicode = 010C;
},
{
glyphname = Ccedilla;
lastChange = "2015-07-18 10:08:22 +0000";
layers = (
{
layerId = "5D04EF83-1EDC-47E1-87A2-0FB57D789DB8";
name = Light;
paths = (
{
closed = 1;
nodes = (
"492 -15 OFFCURVE",
"566 1 OFFCURVE",
"620 37 CURVE SMOOTH",
"630 44 OFFCURVE",
"632 47 OFFCURVE",
"627 56 CURVE SMOOTH",
"605 94 LINE SMOOTH",
"600 103 OFFCURVE",
"595 103 OFFCURVE",
"585 97 CURVE SMOOTH",
"539 69 OFFCURVE",
"483 55 OFFCURVE",
"402 55 CURVE SMOOTH",
"249 55 OFFCURVE",
"136 136 OFFCURVE",
"136 340 CURVE SMOOTH",
"136 539 OFFCURVE",
"243 625 OFFCURVE",
"400 625 CURVE SMOOTH",
"476 625 OFFCURVE",
"535 607 OFFCURVE",
"572 584 CURVE SMOOTH",
"582 578 OFFCURVE",
"585 578 OFFCURVE",
"591 588 CURVE SMOOTH",
"612 623 LINE SMOOTH",
"618 633 OFFCURVE",
"616 638 OFFCURVE",
"607 644 CURVE SMOOTH",
"555 678 OFFCURVE",
"476 695 OFFCURVE",
"393 695 CURVE SMOOTH",
"171 695 OFFCURVE",
"47 565 OFFCURVE",
"47 340 CURVE SMOOTH",
"47 115 OFFCURVE",
"173 -15 OFFCURVE",
"394 -15 CURVE SMOOTH"
);
},
{
closed = 1;
nodes = (
"445 -223 OFFCURVE",
"483 -193 OFFCURVE",
"483 -143 CURVE SMOOTH",
"483 -94 OFFCURVE",
"454 -71 OFFCURVE",
"408 -69 CURVE",
"431 -19 LINE SMOOTH",
"436 -9 OFFCURVE",
"433 -3 OFFCURVE",
"421 -3 CURVE SMOOTH",
"376 -3 LINE SMOOTH",
"362 -3 OFFCURVE",
"358 -6 OFFCURVE",
"354 -17 CURVE SMOOTH",
"327 -85 LINE SMOOTH",
"323 -95 OFFCURVE",
"327 -101 OFFCURVE",
"337 -101 CURVE SMOOTH",
"351 -101 LINE SMOOTH",
"393 -101 OFFCURVE",
"415 -106 OFFCURVE",
"415 -137 CURVE SMOOTH",
"415 -161 OFFCURVE",
"404 -170 OFFCURVE",
"373 -170 CURVE SMOOTH",
"358 -170 OFFCURVE",
"339 -166 OFFCURVE",
"326 -159 CURVE",
"317 -153 OFFCURVE",
"312 -154 OFFCURVE",
"308 -163 CURVE SMOOTH",
"297 -189 LINE SMOOTH",
"294 -196 OFFCURVE",
"296 -200 OFFCURVE",
"307 -207 CURVE",
"324 -217 OFFCURVE",
"353 -223 OFFCURVE",
"380 -223 CURVE SMOOTH"
);
}
);
width = 676;
}
);
note = Ccedilla;
unicode = 00C7;
},
{
glyphname = Ccircumflex;
lastChange = "2015-07-18 10:08:20 +0000";
layers = (
{
layerId = "5D04EF83-1EDC-47E1-87A2-0FB57D789DB8";
name = Light;
paths = (
{
closed = 1;
nodes = (
"492 -15 OFFCURVE",
"566 1 OFFCURVE",
"620 37 CURVE SMOOTH",
"630 44 OFFCURVE",
"632 47 OFFCURVE",
"627 56 CURVE SMOOTH",
"605 94 LINE SMOOTH",
"600 103 OFFCURVE",
"595 103 OFFCURVE",
"585 97 CURVE SMOOTH",
"539 69 OFFCURVE",
"483 55 OFFCURVE",
"402 55 CURVE SMOOTH",
"249 55 OFFCURVE",
"136 136 OFFCURVE",
"136 340 CURVE SMOOTH",
"136 539 OFFCURVE",
"243 625 OFFCURVE",
"400 625 CURVE SMOOTH",
"476 625 OFFCURVE",
"535 607 OFFCURVE",
"572 584 CURVE SMOOTH",
"582 578 OFFCURVE",
"585 578 OFFCURVE",
"591 588 CURVE SMOOTH",
"612 623 LINE SMOOTH",
"618 633 OFFCURVE",
"616 638 OFFCURVE",
"607 644 CURVE SMOOTH",
"555 678 OFFCURVE",
"476 695 OFFCURVE",
"393 695 CURVE SMOOTH",
"171 695 OFFCURVE",
"47 565 OFFCURVE",
"47 340 CURVE SMOOTH",
"47 115 OFFCURVE",
"173 -15 OFFCURVE",
"394 -15 CURVE SMOOTH"
);
},
{
closed = 1;
nodes = (
"278 742 LINE SMOOTH",
"298 742 OFFCURVE",
"303 749 OFFCURVE",
"311 761 CURVE SMOOTH",
"387 872 LINE",
"463 761 LINE SMOOTH",
"471 749 OFFCURVE",
"476 742 OFFCURVE",
"496 742 CURVE SMOOTH",
"529 742 LINE SMOOTH",
"544 742 OFFCURVE",
"553 753 OFFCURVE",
"543 767 CURVE SMOOTH",
"435 916 LINE SMOOTH",
"425 929 OFFCURVE",
"422 935 OFFCURVE",
"404 935 CURVE SMOOTH",
"370 935 LINE SMOOTH",
"352 935 OFFCURVE",
"349 929 OFFCURVE",
"339 916 CURVE SMOOTH",
"231 767 LINE SMOOTH",
"221 753 OFFCURVE",
"230 742 OFFCURVE",
"245 742 CURVE SMOOTH"
);
}
);
width = 676;
}
);
note = Ccircumflex;
unicode = 0108;
},
{
glyphname = Cdotaccent;
lastChange = "2015-07-18 10:08:22 +0000";
layers = (
{
layerId = "5D04EF83-1EDC-47E1-87A2-0FB57D789DB8";
name = Light;
paths = (
{
closed = 1;
nodes = (
"492 -15 OFFCURVE",
"566 1 OFFCURVE",
"620 37 CURVE SMOOTH",
"630 44 OFFCURVE",
"632 47 OFFCURVE",
"627 56 CURVE SMOOTH",
"605 94 LINE SMOOTH",
"600 103 OFFCURVE",
"595 103 OFFCURVE",
"585 97 CURVE SMOOTH",
"539 69 OFFCURVE",
"483 55 OFFCURVE",
"402 55 CURVE SMOOTH",
"249 55 OFFCURVE",
"136 136 OFFCURVE",
"136 340 CURVE SMOOTH",
"136 539 OFFCURVE",
"243 625 OFFCURVE",
"400 625 CURVE SMOOTH",
"476 625 OFFCURVE",
"535 607 OFFCURVE",
"572 584 CURVE SMOOTH",
"582 578 OFFCURVE",
"585 578 OFFCURVE",
"591 588 CURVE SMOOTH",
"612 623 LINE SMOOTH",
"618 633 OFFCURVE",
"616 638 OFFCURVE",
"607 644 CURVE SMOOTH",
"555 678 OFFCURVE",
"476 695 OFFCURVE",
"393 695 CURVE SMOOTH",
"171 695 OFFCURVE",
"47 565 OFFCURVE",
"47 340 CURVE SMOOTH",
"47 115 OFFCURVE",
"173 -15 OFFCURVE",
"394 -15 CURVE SMOOTH"
);
},
{
closed = 1;
nodes = (
"400 782 LINE SMOOTH",
"424 782 OFFCURVE",
"440 801 OFFCURVE",
"440 824 CURVE SMOOTH",
"440 840 LINE SMOOTH",
"440 863 OFFCURVE",
"423 882 OFFCURVE",
"400 882 CURVE SMOOTH",
"382 882 LINE SMOOTH",
"359 882 OFFCURVE",
"342 863 OFFCURVE",
"342 840 CURVE SMOOTH",
"342 824 LINE SMOOTH",
"342 801 OFFCURVE",
"359 782 OFFCURVE",
"382 782 CURVE SMOOTH"
);
}
);
width = 676;
}
);
note = Cdotaccent;
unicode = 010A;
},
{
glyphname = D;
lastChange = "2015-07-18 10:08:21 +0000";
layers = (
{
layerId = "5D04EF83-1EDC-47E1-87A2-0FB57D789DB8";
name = Light;
paths = (
{
closed = 1;
nodes = (
"287 0 LINE SMOOTH",
"499 0 OFFCURVE",
"633 92 OFFCURVE",
"633 340 CURVE SMOOTH",
"633 589 OFFCURVE",
"499 680 OFFCURVE",
"287 680 CURVE SMOOTH",
"97 680 LINE SMOOTH",
"76 680 OFFCURVE",
"67 670 OFFCURVE",
"67 650 CURVE SMOOTH",
"67 30 LINE SMOOTH",
"67 10 OFFCURVE",
"76 0 OFFCURVE",
"97 0 CURVE SMOOTH"
);
},
{
closed = 1;
nodes = (
"158 607 LINE",
"294 607 LINE SMOOTH",
"448 607 OFFCURVE",
"544 543 OFFCURVE",
"544 340 CURVE SMOOTH",
"544 137 OFFCURVE",
"448 73 OFFCURVE",
"294 73 CURVE SMOOTH",
"158 73 LINE"
);
}
);
width = 680;
}
);
note = D;
unicode = 0044;
},
{
glyphname = Eth;
lastChange = "2015-07-18 10:08:22 +0000";
layers = (
{
layerId = "5D04EF83-1EDC-47E1-87A2-0FB57D789DB8";
name = Light;
paths = (
{
closed = 1;
nodes = (
"335 0 LINE SMOOTH",
"546 0 OFFCURVE",
"681 92 OFFCURVE",
"681 340 CURVE SMOOTH",
"681 589 OFFCURVE",
"546 680 OFFCURVE",
"335 680 CURVE SMOOTH",
"145 680 LINE SMOOTH",
"123 680 OFFCURVE",
"115 670 OFFCURVE",
"115 650 CURVE SMOOTH",
"115 377 LINE",
"52 377 LINE SMOOTH",
"33 377 OFFCURVE",
"27 371 OFFCURVE",
"27 350 CURVE SMOOTH",
"27 329 LINE SMOOTH",
"27 309 OFFCURVE",
"33 304 OFFCURVE",
"52 304 CURVE SMOOTH",
"115 304 LINE",
"115 30 LINE SMOOTH",
"115 10 OFFCURVE",
"123 0 OFFCURVE",
"145 0 CURVE SMOOTH"
);
},
{
closed = 1;
nodes = (
"206 304 LINE",
"381 304 LINE SMOOTH",
"400 304 OFFCURVE",
"406 309 OFFCURVE",
"406 329 CURVE SMOOTH",
"406 350 LINE SMOOTH",
"406 371 OFFCURVE",
"400 377 OFFCURVE",
"381 377 CURVE SMOOTH",
"206 377 LINE",
"206 607 LINE",
"342 607 LINE SMOOTH",
"496 607 OFFCURVE",
"591 543 OFFCURVE",
"591 340 CURVE SMOOTH",
"591 137 OFFCURVE",
"496 73 OFFCURVE",
"342 73 CURVE SMOOTH",
"206 73 LINE"
);
}
);
width = 728;
}
);
note = Eth;
unicode = 00D0;
},
{
glyphname = Dcaron;
lastChange = "2015-07-18 10:08:22 +0000";
layers = (
{
layerId = "5D04EF83-1EDC-47E1-87A2-0FB57D789DB8";
name = Light;
paths = (
{
closed = 1;
nodes = (
"287 0 LINE SMOOTH",
"499 0 OFFCURVE",
"633 92 OFFCURVE",
"633 340 CURVE SMOOTH",
"633 589 OFFCURVE",
"499 680 OFFCURVE",
"287 680 CURVE SMOOTH",
"97 680 LINE SMOOTH",
"76 680 OFFCURVE",
"67 670 OFFCURVE",
"67 650 CURVE SMOOTH",
"67 30 LINE SMOOTH",
"67 10 OFFCURVE",
"76 0 OFFCURVE",
"97 0 CURVE SMOOTH"
);
},
{
closed = 1;
nodes = (
"158 607 LINE",
"294 607 LINE SMOOTH",
"448 607 OFFCURVE",
"544 543 OFFCURVE",
"544 340 CURVE SMOOTH",
"544 137 OFFCURVE",
"448 73 OFFCURVE",
"294 73 CURVE SMOOTH",
"158 73 LINE"
);
},
{
closed = 1;
nodes = (
"314 756 LINE SMOOTH",
"332 756 OFFCURVE",
"335 762 OFFCURVE",
"345 775 CURVE SMOOTH",
"453 924 LINE SMOOTH",
"463 937 OFFCURVE",
"460 949 OFFCURVE",
"445 949 CURVE SMOOTH",
"405 949 LINE SMOOTH",
"385 949 OFFCURVE",
"382 945 OFFCURVE",
"374 933 CURVE SMOOTH",
"297 819 LINE",
"219 933 LINE SMOOTH",
"211 945 OFFCURVE",
"208 949 OFFCURVE",
"188 949 CURVE SMOOTH",
"148 949 LINE SMOOTH",
"133 949 OFFCURVE",
"131 938 OFFCURVE",
"141 924 CURVE SMOOTH",
"249 775 LINE SMOOTH",
"259 762 OFFCURVE",
"262 756 OFFCURVE",
"280 756 CURVE SMOOTH"
);
}
);
width = 680;
}
);
note = Dcaron;
unicode = 010E;
},
{
glyphname = Dcroat;
lastChange = "2015-07-18 10:08:22 +0000";
layers = (
{
layerId = "5D04EF83-1EDC-47E1-87A2-0FB57D789DB8";
name = Light;
paths = (
{
closed = 1;
nodes = (
"325 0 LINE SMOOTH",
"536 0 OFFCURVE",
"671 92 OFFCURVE",
"671 340 CURVE SMOOTH",
"671 589 OFFCURVE",
"536 680 OFFCURVE",
"325 680 CURVE SMOOTH",
"135 680 LINE SMOOTH",
"113 680 OFFCURVE",
"105 670 OFFCURVE",
"105 650 CURVE SMOOTH",
"105 377 LINE",
"46 377 LINE SMOOTH",
"25 377 OFFCURVE",
"17 369 OFFCURVE",
"17 348 CURVE SMOOTH",
"17 331 LINE SMOOTH",
"17 311 OFFCURVE",
"25 304 OFFCURVE",
"46 304 CURVE SMOOTH",
"105 304 LINE",
"105 30 LINE SMOOTH",
"105 10 OFFCURVE",
"113 0 OFFCURVE",
"135 0 CURVE SMOOTH"
);
},
{
closed = 1;
nodes = (
"196 304 LINE",
"366 304 LINE SMOOTH",
"387 304 OFFCURVE",
"396 311 OFFCURVE",
"396 331 CURVE SMOOTH",
"396 348 LINE SMOOTH",
"396 369 OFFCURVE",
"387 377 OFFCURVE",
"366 377 CURVE SMOOTH",
"196 377 LINE",
"196 607 LINE",
"332 607 LINE SMOOTH",
"486 607 OFFCURVE",
"581 543 OFFCURVE",
"581 340 CURVE SMOOTH",
"581 137 OFFCURVE",
"486 73 OFFCURVE",
"332 73 CURVE SMOOTH",
"196 73 LINE"
);
}
);
width = 718;
}
);
note = Dcroat;
unicode = 0110;
},
{
glyphname = Ddotbelow;
lastChange = "2015-07-18 10:08:22 +0000";
layers = (
{
layerId = "5D04EF83-1EDC-47E1-87A2-0FB57D789DB8";
name = Light;
paths = (
{
closed = 1;
nodes = (
"287 0 LINE SMOOTH",
"499 0 OFFCURVE",
"633 92 OFFCURVE",
"633 340 CURVE SMOOTH",
"633 589 OFFCURVE",
"499 680 OFFCURVE",
"287 680 CURVE SMOOTH",
"97 680 LINE SMOOTH",
"76 680 OFFCURVE",
"67 670 OFFCURVE",
"67 650 CURVE SMOOTH",
"67 30 LINE SMOOTH",
"67 10 OFFCURVE",
"76 0 OFFCURVE",
"97 0 CURVE SMOOTH"
);
},
{
closed = 1;
nodes = (
"298 -172 LINE SMOOTH",
"323 -172 OFFCURVE",
"338 -153 OFFCURVE",
"338 -130 CURVE SMOOTH",
"338 -114 LINE SMOOTH",
"338 -91 OFFCURVE",
"322 -72 OFFCURVE",
"298 -72 CURVE SMOOTH",
"281 -72 LINE SMOOTH",
"258 -72 OFFCURVE",
"241 -91 OFFCURVE",
"241 -114 CURVE SMOOTH",
"241 -130 LINE SMOOTH",
"241 -153 OFFCURVE",
"258 -172 OFFCURVE",
"281 -172 CURVE SMOOTH"
);
},
{
closed = 1;
nodes = (
"158 607 LINE",
"294 607 LINE SMOOTH",
"448 607 OFFCURVE",
"544 543 OFFCURVE",
"544 340 CURVE SMOOTH",
"544 137 OFFCURVE",
"448 73 OFFCURVE",
"294 73 CURVE SMOOTH",
"158 73 LINE"
);
}
);
width = 680;
}
);
note = Ddotbelow;
unicode = 1E0C;
},
{
glyphname = Dlinebelow;
lastChange = "2015-07-18 10:08:22 +0000";
layers = (
{
layerId = "5D04EF83-1EDC-47E1-87A2-0FB57D789DB8";
name = Light;
paths = (
{
closed = 1;
nodes = (
"287 0 LINE SMOOTH",
"499 0 OFFCURVE",
"633 92 OFFCURVE",
"633 340 CURVE SMOOTH",
"633 589 OFFCURVE",
"499 680 OFFCURVE",
"287 680 CURVE SMOOTH",
"97 680 LINE SMOOTH",
"76 680 OFFCURVE",
"67 670 OFFCURVE",
"67 650 CURVE SMOOTH",
"67 30 LINE SMOOTH",
"67 10 OFFCURVE",
"76 0 OFFCURVE",
"97 0 CURVE SMOOTH"
);
},
{
closed = 1;
nodes = (
"416 -147 LINE SMOOTH",
"437 -147 OFFCURVE",
"446 -140 OFFCURVE",
"446 -120 CURVE SMOOTH",
"446 -107 LINE SMOOTH",
"446 -87 OFFCURVE",
"437 -78 OFFCURVE",
"416 -78 CURVE SMOOTH",
"147 -78 LINE SMOOTH",
"126 -78 OFFCURVE",
"118 -87 OFFCURVE",
"118 -107 CURVE SMOOTH",
"118 -120 LINE SMOOTH",
"118 -140 OFFCURVE",
"126 -147 OFFCURVE",
"147 -147 CURVE SMOOTH"
);
},
{
closed = 1;
nodes = (
"158 607 LINE",
"294 607 LINE SMOOTH",
"448 607 OFFCURVE",
"544 543 OFFCURVE",
"544 340 CURVE SMOOTH",
"544 137 OFFCURVE",
"448 73 OFFCURVE",
"294 73 CURVE SMOOTH",
"158 73 LINE"
);
}
);
width = 680;
}
);
note = Dlinebelow;
unicode = 1E0E;
},
{
glyphname = E;
lastChange = "2015-07-18 10:08:16 +0000";
layers = (
{
layerId = "5D04EF83-1EDC-47E1-87A2-0FB57D789DB8";
name = Light;
paths = (
{
closed = 1;
nodes = (
"513 0 LINE SMOOTH",
"534 0 OFFCURVE",
"542 7 OFFCURVE",
"542 27 CURVE SMOOTH",
"542 44 LINE SMOOTH",
"542 65 OFFCURVE",
"534 73 OFFCURVE",
"513 73 CURVE SMOOTH",
"158 73 LINE",
"158 304 LINE",
"425 304 LINE SMOOTH",
"446 304 OFFCURVE",
"455 313 OFFCURVE",
"455 333 CURVE SMOOTH",
"455 349 LINE SMOOTH",
"455 370 OFFCURVE",
"446 377 OFFCURVE",
"425 377 CURVE SMOOTH",
"158 377 LINE",
"158 607 LINE",
"513 607 LINE SMOOTH",
"534 607 OFFCURVE",
"542 615 OFFCURVE",
"542 636 CURVE SMOOTH",
"542 653 LINE SMOOTH",
"542 673 OFFCURVE",
"534 680 OFFCURVE",
"513 680 CURVE SMOOTH",
"97 680 LINE SMOOTH",
"76 680 OFFCURVE",
"67 670 OFFCURVE",
"67 650 CURVE SMOOTH",
"67 30 LINE SMOOTH",
"67 10 OFFCURVE",
"76 0 OFFCURVE",
"97 0 CURVE SMOOTH"
);
}
);
width = 579;
}
);
note = E;
unicode = 0045;
},
{
glyphname = Eacute;
lastChange = "2015-07-18 10:08:21 +0000";
layers = (
{
layerId = "5D04EF83-1EDC-47E1-87A2-0FB57D789DB8";
name = Light;
paths = (
{
closed = 1;
nodes = (
"513 0 LINE SMOOTH",
"534 0 OFFCURVE",
"542 7 OFFCURVE",
"542 27 CURVE SMOOTH",
"542 44 LINE SMOOTH",
"542 65 OFFCURVE",
"534 73 OFFCURVE",
"513 73 CURVE SMOOTH",
"158 73 LINE",
"158 304 LINE",
"425 304 LINE SMOOTH",
"446 304 OFFCURVE",
"455 313 OFFCURVE",
"455 333 CURVE SMOOTH",
"455 349 LINE SMOOTH",
"455 370 OFFCURVE",
"446 377 OFFCURVE",
"425 377 CURVE SMOOTH",
"158 377 LINE",
"158 607 LINE",
"513 607 LINE SMOOTH",
"534 607 OFFCURVE",
"542 615 OFFCURVE",
"542 636 CURVE SMOOTH",
"542 653 LINE SMOOTH",
"542 673 OFFCURVE",
"534 680 OFFCURVE",
"513 680 CURVE SMOOTH",
"97 680 LINE SMOOTH",
"76 680 OFFCURVE",
"67 670 OFFCURVE",
"67 650 CURVE SMOOTH",
"67 30 LINE SMOOTH",
"67 10 OFFCURVE",
"76 0 OFFCURVE",
"97 0 CURVE SMOOTH"
);
},
{
closed = 1;
nodes = (
"305 759 LINE SMOOTH",
"323 759 OFFCURVE",
"330 763 OFFCURVE",
"336 776 CURVE SMOOTH",
"402 912 LINE SMOOTH",
"410 928 OFFCURVE",
"404 936 OFFCURVE",
"387 936 CURVE SMOOTH",
"336 936 LINE SMOOTH",
"317 936 OFFCURVE",
"312 931 OFFCURVE",
"307 917 CURVE SMOOTH",
"258 781 LINE SMOOTH",
"253 768 OFFCURVE",
"256 759 OFFCURVE",
"271 759 CURVE SMOOTH"
);
}
);
width = 579;
}
);
note = Eacute;
unicode = 00C9;
},
{
glyphname = Ebreve;
lastChange = "2015-07-18 10:08:21 +0000";
layers = (
{
layerId = "5D04EF83-1EDC-47E1-87A2-0FB57D789DB8";
name = Light;
paths = (
{
closed = 1;
nodes = (
"513 0 LINE SMOOTH",
"534 0 OFFCURVE",
"542 7 OFFCURVE",
"542 27 CURVE SMOOTH",
"542 44 LINE SMOOTH",
"542 65 OFFCURVE",
"534 73 OFFCURVE",
"513 73 CURVE SMOOTH",
"158 73 LINE",
"158 304 LINE",
"425 304 LINE SMOOTH",
"446 304 OFFCURVE",
"455 313 OFFCURVE",
"455 333 CURVE SMOOTH",
"455 349 LINE SMOOTH",
"455 370 OFFCURVE",
"446 377 OFFCURVE",
"425 377 CURVE SMOOTH",
"158 377 LINE",
"158 607 LINE",
"513 607 LINE SMOOTH",
"534 607 OFFCURVE",
"542 615 OFFCURVE",
"542 636 CURVE SMOOTH",
"542 653 LINE SMOOTH",
"542 673 OFFCURVE",
"534 680 OFFCURVE",
"513 680 CURVE SMOOTH",
"97 680 LINE SMOOTH",
"76 680 OFFCURVE",
"67 670 OFFCURVE",
"67 650 CURVE SMOOTH",
"67 30 LINE SMOOTH",
"67 10 OFFCURVE",
"76 0 OFFCURVE",
"97 0 CURVE SMOOTH"
);
},
{
closed = 1;
nodes = (
"411 762 OFFCURVE",
"460 828 OFFCURVE",
"460 920 CURVE SMOOTH",
"460 931 OFFCURVE",
"454 938 OFFCURVE",
"444 938 CURVE SMOOTH",
"399 938 LINE SMOOTH",
"385 938 OFFCURVE",
"382 931 OFFCURVE",
"382 919 CURVE SMOOTH",
"382 869 OFFCURVE",
"368 831 OFFCURVE",
"307 831 CURVE SMOOTH",
"246 831 OFFCURVE",
"232 869 OFFCURVE",
"232 919 CURVE SMOOTH",
"232 931 OFFCURVE",
"229 938 OFFCURVE",
"215 938 CURVE SMOOTH",
"170 938 LINE SMOOTH",
"160 938 OFFCURVE",
"154 931 OFFCURVE",
"154 920 CURVE SMOOTH",
"154 828 OFFCURVE",
"202 762 OFFCURVE",
"307 762 CURVE SMOOTH"
);
}
);
width = 579;
}
);
note = Ebreve;
unicode = 0114;
},
{
glyphname = Ecaron;
lastChange = "2015-07-18 10:08:21 +0000";
layers = (
{
layerId = "5D04EF83-1EDC-47E1-87A2-0FB57D789DB8";
name = Light;
paths = (
{
closed = 1;
nodes = (
"513 0 LINE SMOOTH",
"534 0 OFFCURVE",
"542 7 OFFCURVE",
"542 27 CURVE SMOOTH",
"542 44 LINE SMOOTH",
"542 65 OFFCURVE",
"534 73 OFFCURVE",
"513 73 CURVE SMOOTH",
"158 73 LINE",
"158 304 LINE",
"425 304 LINE SMOOTH",
"446 304 OFFCURVE",
"455 313 OFFCURVE",
"455 333 CURVE SMOOTH",
"455 349 LINE SMOOTH",
"455 370 OFFCURVE",
"446 377 OFFCURVE",
"425 377 CURVE SMOOTH",
"158 377 LINE",
"158 607 LINE",
"513 607 LINE SMOOTH",
"534 607 OFFCURVE",
"542 615 OFFCURVE",
"542 636 CURVE SMOOTH",
"542 653 LINE SMOOTH",
"542 673 OFFCURVE",
"534 680 OFFCURVE",
"513 680 CURVE SMOOTH",
"97 680 LINE SMOOTH",
"76 680 OFFCURVE",
"67 670 OFFCURVE",
"67 650 CURVE SMOOTH",
"67 30 LINE SMOOTH",
"67 10 OFFCURVE",
"76 0 OFFCURVE",
"97 0 CURVE SMOOTH"
);
},
{
closed = 1;
nodes = (
"327 756 LINE SMOOTH",
"345 756 OFFCURVE",
"348 762 OFFCURVE",
"358 775 CURVE SMOOTH",
"466 924 LINE SMOOTH",
"476 937 OFFCURVE",
"473 949 OFFCURVE",
"458 949 CURVE SMOOTH",
"418 949 LINE SMOOTH",
"398 949 OFFCURVE",
"395 945 OFFCURVE",
"387 933 CURVE SMOOTH",
"310 819 LINE",
"232 933 LINE SMOOTH",
"224 945 OFFCURVE",
"221 949 OFFCURVE",
"201 949 CURVE SMOOTH",
"161 949 LINE SMOOTH",
"146 949 OFFCURVE",
"144 938 OFFCURVE",
"154 924 CURVE SMOOTH",
"262 775 LINE SMOOTH",
"272 762 OFFCURVE",
"275 756 OFFCURVE",
"293 756 CURVE SMOOTH"
);
}
);
width = 579;
}
);
note = Ecaron;
unicode = 011A;
},
{
glyphname = Ecircumflex;
lastChange = "2015-07-18 10:08:22 +0000";
layers = (
{
layerId = "5D04EF83-1EDC-47E1-87A2-0FB57D789DB8";
name = Light;
paths = (
{
closed = 1;
nodes = (
"513 0 LINE SMOOTH",
"534 0 OFFCURVE",
"542 7 OFFCURVE",
"542 27 CURVE SMOOTH",
"542 44 LINE SMOOTH",
"542 65 OFFCURVE",
"534 73 OFFCURVE",
"513 73 CURVE SMOOTH",
"158 73 LINE",
"158 304 LINE",
"425 304 LINE SMOOTH",
"446 304 OFFCURVE",
"455 313 OFFCURVE",
"455 333 CURVE SMOOTH",
"455 349 LINE SMOOTH",
"455 370 OFFCURVE",
"446 377 OFFCURVE",
"425 377 CURVE SMOOTH",
"158 377 LINE",
"158 607 LINE",
"513 607 LINE SMOOTH",
"534 607 OFFCURVE",
"542 615 OFFCURVE",
"542 636 CURVE SMOOTH",
"542 653 LINE SMOOTH",
"542 673 OFFCURVE",
"534 680 OFFCURVE",
"513 680 CURVE SMOOTH",
"97 680 LINE SMOOTH",
"76 680 OFFCURVE",
"67 670 OFFCURVE",
"67 650 CURVE SMOOTH",
"67 30 LINE SMOOTH",
"67 10 OFFCURVE",
"76 0 OFFCURVE",
"97 0 CURVE SMOOTH"
);
},
{
closed = 1;
nodes = (
"192 754 LINE SMOOTH",
"212 754 OFFCURVE",
"217 761 OFFCURVE",
"225 773 CURVE SMOOTH",
"301 884 LINE",
"377 773 LINE SMOOTH",
"385 761 OFFCURVE",
"390 754 OFFCURVE",
"410 754 CURVE SMOOTH",
"443 754 LINE SMOOTH",
"458 754 OFFCURVE",
"467 765 OFFCURVE",
"457 779 CURVE SMOOTH",
"349 928 LINE SMOOTH",
"339 941 OFFCURVE",
"336 947 OFFCURVE",
"318 947 CURVE SMOOTH",
"284 947 LINE SMOOTH",
"266 947 OFFCURVE",
"263 941 OFFCURVE",
"253 928 CURVE SMOOTH",
"145 779 LINE SMOOTH",
"135 765 OFFCURVE",
"144 754 OFFCURVE",
"159 754 CURVE SMOOTH"
);
}
);
width = 579;
}
);
note = Ecircumflex;
unicode = 00CA;
},
{
glyphname = Ecircumflexacute;
lastChange = "2015-07-18 10:08:21 +0000";
layers = (
{
layerId = "5D04EF83-1EDC-47E1-87A2-0FB57D789DB8";
name = Light;
paths = (
{
closed = 1;
nodes = (
"513 0 LINE SMOOTH",
"534 0 OFFCURVE",
"542 7 OFFCURVE",
"542 27 CURVE SMOOTH",
"542 44 LINE SMOOTH",
"542 65 OFFCURVE",
"534 73 OFFCURVE",
"513 73 CURVE SMOOTH",
"158 73 LINE",
"158 304 LINE",
"425 304 LINE SMOOTH",
"446 304 OFFCURVE",
"455 313 OFFCURVE",
"455 333 CURVE SMOOTH",
"455 349 LINE SMOOTH",
"455 370 OFFCURVE",
"446 377 OFFCURVE",
"425 377 CURVE SMOOTH",
"158 377 LINE",
"158 607 LINE",
"513 607 LINE SMOOTH",
"534 607 OFFCURVE",
"542 615 OFFCURVE",
"542 636 CURVE SMOOTH",
"542 653 LINE SMOOTH",
"542 673 OFFCURVE",
"534 680 OFFCURVE",
"513 680 CURVE SMOOTH",
"97 680 LINE SMOOTH",
"76 680 OFFCURVE",
"67 670 OFFCURVE",
"67 650 CURVE SMOOTH",
"67 30 LINE SMOOTH",
"67 10 OFFCURVE",
"76 0 OFFCURVE",
"97 0 CURVE SMOOTH"
);
},
{
closed = 1;
nodes = (
"208 741 LINE SMOOTH",
"225 741 OFFCURVE",
"230 743 OFFCURVE",
"239 756 CURVE",
"314 846 LINE",
"389 756 LINE SMOOTH",
"399 744 OFFCURVE",
"403 741 OFFCURVE",
"420 741 CURVE SMOOTH",
"452 741 LINE SMOOTH",
"468 741 OFFCURVE",
"475 753 OFFCURVE",
"464 766 CURVE SMOOTH",
"360 891 LINE",
"350 904 OFFCURVE",
"344 910 OFFCURVE",
"327 910 CURVE SMOOTH",
"301 910 LINE SMOOTH",
"284 910 OFFCURVE",
"278 904 OFFCURVE",
"268 891 CURVE",
"164 766 LINE SMOOTH",
"153 753 OFFCURVE",
"160 741 OFFCURVE",
"176 741 CURVE SMOOTH"
);
},
{
closed = 1;
nodes = (
"447 859 LINE SMOOTH",
"464 859 OFFCURVE",
"470 862 OFFCURVE",
"477 875 CURVE SMOOTH",
"529 977 LINE SMOOTH",
"537 992 OFFCURVE",
"532 1001 OFFCURVE",
"516 1001 CURVE SMOOTH",
"477 1001 LINE SMOOTH",
"459 1001 OFFCURVE",
"454 996 OFFCURVE",
"449 982 CURVE SMOOTH",
"412 879 LINE SMOOTH",
"408 867 OFFCURVE",
"411 859 OFFCURVE",
"425 859 CURVE SMOOTH"
);
}
);
width = 579;
}
);
note = Ecircumflexacute;
unicode = 1EBE;
},
{
glyphname = Ecircumflexdotbelow;
lastChange = "2015-07-18 10:08:21 +0000";
layers = (
{
layerId = "5D04EF83-1EDC-47E1-87A2-0FB57D789DB8";
name = Light;
paths = (
{
closed = 1;
nodes = (
"513 0 LINE SMOOTH",
"534 0 OFFCURVE",
"542 7 OFFCURVE",
"542 27 CURVE SMOOTH",
"542 44 LINE SMOOTH",
"542 65 OFFCURVE",
"534 73 OFFCURVE",
"513 73 CURVE SMOOTH",
"158 73 LINE",
"158 304 LINE",
"425 304 LINE SMOOTH",
"446 304 OFFCURVE",
"455 313 OFFCURVE",
"455 333 CURVE SMOOTH",
"455 349 LINE SMOOTH",
"455 370 OFFCURVE",
"446 377 OFFCURVE",
"425 377 CURVE SMOOTH",
"158 377 LINE",
"158 607 LINE",
"513 607 LINE SMOOTH",
"534 607 OFFCURVE",
"542 615 OFFCURVE",
"542 636 CURVE SMOOTH",
"542 653 LINE SMOOTH",
"542 673 OFFCURVE",
"534 680 OFFCURVE",
"513 680 CURVE SMOOTH",
"97 680 LINE SMOOTH",
"76 680 OFFCURVE",
"67 670 OFFCURVE",
"67 650 CURVE SMOOTH",
"67 30 LINE SMOOTH",
"67 10 OFFCURVE",
"76 0 OFFCURVE",
"97 0 CURVE SMOOTH"
);
},
{
closed = 1;
nodes = (
"308 -172 LINE SMOOTH",
"333 -172 OFFCURVE",
"348 -153 OFFCURVE",
"348 -130 CURVE SMOOTH",
"348 -114 LINE SMOOTH",
"348 -91 OFFCURVE",
"332 -72 OFFCURVE",
"308 -72 CURVE SMOOTH",
"291 -72 LINE SMOOTH",
"268 -72 OFFCURVE",
"251 -91 OFFCURVE",
"251 -114 CURVE SMOOTH",
"251 -130 LINE SMOOTH",
"251 -153 OFFCURVE",
"268 -172 OFFCURVE",
"291 -172 CURVE SMOOTH"
);
},
{
closed = 1;
nodes = (
"188 742 LINE SMOOTH",
"208 742 OFFCURVE",
"213 749 OFFCURVE",
"221 761 CURVE SMOOTH",
"297 872 LINE",
"373 761 LINE SMOOTH",
"381 749 OFFCURVE",
"386 742 OFFCURVE",
"406 742 CURVE SMOOTH",
"439 742 LINE SMOOTH",
"454 742 OFFCURVE",
"463 753 OFFCURVE",
"453 767 CURVE SMOOTH",
"345 916 LINE SMOOTH",
"335 929 OFFCURVE",
"332 935 OFFCURVE",
"314 935 CURVE SMOOTH",
"280 935 LINE SMOOTH",
"262 935 OFFCURVE",
"259 929 OFFCURVE",
"249 916 CURVE SMOOTH",
"141 767 LINE SMOOTH",
"131 753 OFFCURVE",
"140 742 OFFCURVE",
"155 742 CURVE SMOOTH"
);
}
);
width = 579;
}
);
note = Ecircumflexdotbelow;
unicode = 1EC6;
},
{
glyphname = Ecircumflexgrave;
lastChange = "2015-07-18 10:08:21 +0000";
layers = (
{
layerId = "5D04EF83-1EDC-47E1-87A2-0FB57D789DB8";
name = Light;
paths = (
{
closed = 1;
nodes = (
"513 0 LINE SMOOTH",
"534 0 OFFCURVE",
"542 7 OFFCURVE",
"542 27 CURVE SMOOTH",
"542 44 LINE SMOOTH",
"542 65 OFFCURVE",
"534 73 OFFCURVE",
"513 73 CURVE SMOOTH",
"158 73 LINE",
"158 304 LINE",
"425 304 LINE SMOOTH",
"446 304 OFFCURVE",
"455 313 OFFCURVE",
"455 333 CURVE SMOOTH",
"455 349 LINE SMOOTH",
"455 370 OFFCURVE",
"446 377 OFFCURVE",
"425 377 CURVE SMOOTH",
"158 377 LINE",
"158 607 LINE",
"513 607 LINE SMOOTH",
"534 607 OFFCURVE",
"542 615 OFFCURVE",
"542 636 CURVE SMOOTH",
"542 653 LINE SMOOTH",
"542 673 OFFCURVE",
"534 680 OFFCURVE",
"513 680 CURVE SMOOTH",
"97 680 LINE SMOOTH",
"76 680 OFFCURVE",
"67 670 OFFCURVE",
"67 650 CURVE SMOOTH",
"67 30 LINE SMOOTH",
"67 10 OFFCURVE",
"76 0 OFFCURVE",
"97 0 CURVE SMOOTH"
);
},
{
closed = 1;
nodes = (
"209 859 LINE SMOOTH",
"223 859 OFFCURVE",
"226 867 OFFCURVE",
"222 879 CURVE SMOOTH",
"185 982 LINE SMOOTH",
"180 996 OFFCURVE",
"175 1001 OFFCURVE",
"157 1001 CURVE SMOOTH",
"118 1001 LINE SMOOTH",
"102 1001 OFFCURVE",
"97 992 OFFCURVE",
"105 977 CURVE SMOOTH",
"157 875 LINE SMOOTH",
"164 862 OFFCURVE",
"170 859 OFFCURVE",
"187 859 CURVE SMOOTH"
);
},
{
closed = 1;
nodes = (
"214 741 LINE SMOOTH",
"231 741 OFFCURVE",
"235 744 OFFCURVE",
"245 756 CURVE SMOOTH",
"320 846 LINE",
"395 756 LINE",
"404 743 OFFCURVE",
"409 741 OFFCURVE",
"426 741 CURVE SMOOTH",
"458 741 LINE SMOOTH",
"474 741 OFFCURVE",
"481 753 OFFCURVE",
"470 766 CURVE SMOOTH",
"366 891 LINE",
"356 904 OFFCURVE",
"350 910 OFFCURVE",
"333 910 CURVE SMOOTH",
"307 910 LINE SMOOTH",
"290 910 OFFCURVE",
"284 904 OFFCURVE",
"274 891 CURVE",
"170 766 LINE SMOOTH",
"159 753 OFFCURVE",
"166 741 OFFCURVE",
"182 741 CURVE SMOOTH"
);
}
);
width = 579;
}
);
note = Ecircumflexgrave;
unicode = 1EC0;
},
{
glyphname = Ecircumflexhookabove;
lastChange = "2015-07-18 10:08:22 +0000";
layers = (
{
layerId = "5D04EF83-1EDC-47E1-87A2-0FB57D789DB8";
name = Light;
paths = (
{
closed = 1;
nodes = (
"513 0 LINE SMOOTH",
"534 0 OFFCURVE",
"542 7 OFFCURVE",
"542 27 CURVE SMOOTH",
"542 44 LINE SMOOTH",
"542 65 OFFCURVE",
"534 73 OFFCURVE",
"513 73 CURVE SMOOTH",
"158 73 LINE",
"158 304 LINE",
"425 304 LINE SMOOTH",
"446 304 OFFCURVE",
"455 313 OFFCURVE",
"455 333 CURVE SMOOTH",
"455 349 LINE SMOOTH",
"455 370 OFFCURVE",
"446 377 OFFCURVE",
"425 377 CURVE SMOOTH",
"158 377 LINE",
"158 607 LINE",
"513 607 LINE SMOOTH",
"534 607 OFFCURVE",
"542 615 OFFCURVE",
"542 636 CURVE SMOOTH",
"542 653 LINE SMOOTH",
"542 673 OFFCURVE",
"534 680 OFFCURVE",
"513 680 CURVE SMOOTH",
"97 680 LINE SMOOTH",
"76 680 OFFCURVE",
"67 670 OFFCURVE",
"67 650 CURVE SMOOTH",
"67 30 LINE SMOOTH",
"67 10 OFFCURVE",
"76 0 OFFCURVE",
"97 0 CURVE SMOOTH"
);
},
{
closed = 1;
nodes = (
"195 741 LINE SMOOTH",
"212 741 OFFCURVE",
"217 743 OFFCURVE",
"226 756 CURVE",
"301 846 LINE",
"376 756 LINE SMOOTH",
"386 744 OFFCURVE",
"390 741 OFFCURVE",
"407 741 CURVE SMOOTH",
"439 741 LINE SMOOTH",
"455 741 OFFCURVE",
"462 753 OFFCURVE",
"451 766 CURVE SMOOTH",
"347 891 LINE",
"337 904 OFFCURVE",
"331 910 OFFCURVE",
"314 910 CURVE SMOOTH",
"288 910 LINE SMOOTH",
"271 910 OFFCURVE",
"265 904 OFFCURVE",
"255 891 CURVE",
"151 766 LINE SMOOTH",
"140 753 OFFCURVE",
"147 741 OFFCURVE",
"163 741 CURVE SMOOTH"
);
},
{
closed = 1;
nodes = (
"444 849 LINE SMOOTH",
"458 849 OFFCURVE",
"465 857 OFFCURVE",
"465 871 CURVE SMOOTH",
"465 883 LINE",
"504 883 OFFCURVE",
"541 907 OFFCURVE",
"541 957 CURVE SMOOTH",
"541 1005 OFFCURVE",
"508 1032 OFFCURVE",
"445 1032 CURVE SMOOTH",
"415 1032 OFFCURVE",
"381 1024 OFFCURVE",
"361 1012 CURVE",
"357 1009 OFFCURVE",
"356 1007 OFFCURVE",
"358 1002 CURVE",
"374 970 LINE SMOOTH",
"376 966 OFFCURVE",
"378 966 OFFCURVE",
"382 968 CURVE",
"397 977 OFFCURVE",
"418 982 OFFCURVE",
"438 982 CURVE SMOOTH",
"464 982 OFFCURVE",
"477 974 OFFCURVE",
"477 956 CURVE SMOOTH",
"477 934 OFFCURVE",
"467 926 OFFCURVE",
"434 926 CURVE SMOOTH",
"412 926 OFFCURVE",
"401 916 OFFCURVE",
"401 896 CURVE SMOOTH",
"401 871 LINE SMOOTH",
"401 857 OFFCURVE",
"408 849 OFFCURVE",
"423 849 CURVE SMOOTH"
);
}
);
width = 579;
}
);
note = Ecircumflexhookabove;
unicode = 1EC2;
},
{
glyphname = Ecircumflextilde;
lastChange = "2015-07-18 10:08:22 +0000";
layers = (
{
layerId = "5D04EF83-1EDC-47E1-87A2-0FB57D789DB8";
name = Light;
paths = (
{
closed = 1;
nodes = (
"513 0 LINE SMOOTH",
"534 0 OFFCURVE",
"542 7 OFFCURVE",
"542 27 CURVE SMOOTH",
"542 44 LINE SMOOTH",
"542 65 OFFCURVE",
"534 73 OFFCURVE",
"513 73 CURVE SMOOTH",
"158 73 LINE",
"158 304 LINE",
"425 304 LINE SMOOTH",
"446 304 OFFCURVE",
"455 313 OFFCURVE",
"455 333 CURVE SMOOTH",
"455 349 LINE SMOOTH",
"455 370 OFFCURVE",
"446 377 OFFCURVE",
"425 377 CURVE SMOOTH",
"158 377 LINE",
"158 607 LINE",
"513 607 LINE SMOOTH",
"534 607 OFFCURVE",
"542 615 OFFCURVE",
"542 636 CURVE SMOOTH",
"542 653 LINE SMOOTH",
"542 673 OFFCURVE",
"534 680 OFFCURVE",
"513 680 CURVE SMOOTH",
"97 680 LINE SMOOTH",
"76 680 OFFCURVE",
"67 670 OFFCURVE",
"67 650 CURVE SMOOTH",
"67 30 LINE SMOOTH",
"67 10 OFFCURVE",
"76 0 OFFCURVE",
"97 0 CURVE SMOOTH"
);
},
{
closed = 1;
nodes = (
"205 741 LINE SMOOTH",
"222 741 OFFCURVE",
"227 743 OFFCURVE",
"236 756 CURVE",
"311 846 LINE",
"386 756 LINE SMOOTH",
"396 744 OFFCURVE",
"400 741 OFFCURVE",
"417 741 CURVE SMOOTH",
"449 741 LINE SMOOTH",
"465 741 OFFCURVE",
"472 753 OFFCURVE",
"461 766 CURVE SMOOTH",
"357 891 LINE",
"347 904 OFFCURVE",
"341 910 OFFCURVE",
"324 910 CURVE SMOOTH",
"298 910 LINE SMOOTH",
"281 910 OFFCURVE",
"275 904 OFFCURVE",
"265 891 CURVE",
"161 766 LINE SMOOTH",
"150 753 OFFCURVE",
"157 741 OFFCURVE",
"173 741 CURVE SMOOTH"
);
},
{
closed = 1;
nodes = (
"426 924 OFFCURVE",
"458 943 OFFCURVE",
"483 976 CURVE SMOOTH",
"496 993 OFFCURVE",
"497 1002 OFFCURVE",
"480 1015 CURVE SMOOTH",
"460 1031 OFFCURVE",
"452 1030 OFFCURVE",
"440 1014 CURVE SMOOTH",
"425 993 OFFCURVE",
"412 984 OFFCURVE",
"386 984 CURVE SMOOTH",
"338 984 OFFCURVE",
"324 1031 OFFCURVE",
"254 1031 CURVE SMOOTH",
"213 1031 OFFCURVE",
"180 1010 OFFCURVE",
"156 977 CURVE SMOOTH",
"143 960 OFFCURVE",
"152 951 OFFCURVE",
"161 943 CURVE SMOOTH",
"178 928 OFFCURVE",
"190 925 OFFCURVE",
"201 939 CURVE SMOOTH",
"216 958 OFFCURVE",
"229 971 OFFCURVE",
"256 971 CURVE SMOOTH",
"302 971 OFFCURVE",
"324 924 OFFCURVE",
"385 924 CURVE SMOOTH"
);
}
);
width = 579;
}
);
note = Ecircumflextilde;
unicode = 1EC4;
},
{
glyphname = Edieresis;
lastChange = "2015-07-18 10:08:22 +0000";
layers = (
{
layerId = "5D04EF83-1EDC-47E1-87A2-0FB57D789DB8";
name = Light;
paths = (
{
closed = 1;
nodes = (
"513 0 LINE SMOOTH",
"534 0 OFFCURVE",
"542 7 OFFCURVE",
"542 27 CURVE SMOOTH",
"542 44 LINE SMOOTH",
"542 65 OFFCURVE",
"534 73 OFFCURVE",
"513 73 CURVE SMOOTH",
"158 73 LINE",
"158 304 LINE",
"425 304 LINE SMOOTH",
"446 304 OFFCURVE",
"455 313 OFFCURVE",
"455 333 CURVE SMOOTH",
"455 349 LINE SMOOTH",
"455 370 OFFCURVE",
"446 377 OFFCURVE",
"425 377 CURVE SMOOTH",
"158 377 LINE",
"158 607 LINE",
"513 607 LINE SMOOTH",
"534 607 OFFCURVE",
"542 615 OFFCURVE",
"542 636 CURVE SMOOTH",
"542 653 LINE SMOOTH",
"542 673 OFFCURVE",
"534 680 OFFCURVE",
"513 680 CURVE SMOOTH",
"97 680 LINE SMOOTH",
"76 680 OFFCURVE",
"67 670 OFFCURVE",
"67 650 CURVE SMOOTH",
"67 30 LINE SMOOTH",
"67 10 OFFCURVE",
"76 0 OFFCURVE",
"97 0 CURVE SMOOTH"
);
},
{
closed = 1;
nodes = (
"216 752 LINE SMOOTH",
"240 752 OFFCURVE",
"256 771 OFFCURVE",
"256 794 CURVE SMOOTH",
"256 810 LINE SMOOTH",
"256 833 OFFCURVE",
"239 852 OFFCURVE",
"216 852 CURVE SMOOTH",
"199 852 LINE SMOOTH",
"175 852 OFFCURVE",
"159 833 OFFCURVE",
"159 810 CURVE SMOOTH",
"159 794 LINE SMOOTH",
"159 771 OFFCURVE",
"175 752 OFFCURVE",
"199 752 CURVE SMOOTH"
);
},
{
closed = 1;
nodes = (
"404 752 LINE SMOOTH",
"429 752 OFFCURVE",
"444 771 OFFCURVE",
"444 794 CURVE SMOOTH",
"444 810 LINE SMOOTH",
"444 833 OFFCURVE",
"428 852 OFFCURVE",
"404 852 CURVE SMOOTH",
"387 852 LINE SMOOTH",
"364 852 OFFCURVE",
"347 833 OFFCURVE",
"347 810 CURVE SMOOTH",
"347 794 LINE SMOOTH",
"347 771 OFFCURVE",
"364 752 OFFCURVE",
"387 752 CURVE SMOOTH"
);
}
);
width = 579;
}
);
note = Edieresis;
unicode = 00CB;
},
{
glyphname = Edotaccent;
lastChange = "2015-07-18 10:08:21 +0000";
layers = (
{
layerId = "5D04EF83-1EDC-47E1-87A2-0FB57D789DB8";
name = Light;
paths = (
{
closed = 1;
nodes = (
"513 0 LINE SMOOTH",
"534 0 OFFCURVE",
"542 7 OFFCURVE",
"542 27 CURVE SMOOTH",
"542 44 LINE SMOOTH",
"542 65 OFFCURVE",
"534 73 OFFCURVE",
"513 73 CURVE SMOOTH",
"158 73 LINE",
"158 304 LINE",
"425 304 LINE SMOOTH",
"446 304 OFFCURVE",
"455 313 OFFCURVE",
"455 333 CURVE SMOOTH",
"455 349 LINE SMOOTH",
"455 370 OFFCURVE",
"446 377 OFFCURVE",
"425 377 CURVE SMOOTH",
"158 377 LINE",
"158 607 LINE",
"513 607 LINE SMOOTH",
"534 607 OFFCURVE",
"542 615 OFFCURVE",
"542 636 CURVE SMOOTH",
"542 653 LINE SMOOTH",
"542 673 OFFCURVE",
"534 680 OFFCURVE",
"513 680 CURVE SMOOTH",
"97 680 LINE SMOOTH",
"76 680 OFFCURVE",
"67 670 OFFCURVE",
"67 650 CURVE SMOOTH",
"67 30 LINE SMOOTH",
"67 10 OFFCURVE",
"76 0 OFFCURVE",
"97 0 CURVE SMOOTH"
);
},
{
closed = 1;
nodes = (
"313 782 LINE SMOOTH",
"337 782 OFFCURVE",
"353 801 OFFCURVE",
"353 824 CURVE SMOOTH",
"353 840 LINE SMOOTH",
"353 863 OFFCURVE",
"336 882 OFFCURVE",
"313 882 CURVE SMOOTH",
"295 882 LINE SMOOTH",
"272 882 OFFCURVE",
"255 863 OFFCURVE",
"255 840 CURVE SMOOTH",
"255 824 LINE SMOOTH",
"255 801 OFFCURVE",
"272 782 OFFCURVE",
"295 782 CURVE SMOOTH"
);
}
);
width = 579;
}
);
note = Edotaccent;
unicode = 0116;
},
{
glyphname = Edotbelow;
lastChange = "2015-07-18 10:08:21 +0000";
layers = (
{
layerId = "5D04EF83-1EDC-47E1-87A2-0FB57D789DB8";
name = Light;
paths = (
{
closed = 1;
nodes = (
"513 0 LINE SMOOTH",
"534 0 OFFCURVE",
"542 7 OFFCURVE",
"542 27 CURVE SMOOTH",
"542 44 LINE SMOOTH",
"542 65 OFFCURVE",
"534 73 OFFCURVE",
"513 73 CURVE SMOOTH",
"158 73 LINE",
"158 304 LINE",
"425 304 LINE SMOOTH",
"446 304 OFFCURVE",
"455 313 OFFCURVE",
"455 333 CURVE SMOOTH",
"455 349 LINE SMOOTH",
"455 370 OFFCURVE",
"446 377 OFFCURVE",
"425 377 CURVE SMOOTH",
"158 377 LINE",
"158 607 LINE",
"513 607 LINE SMOOTH",
"534 607 OFFCURVE",
"542 615 OFFCURVE",
"542 636 CURVE SMOOTH",
"542 653 LINE SMOOTH",
"542 673 OFFCURVE",
"534 680 OFFCURVE",
"513 680 CURVE SMOOTH",
"97 680 LINE SMOOTH",
"76 680 OFFCURVE",
"67 670 OFFCURVE",
"67 650 CURVE SMOOTH",
"67 30 LINE SMOOTH",
"67 10 OFFCURVE",
"76 0 OFFCURVE",
"97 0 CURVE SMOOTH"
);
},
{
closed = 1;
nodes = (
"280 -172 LINE SMOOTH",
"305 -172 OFFCURVE",
"320 -153 OFFCURVE",
"320 -130 CURVE SMOOTH",
"320 -114 LINE SMOOTH",
"320 -91 OFFCURVE",
"304 -72 OFFCURVE",
"280 -72 CURVE SMOOTH",
"263 -72 LINE SMOOTH",
"240 -72 OFFCURVE",
"223 -91 OFFCURVE",
"223 -114 CURVE SMOOTH",
"223 -130 LINE SMOOTH",
"223 -153 OFFCURVE",
"240 -172 OFFCURVE",
"263 -172 CURVE SMOOTH"
);
}
);
width = 579;
}
);
note = Edotbelow;
unicode = 1EB8;
},
{
glyphname = Egrave;
lastChange = "2015-07-18 10:08:20 +0000";
layers = (
{
layerId = "5D04EF83-1EDC-47E1-87A2-0FB57D789DB8";
name = Light;
paths = (
{
closed = 1;
nodes = (
"513 0 LINE SMOOTH",
"534 0 OFFCURVE",
"542 7 OFFCURVE",
"542 27 CURVE SMOOTH",
"542 44 LINE SMOOTH",
"542 65 OFFCURVE",
"534 73 OFFCURVE",
"513 73 CURVE SMOOTH",
"158 73 LINE",
"158 304 LINE",
"425 304 LINE SMOOTH",
"446 304 OFFCURVE",
"455 313 OFFCURVE",
"455 333 CURVE SMOOTH",
"455 349 LINE SMOOTH",
"455 370 OFFCURVE",
"446 377 OFFCURVE",
"425 377 CURVE SMOOTH",
"158 377 LINE",
"158 607 LINE",
"513 607 LINE SMOOTH",
"534 607 OFFCURVE",
"542 615 OFFCURVE",
"542 636 CURVE SMOOTH",
"542 653 LINE SMOOTH",
"542 673 OFFCURVE",
"534 680 OFFCURVE",
"513 680 CURVE SMOOTH",
"97 680 LINE SMOOTH",
"76 680 OFFCURVE",
"67 670 OFFCURVE",
"67 650 CURVE SMOOTH",
"67 30 LINE SMOOTH",
"67 10 OFFCURVE",
"76 0 OFFCURVE",
"97 0 CURVE SMOOTH"
);
},
{
closed = 1;
nodes = (
"339 759 LINE SMOOTH",
"354 759 OFFCURVE",
"358 768 OFFCURVE",
"353 781 CURVE SMOOTH",
"303 917 LINE SMOOTH",
"298 932 OFFCURVE",
"294 936 OFFCURVE",
"274 936 CURVE SMOOTH",
"224 936 LINE SMOOTH",
"207 936 OFFCURVE",
"200 928 OFFCURVE",
"208 912 CURVE SMOOTH",
"275 776 LINE SMOOTH",
"281 763 OFFCURVE",
"287 759 OFFCURVE",
"305 759 CURVE SMOOTH"
);
}
);
width = 579;
}
);
note = Egrave;
unicode = 00C8;
},
{
glyphname = Ehookabove;
lastChange = "2015-07-18 10:08:22 +0000";
layers = (
{
layerId = "5D04EF83-1EDC-47E1-87A2-0FB57D789DB8";
name = Light;
paths = (
{
closed = 1;
nodes = (
"513 0 LINE SMOOTH",
"534 0 OFFCURVE",
"542 7 OFFCURVE",
"542 27 CURVE SMOOTH",
"542 44 LINE SMOOTH",
"542 65 OFFCURVE",
"534 73 OFFCURVE",
"513 73 CURVE SMOOTH",
"158 73 LINE",
"158 304 LINE",
"425 304 LINE SMOOTH",
"446 304 OFFCURVE",
"455 313 OFFCURVE",
"455 333 CURVE SMOOTH",
"455 349 LINE SMOOTH",
"455 370 OFFCURVE",
"446 377 OFFCURVE",
"425 377 CURVE SMOOTH",
"158 377 LINE",
"158 607 LINE",
"513 607 LINE SMOOTH",
"534 607 OFFCURVE",
"542 615 OFFCURVE",
"542 636 CURVE SMOOTH",
"542 653 LINE SMOOTH",
"542 673 OFFCURVE",
"534 680 OFFCURVE",
"513 680 CURVE SMOOTH",
"97 680 LINE SMOOTH",
"76 680 OFFCURVE",
"67 670 OFFCURVE",
"67 650 CURVE SMOOTH",
"67 30 LINE SMOOTH",
"67 10 OFFCURVE",
"76 0 OFFCURVE",
"97 0 CURVE SMOOTH"
);
},
{
closed = 1;
nodes = (
"299 734 LINE SMOOTH",
"315 734 OFFCURVE",
"322 742 OFFCURVE",
"322 757 CURVE SMOOTH",
"322 782 LINE",
"374 782 OFFCURVE",
"423 815 OFFCURVE",
"423 875 CURVE SMOOTH",
"423 932 OFFCURVE",
"383 969 OFFCURVE",
"297 969 CURVE SMOOTH",
"258 969 OFFCURVE",
"215 959 OFFCURVE",
"189 942 CURVE",
"184 939 OFFCURVE",
"184 937 OFFCURVE",
"186 932 CURVE",
"203 894 LINE",
"205 890 OFFCURVE",
"208 890 OFFCURVE",
"212 892 CURVE SMOOTH",
"238 905 OFFCURVE",
"261 912 OFFCURVE",
"291 912 CURVE SMOOTH",
"332 912 OFFCURVE",
"352 900 OFFCURVE",
"352 873 CURVE SMOOTH",
"352 843 OFFCURVE",
"336 830 OFFCURVE",
"286 830 CURVE SMOOTH",
"262 830 OFFCURVE",
"251 819 OFFCURVE",
"251 799 CURVE SMOOTH",
"251 757 LINE SMOOTH",
"251 742 OFFCURVE",
"258 734 OFFCURVE",
"274 734 CURVE SMOOTH"
);
}
);
width = 579;
}
);
note = Ehookabove;
unicode = 1EBA;
},
{
glyphname = Emacron;
lastChange = "2015-07-18 10:08:21 +0000";
layers = (
{
layerId = "5D04EF83-1EDC-47E1-87A2-0FB57D789DB8";
name = Light;
paths = (
{
closed = 1;
nodes = (
"513 0 LINE SMOOTH",
"534 0 OFFCURVE",
"542 7 OFFCURVE",
"542 27 CURVE SMOOTH",
"542 44 LINE SMOOTH",
"542 65 OFFCURVE",
"534 73 OFFCURVE",
"513 73 CURVE SMOOTH",
"158 73 LINE",
"158 304 LINE",
"425 304 LINE SMOOTH",
"446 304 OFFCURVE",
"455 313 OFFCURVE",
"455 333 CURVE SMOOTH",
"455 349 LINE SMOOTH",
"455 370 OFFCURVE",
"446 377 OFFCURVE",
"425 377 CURVE SMOOTH",
"158 377 LINE",
"158 607 LINE",
"513 607 LINE SMOOTH",
"534 607 OFFCURVE",
"542 615 OFFCURVE",
"542 636 CURVE SMOOTH",
"542 653 LINE SMOOTH",
"542 673 OFFCURVE",
"534 680 OFFCURVE",
"513 680 CURVE SMOOTH",
"97 680 LINE SMOOTH",
"76 680 OFFCURVE",
"67 670 OFFCURVE",
"67 650 CURVE SMOOTH",
"67 30 LINE SMOOTH",
"67 10 OFFCURVE",
"76 0 OFFCURVE",
"97 0 CURVE SMOOTH"
);
},
{
closed = 1;
nodes = (
"437 789 LINE SMOOTH",
"458 789 OFFCURVE",
"466 796 OFFCURVE",
"466 817 CURVE SMOOTH",
"466 833 LINE SMOOTH",
"466 854 OFFCURVE",
"458 862 OFFCURVE",
"437 862 CURVE SMOOTH",
"161 862 LINE SMOOTH",
"140 862 OFFCURVE",
"132 854 OFFCURVE",
"132 833 CURVE SMOOTH",
"132 817 LINE SMOOTH",
"132 796 OFFCURVE",
"140 789 OFFCURVE",
"161 789 CURVE SMOOTH"
);
}
);
width = 579;
}
);
note = Emacron;
unicode = 0112;
},
{
glyphname = Eogonek;
lastChange = "2015-07-18 10:08:21 +0000";
layers = (
{
layerId = "5D04EF83-1EDC-47E1-87A2-0FB57D789DB8";
name = Light;
paths = (
{
closed = 1;
nodes = (
"513 0 LINE SMOOTH",
"534 0 OFFCURVE",
"542 7 OFFCURVE",
"542 27 CURVE SMOOTH",
"542 44 LINE SMOOTH",
"542 65 OFFCURVE",
"534 73 OFFCURVE",
"513 73 CURVE SMOOTH",
"158 73 LINE",
"158 304 LINE",
"425 304 LINE SMOOTH",
"446 304 OFFCURVE",
"455 313 OFFCURVE",
"455 333 CURVE SMOOTH",
"455 349 LINE SMOOTH",
"455 370 OFFCURVE",
"446 377 OFFCURVE",
"425 377 CURVE SMOOTH",
"158 377 LINE",
"158 607 LINE",
"513 607 LINE SMOOTH",
"534 607 OFFCURVE",
"542 615 OFFCURVE",
"542 636 CURVE SMOOTH",
"542 653 LINE SMOOTH",
"542 673 OFFCURVE",
"534 680 OFFCURVE",
"513 680 CURVE SMOOTH",
"97 680 LINE SMOOTH",
"76 680 OFFCURVE",
"67 670 OFFCURVE",
"67 650 CURVE SMOOTH",
"67 30 LINE SMOOTH",
"67 10 OFFCURVE",
"76 0 OFFCURVE",
"97 0 CURVE SMOOTH"
);
},
{
closed = 1;
nodes = (
"484 -201 OFFCURVE",
"505 -199 OFFCURVE",
"520 -191 CURVE SMOOTH",
"532 -185 OFFCURVE",
"533 -181 OFFCURVE",
"530 -174 CURVE",
"517 -147 LINE SMOOTH",
"513 -138 OFFCURVE",
"510 -139 OFFCURVE",
"503 -142 CURVE",
"497 -145 OFFCURVE",
"490 -146 OFFCURVE",
"481 -146 CURVE SMOOTH",
"465 -146 OFFCURVE",
"457 -137 OFFCURVE",
"457 -119 CURVE SMOOTH",
"457 -90 OFFCURVE",
"469 -65 OFFCURVE",
"515 -9 CURVE SMOOTH",
"522 -1 OFFCURVE",
"517 7 OFFCURVE",
"505 7 CURVE SMOOTH",
"465 7 LINE SMOOTH",
"452 7 OFFCURVE",
"448 3 OFFCURVE",
"440 -6 CURVE SMOOTH",
"396 -56 OFFCURVE",
"379 -93 OFFCURVE",
"379 -129 CURVE SMOOTH",
"379 -168 OFFCURVE",
"405 -201 OFFCURVE",
"459 -201 CURVE SMOOTH"
);
}
);
width = 579;
}
);
note = Eogonek;
unicode = 0118;
},
{
glyphname = Etilde;
lastChange = "2015-07-18 10:08:22 +0000";
layers = (
{
layerId = "5D04EF83-1EDC-47E1-87A2-0FB57D789DB8";
name = Light;
paths = (
{
closed = 1;
nodes = (
"513 0 LINE SMOOTH",
"534 0 OFFCURVE",
"542 7 OFFCURVE",
"542 27 CURVE SMOOTH",
"542 44 LINE SMOOTH",
"542 65 OFFCURVE",
"534 73 OFFCURVE",
"513 73 CURVE SMOOTH",
"158 73 LINE",
"158 304 LINE",
"425 304 LINE SMOOTH",
"446 304 OFFCURVE",
"455 313 OFFCURVE",
"455 333 CURVE SMOOTH",
"455 349 LINE SMOOTH",
"455 370 OFFCURVE",
"446 377 OFFCURVE",
"425 377 CURVE SMOOTH",
"158 377 LINE",
"158 607 LINE",
"513 607 LINE SMOOTH",
"534 607 OFFCURVE",
"542 615 OFFCURVE",
"542 636 CURVE SMOOTH",
"542 653 LINE SMOOTH",
"542 673 OFFCURVE",
"534 680 OFFCURVE",
"513 680 CURVE SMOOTH",
"97 680 LINE SMOOTH",
"76 680 OFFCURVE",
"67 670 OFFCURVE",
"67 650 CURVE SMOOTH",
"67 30 LINE SMOOTH",
"67 10 OFFCURVE",
"76 0 OFFCURVE",
"97 0 CURVE SMOOTH"
);
},
{
closed = 1;
nodes = (
"470 757 OFFCURVE",
"500 778 OFFCURVE",
"529 821 CURVE SMOOTH",
"541 839 OFFCURVE",
"540 850 OFFCURVE",
"520 866 CURVE SMOOTH",
"501 882 OFFCURVE",
"488 882 OFFCURVE",
"477 867 CURVE SMOOTH",
"455 838 OFFCURVE",
"440 829 OFFCURVE",
"412 829 CURVE SMOOTH",
"350 829 OFFCURVE",
"307 882 OFFCURVE",
"225 882 CURVE SMOOTH",
"178 882 OFFCURVE",
"149 855 OFFCURVE",
"126 828 CURVE SMOOTH",
"113 813 OFFCURVE",
"113 800 OFFCURVE",
"127 786 CURVE SMOOTH",
"145 768 OFFCURVE",
"159 766 OFFCURVE",
"170 779 CURVE",
"190 801 OFFCURVE",
"200 811 OFFCURVE",
"229 811 CURVE SMOOTH",
"284 811 OFFCURVE",
"343 757 OFFCURVE",
"412 757 CURVE SMOOTH"
);
}
);
width = 579;
}
);
note = Etilde;
unicode = 1EBC;
},
{
glyphname = F;
lastChange = "2015-07-18 10:08:16 +0000";
layers = (
{
layerId = "5D04EF83-1EDC-47E1-87A2-0FB57D789DB8";
name = Light;
paths = (
{
closed = 1;
nodes = (
"128 0 LINE SMOOTH",
"150 0 OFFCURVE",
"158 10 OFFCURVE",
"158 30 CURVE SMOOTH",
"158 304 LINE",
"425 304 LINE SMOOTH",
"446 304 OFFCURVE",
"455 312 OFFCURVE",
"455 333 CURVE SMOOTH",
"455 350 LINE SMOOTH",
"455 370 OFFCURVE",
"446 377 OFFCURVE",
"425 377 CURVE SMOOTH",
"158 377 LINE",
"158 607 LINE",
"513 607 LINE SMOOTH",
"534 607 OFFCURVE",
"542 615 OFFCURVE",
"542 636 CURVE SMOOTH",
"542 653 LINE SMOOTH",
"542 673 OFFCURVE",
"534 680 OFFCURVE",
"513 680 CURVE SMOOTH",
"97 680 LINE SMOOTH",
"76 680 OFFCURVE",
"67 670 OFFCURVE",
"67 650 CURVE SMOOTH",
"67 30 LINE SMOOTH",
"67 10 OFFCURVE",
"76 0 OFFCURVE",
"97 0 CURVE SMOOTH"
);
}
);
width = 569;
}
);
note = F;
unicode = 0046;
},
{
glyphname = G;
lastChange = "2015-07-18 10:08:16 +0000";
layers = (
{
layerId = "5D04EF83-1EDC-47E1-87A2-0FB57D789DB8";
name = Light;
paths = (
{
closed = 1;
nodes = (
"489 -15 OFFCURVE",
"573 3 OFFCURVE",
"639 40 CURVE SMOOTH",
"650 46 OFFCURVE",
"651 53 OFFCURVE",
"651 69 CURVE SMOOTH",
"651 343 LINE SMOOTH",
"651 364 OFFCURVE",
"643 376 OFFCURVE",
"619 376 CURVE SMOOTH",
"409 376 LINE SMOOTH",
"388 376 OFFCURVE",
"380 369 OFFCURVE",
"380 349 CURVE SMOOTH",
"380 332 LINE SMOOTH",
"380 312 OFFCURVE",
"388 303 OFFCURVE",
"409 303 CURVE SMOOTH",
"564 303 LINE",
"564 86 LINE",
"525 67 OFFCURVE",
"460 56 OFFCURVE",
"398 56 CURVE SMOOTH",
"246 56 OFFCURVE",
"136 140 OFFCURVE",
"136 340 CURVE SMOOTH",
"136 540 OFFCURVE",
"245 625 OFFCURVE",
"402 625 CURVE SMOOTH",
"478 625 OFFCURVE",
"537 607 OFFCURVE",
"574 584 CURVE SMOOTH",
"584 578 OFFCURVE",
"588 578 OFFCURVE",
"593 588 CURVE",
"614 623 LINE SMOOTH",
"620 633 OFFCURVE",
"618 638 OFFCURVE",
"609 644 CURVE SMOOTH",
"557 678 OFFCURVE",
"478 695 OFFCURVE",
"394 695 CURVE SMOOTH",
"173 695 OFFCURVE",
"47 565 OFFCURVE",
"47 340 CURVE SMOOTH",
"47 115 OFFCURVE",
"173 -15 OFFCURVE",
"394 -15 CURVE SMOOTH"
);
}
);
width = 698;
}
);
note = G;
unicode = 0047;
},
{
glyphname = Gbreve;
lastChange = "2015-07-18 10:08:22 +0000";
layers = (
{
layerId = "5D04EF83-1EDC-47E1-87A2-0FB57D789DB8";
name = Light;
paths = (
{
closed = 1;
nodes = (
"489 -15 OFFCURVE",
"573 3 OFFCURVE",
"639 40 CURVE SMOOTH",
"650 46 OFFCURVE",
"651 53 OFFCURVE",
"651 69 CURVE SMOOTH",
"651 343 LINE SMOOTH",
"651 364 OFFCURVE",
"643 376 OFFCURVE",
"619 376 CURVE SMOOTH",
"409 376 LINE SMOOTH",
"388 376 OFFCURVE",
"380 369 OFFCURVE",
"380 349 CURVE SMOOTH",
"380 332 LINE SMOOTH",
"380 312 OFFCURVE",
"388 303 OFFCURVE",
"409 303 CURVE SMOOTH",
"564 303 LINE",
"564 86 LINE",
"525 67 OFFCURVE",
"460 56 OFFCURVE",
"398 56 CURVE SMOOTH",
"246 56 OFFCURVE",
"136 140 OFFCURVE",
"136 340 CURVE SMOOTH",
"136 540 OFFCURVE",
"245 625 OFFCURVE",
"402 625 CURVE SMOOTH",
"478 625 OFFCURVE",
"537 607 OFFCURVE",
"574 584 CURVE SMOOTH",
"584 578 OFFCURVE",
"588 578 OFFCURVE",
"593 588 CURVE",
"614 623 LINE SMOOTH",
"620 633 OFFCURVE",
"618 638 OFFCURVE",
"609 644 CURVE SMOOTH",
"557 678 OFFCURVE",
"478 695 OFFCURVE",
"394 695 CURVE SMOOTH",
"173 695 OFFCURVE",
"47 565 OFFCURVE",
"47 340 CURVE SMOOTH",
"47 115 OFFCURVE",
"173 -15 OFFCURVE",
"394 -15 CURVE SMOOTH"
);
},
{
closed = 1;
nodes = (
"494 738 OFFCURVE",
"543 804 OFFCURVE",
"543 896 CURVE SMOOTH",
"543 907 OFFCURVE",
"537 914 OFFCURVE",
"527 914 CURVE SMOOTH",
"482 914 LINE SMOOTH",
"468 914 OFFCURVE",
"465 907 OFFCURVE",
"465 895 CURVE SMOOTH",
"465 845 OFFCURVE",
"451 807 OFFCURVE",
"390 807 CURVE SMOOTH",
"329 807 OFFCURVE",
"315 845 OFFCURVE",
"315 895 CURVE SMOOTH",
"315 907 OFFCURVE",
"312 914 OFFCURVE",
"298 914 CURVE SMOOTH",
"253 914 LINE SMOOTH",
"243 914 OFFCURVE",
"237 907 OFFCURVE",
"237 896 CURVE SMOOTH",
"237 804 OFFCURVE",
"285 738 OFFCURVE",
"390 738 CURVE SMOOTH"
);
}
);
width = 698;
}
);
note = Gbreve;
unicode = 011E;
},
{
glyphname = Gcaron;
lastChange = "2015-07-18 10:08:21 +0000";
layers = (
{
layerId = "5D04EF83-1EDC-47E1-87A2-0FB57D789DB8";
name = Light;
paths = (
{
closed = 1;
nodes = (
"489 -15 OFFCURVE",
"573 3 OFFCURVE",
"639 40 CURVE SMOOTH",
"650 46 OFFCURVE",
"651 53 OFFCURVE",
"651 69 CURVE SMOOTH",
"651 343 LINE SMOOTH",
"651 364 OFFCURVE",
"643 376 OFFCURVE",
"619 376 CURVE SMOOTH",
"409 376 LINE SMOOTH",
"388 376 OFFCURVE",
"380 369 OFFCURVE",
"380 349 CURVE SMOOTH",
"380 332 LINE SMOOTH",
"380 312 OFFCURVE",
"388 303 OFFCURVE",
"409 303 CURVE SMOOTH",
"564 303 LINE",
"564 86 LINE",
"525 67 OFFCURVE",
"460 56 OFFCURVE",
"398 56 CURVE SMOOTH",
"246 56 OFFCURVE",
"136 140 OFFCURVE",
"136 340 CURVE SMOOTH",
"136 540 OFFCURVE",
"245 625 OFFCURVE",
"402 625 CURVE SMOOTH",
"478 625 OFFCURVE",
"537 607 OFFCURVE",
"574 584 CURVE SMOOTH",
"584 578 OFFCURVE",
"588 578 OFFCURVE",
"593 588 CURVE",
"614 623 LINE SMOOTH",
"620 633 OFFCURVE",
"618 638 OFFCURVE",
"609 644 CURVE SMOOTH",
"557 678 OFFCURVE",
"478 695 OFFCURVE",
"394 695 CURVE SMOOTH",
"173 695 OFFCURVE",
"47 565 OFFCURVE",
"47 340 CURVE SMOOTH",
"47 115 OFFCURVE",
"173 -15 OFFCURVE",
"394 -15 CURVE SMOOTH"
);
},
{
closed = 1;
nodes = (
"413 744 LINE SMOOTH",
"431 744 OFFCURVE",
"434 750 OFFCURVE",
"444 763 CURVE SMOOTH",
"552 912 LINE SMOOTH",
"562 925 OFFCURVE",
"559 937 OFFCURVE",
"544 937 CURVE SMOOTH",
"504 937 LINE SMOOTH",
"484 937 OFFCURVE",
"481 933 OFFCURVE",
"473 921 CURVE SMOOTH",
"396 807 LINE",
"318 921 LINE SMOOTH",
"310 933 OFFCURVE",
"307 937 OFFCURVE",
"287 937 CURVE SMOOTH",
"247 937 LINE SMOOTH",
"232 937 OFFCURVE",
"230 926 OFFCURVE",
"240 912 CURVE SMOOTH",
"348 763 LINE SMOOTH",
"358 750 OFFCURVE",
"361 744 OFFCURVE",
"379 744 CURVE SMOOTH"
);
}
);
width = 698;
}
);
note = Gcaron;
unicode = 01E6;
},
{
glyphname = Gcircumflex;
lastChange = "2015-07-18 10:08:22 +0000";
layers = (
{
layerId = "5D04EF83-1EDC-47E1-87A2-0FB57D789DB8";
name = Light;
paths = (
{
closed = 1;
nodes = (
"489 -15 OFFCURVE",
"573 3 OFFCURVE",
"639 40 CURVE SMOOTH",
"650 46 OFFCURVE",
"651 53 OFFCURVE",
"651 69 CURVE SMOOTH",
"651 343 LINE SMOOTH",
"651 364 OFFCURVE",
"643 376 OFFCURVE",
"619 376 CURVE SMOOTH",
"409 376 LINE SMOOTH",
"388 376 OFFCURVE",
"380 369 OFFCURVE",
"380 349 CURVE SMOOTH",
"380 332 LINE SMOOTH",
"380 312 OFFCURVE",
"388 303 OFFCURVE",
"409 303 CURVE SMOOTH",
"564 303 LINE",
"564 86 LINE",
"525 67 OFFCURVE",
"460 56 OFFCURVE",
"398 56 CURVE SMOOTH",
"246 56 OFFCURVE",
"136 140 OFFCURVE",
"136 340 CURVE SMOOTH",
"136 540 OFFCURVE",
"245 625 OFFCURVE",
"402 625 CURVE SMOOTH",
"478 625 OFFCURVE",
"537 607 OFFCURVE",
"574 584 CURVE SMOOTH",
"584 578 OFFCURVE",
"588 578 OFFCURVE",
"593 588 CURVE",
"614 623 LINE SMOOTH",
"620 633 OFFCURVE",
"618 638 OFFCURVE",
"609 644 CURVE SMOOTH",
"557 678 OFFCURVE",
"478 695 OFFCURVE",
"394 695 CURVE SMOOTH",
"173 695 OFFCURVE",
"47 565 OFFCURVE",
"47 340 CURVE SMOOTH",
"47 115 OFFCURVE",
"173 -15 OFFCURVE",
"394 -15 CURVE SMOOTH"
);
},
{
closed = 1;
nodes = (
"281 730 LINE SMOOTH",
"301 730 OFFCURVE",
"306 737 OFFCURVE",
"314 749 CURVE SMOOTH",
"390 860 LINE",
"466 749 LINE SMOOTH",
"474 737 OFFCURVE",
"479 730 OFFCURVE",
"499 730 CURVE SMOOTH",
"532 730 LINE SMOOTH",
"547 730 OFFCURVE",
"556 741 OFFCURVE",
"546 755 CURVE SMOOTH",
"438 904 LINE SMOOTH",
"428 917 OFFCURVE",
"425 923 OFFCURVE",
"407 923 CURVE SMOOTH",
"373 923 LINE SMOOTH",
"355 923 OFFCURVE",
"352 917 OFFCURVE",
"342 904 CURVE SMOOTH",
"234 755 LINE SMOOTH",
"224 741 OFFCURVE",
"233 730 OFFCURVE",
"248 730 CURVE SMOOTH"
);
}
);
width = 698;
}
);
note = Gcircumflex;
unicode = 011C;
},
{
glyphname = Gcommaaccent;
lastChange = "2015-07-18 10:08:21 +0000";
layers = (
{
layerId = "5D04EF83-1EDC-47E1-87A2-0FB57D789DB8";
name = Light;
paths = (
{
closed = 1;
nodes = (
"489 -15 OFFCURVE",
"573 3 OFFCURVE",
"639 40 CURVE SMOOTH",
"650 46 OFFCURVE",
"651 53 OFFCURVE",
"651 69 CURVE SMOOTH",
"651 343 LINE SMOOTH",
"651 364 OFFCURVE",
"643 376 OFFCURVE",
"619 376 CURVE SMOOTH",
"409 376 LINE SMOOTH",
"388 376 OFFCURVE",
"380 369 OFFCURVE",
"380 349 CURVE SMOOTH",
"380 332 LINE SMOOTH",
"380 312 OFFCURVE",
"388 303 OFFCURVE",
"409 303 CURVE SMOOTH",
"564 303 LINE",
"564 86 LINE",
"525 67 OFFCURVE",
"460 56 OFFCURVE",
"398 56 CURVE SMOOTH",
"246 56 OFFCURVE",
"136 140 OFFCURVE",
"136 340 CURVE SMOOTH",
"136 540 OFFCURVE",
"245 625 OFFCURVE",
"402 625 CURVE SMOOTH",
"478 625 OFFCURVE",
"537 607 OFFCURVE",
"574 584 CURVE SMOOTH",
"584 578 OFFCURVE",
"588 578 OFFCURVE",
"593 588 CURVE",
"614 623 LINE SMOOTH",
"620 633 OFFCURVE",
"618 638 OFFCURVE",
"609 644 CURVE SMOOTH",
"557 678 OFFCURVE",
"478 695 OFFCURVE",
"394 695 CURVE SMOOTH",
"173 695 OFFCURVE",
"47 565 OFFCURVE",
"47 340 CURVE SMOOTH",
"47 115 OFFCURVE",
"173 -15 OFFCURVE",
"394 -15 CURVE SMOOTH"
);
},
{
closed = 1;
nodes = (
"360 -224 LINE SMOOTH",
"374 -224 OFFCURVE",
"381 -220 OFFCURVE",
"385 -210 CURVE SMOOTH",
"449 -60 LINE SMOOTH",
"456 -44 OFFCURVE",
"453 -36 OFFCURVE",
"434 -36 CURVE SMOOTH",
"396 -36 LINE SMOOTH",
"378 -36 OFFCURVE",
"372 -40 OFFCURVE",
"367 -56 CURVE SMOOTH",
"320 -204 LINE SMOOTH",
"316 -216 OFFCURVE",
"318 -224 OFFCURVE",
"332 -224 CURVE SMOOTH"
);
}
);
width = 698;
}
);
note = Gcommaaccent;
unicode = 0122;
},
{
glyphname = Gdotaccent;
lastChange = "2015-07-18 10:08:21 +0000";
layers = (
{
layerId = "5D04EF83-1EDC-47E1-87A2-0FB57D789DB8";
name = Light;
paths = (
{
closed = 1;
nodes = (
"489 -15 OFFCURVE",
"573 3 OFFCURVE",
"639 40 CURVE SMOOTH",
"650 46 OFFCURVE",
"651 53 OFFCURVE",
"651 69 CURVE SMOOTH",
"651 343 LINE SMOOTH",
"651 364 OFFCURVE",
"643 376 OFFCURVE",
"619 376 CURVE SMOOTH",
"409 376 LINE SMOOTH",
"388 376 OFFCURVE",
"380 369 OFFCURVE",
"380 349 CURVE SMOOTH",
"380 332 LINE SMOOTH",
"380 312 OFFCURVE",
"388 303 OFFCURVE",
"409 303 CURVE SMOOTH",
"564 303 LINE",
"564 86 LINE",
"525 67 OFFCURVE",
"460 56 OFFCURVE",
"398 56 CURVE SMOOTH",
"246 56 OFFCURVE",
"136 140 OFFCURVE",
"136 340 CURVE SMOOTH",
"136 540 OFFCURVE",
"245 625 OFFCURVE",
"402 625 CURVE SMOOTH",
"478 625 OFFCURVE",
"537 607 OFFCURVE",
"574 584 CURVE SMOOTH",
"584 578 OFFCURVE",
"588 578 OFFCURVE",
"593 588 CURVE",
"614 623 LINE SMOOTH",
"620 633 OFFCURVE",
"618 638 OFFCURVE",
"609 644 CURVE SMOOTH",
"557 678 OFFCURVE",
"478 695 OFFCURVE",
"394 695 CURVE SMOOTH",
"173 695 OFFCURVE",
"47 565 OFFCURVE",
"47 340 CURVE SMOOTH",
"47 115 OFFCURVE",
"173 -15 OFFCURVE",
"394 -15 CURVE SMOOTH"
);
},
{
closed = 1;
nodes = (
"398 751 LINE SMOOTH",
"422 751 OFFCURVE",
"438 770 OFFCURVE",
"438 793 CURVE SMOOTH",
"438 809 LINE SMOOTH",
"438 832 OFFCURVE",
"421 851 OFFCURVE",
"398 851 CURVE SMOOTH",
"380 851 LINE SMOOTH",
"357 851 OFFCURVE",
"340 832 OFFCURVE",
"340 809 CURVE SMOOTH",
"340 793 LINE SMOOTH",
"340 770 OFFCURVE",
"357 751 OFFCURVE",
"380 751 CURVE SMOOTH"
);
}
);
width = 698;
}
);
note = Gdotaccent;
unicode = 0120;
},
{
glyphname = Gmacron;
lastChange = "2015-07-18 10:08:22 +0000";
layers = (
{
layerId = "5D04EF83-1EDC-47E1-87A2-0FB57D789DB8";
name = Light;
paths = (
{
closed = 1;
nodes = (
"489 -15 OFFCURVE",
"573 3 OFFCURVE",
"639 40 CURVE SMOOTH",
"650 46 OFFCURVE",
"651 53 OFFCURVE",
"651 69 CURVE SMOOTH",
"651 343 LINE SMOOTH",
"651 364 OFFCURVE",
"643 376 OFFCURVE",
"619 376 CURVE SMOOTH",
"409 376 LINE SMOOTH",
"388 376 OFFCURVE",
"380 369 OFFCURVE",
"380 349 CURVE SMOOTH",
"380 332 LINE SMOOTH",
"380 312 OFFCURVE",
"388 303 OFFCURVE",
"409 303 CURVE SMOOTH",
"564 303 LINE",
"564 86 LINE",
"525 67 OFFCURVE",
"460 56 OFFCURVE",
"398 56 CURVE SMOOTH",
"246 56 OFFCURVE",
"136 140 OFFCURVE",
"136 340 CURVE SMOOTH",
"136 540 OFFCURVE",
"245 625 OFFCURVE",
"402 625 CURVE SMOOTH",
"478 625 OFFCURVE",
"537 607 OFFCURVE",
"574 584 CURVE SMOOTH",
"584 578 OFFCURVE",
"588 578 OFFCURVE",
"593 588 CURVE",
"614 623 LINE SMOOTH",
"620 633 OFFCURVE",
"618 638 OFFCURVE",
"609 644 CURVE SMOOTH",
"557 678 OFFCURVE",
"478 695 OFFCURVE",
"394 695 CURVE SMOOTH",
"173 695 OFFCURVE",
"47 565 OFFCURVE",
"47 340 CURVE SMOOTH",
"47 115 OFFCURVE",
"173 -15 OFFCURVE",
"394 -15 CURVE SMOOTH"
);
},
{
closed = 1;
nodes = (
"520 777 LINE SMOOTH",
"541 777 OFFCURVE",
"549 784 OFFCURVE",
"549 805 CURVE SMOOTH",
"549 821 LINE SMOOTH",
"549 842 OFFCURVE",
"541 850 OFFCURVE",
"520 850 CURVE SMOOTH",
"244 850 LINE SMOOTH",
"223 850 OFFCURVE",
"215 842 OFFCURVE",
"215 821 CURVE SMOOTH",
"215 805 LINE SMOOTH",
"215 784 OFFCURVE",
"223 777 OFFCURVE",
"244 777 CURVE SMOOTH"
);
}
);
width = 698;
}
);
note = Gmacron;
unicode = 1E20;
},
{
glyphname = H;
lastChange = "2015-07-18 10:08:16 +0000";
layers = (
{
layerId = "5D04EF83-1EDC-47E1-87A2-0FB57D789DB8";
name = Light;
paths = (
{
closed = 1;
nodes = (
"128 0 LINE SMOOTH",
"150 0 OFFCURVE",
"158 10 OFFCURVE",
"158 30 CURVE SMOOTH",
"158 307 LINE",
"536 307 LINE",
"536 30 LINE SMOOTH",
"536 10 OFFCURVE",
"545 0 OFFCURVE",
"567 0 CURVE SMOOTH",
"597 0 LINE SMOOTH",
"619 0 OFFCURVE",
"627 10 OFFCURVE",
"627 30 CURVE SMOOTH",
"627 650 LINE SMOOTH",
"627 670 OFFCURVE",
"619 680 OFFCURVE",
"597 680 CURVE SMOOTH",
"567 680 LINE SMOOTH",
"545 680 OFFCURVE",
"536 670 OFFCURVE",
"536 650 CURVE SMOOTH",
"536 380 LINE",
"158 380 LINE",
"158 650 LINE SMOOTH",
"158 670 OFFCURVE",
"150 680 OFFCURVE",
"128 680 CURVE SMOOTH",
"97 680 LINE SMOOTH",
"76 680 OFFCURVE",
"67 670 OFFCURVE",
"67 650 CURVE SMOOTH",
"67 30 LINE SMOOTH",
"67 10 OFFCURVE",
"76 0 OFFCURVE",
"97 0 CURVE SMOOTH"
);
}
);
width = 694;
}
);
note = H;
unicode = 0048;
},
{
glyphname = Hbar;
lastChange = "2015-07-18 10:08:22 +0000";
layers = (
{
layerId = "5D04EF83-1EDC-47E1-87A2-0FB57D789DB8";
name = Light;
paths = (
{
closed = 1;
nodes = (
"140 0 LINE SMOOTH",
"162 0 OFFCURVE",
"170 10 OFFCURVE",
"170 30 CURVE SMOOTH",
"170 307 LINE",
"548 307 LINE",
"548 30 LINE SMOOTH",
"548 10 OFFCURVE",
"557 0 OFFCURVE",
"579 0 CURVE SMOOTH",
"609 0 LINE SMOOTH",
"631 0 OFFCURVE",
"639 10 OFFCURVE",
"639 30 CURVE SMOOTH",
"639 650 LINE SMOOTH",
"639 670 OFFCURVE",
"631 680 OFFCURVE",
"609 680 CURVE SMOOTH",
"579 680 LINE SMOOTH",
"557 680 OFFCURVE",
"548 670 OFFCURVE",
"548 650 CURVE SMOOTH",
"548 380 LINE",
"170 380 LINE",
"170 650 LINE SMOOTH",
"170 670 OFFCURVE",
"162 680 OFFCURVE",
"140 680 CURVE SMOOTH",
"109 680 LINE SMOOTH",
"88 680 OFFCURVE",
"79 670 OFFCURVE",
"79 650 CURVE SMOOTH",
"79 30 LINE SMOOTH",
"79 10 OFFCURVE",
"88 0 OFFCURVE",
"109 0 CURVE SMOOTH"
);
},
{
closed = 1;
nodes = (
"651 503 LINE SMOOTH",
"670 503 OFFCURVE",
"677 507 OFFCURVE",
"677 526 CURVE SMOOTH",
"677 544 LINE SMOOTH",
"677 563 OFFCURVE",
"670 569 OFFCURVE",
"651 569 CURVE SMOOTH",
"53 569 LINE SMOOTH",
"35 569 OFFCURVE",
"27 563 OFFCURVE",
"27 544 CURVE SMOOTH",
"27 526 LINE SMOOTH",
"27 507 OFFCURVE",
"35 503 OFFCURVE",
"53 503 CURVE SMOOTH"
);
}
);
width = 704;
}
);
note = Hbar;
unicode = 0126;
},
{
glyphname = Hbrevebelow;
lastChange = "2015-07-18 10:08:20 +0000";
layers = (
{
layerId = "5D04EF83-1EDC-47E1-87A2-0FB57D789DB8";
name = Light;
paths = (
{
closed = 1;
nodes = (
"128 0 LINE SMOOTH",
"150 0 OFFCURVE",
"158 10 OFFCURVE",
"158 30 CURVE SMOOTH",
"158 307 LINE",
"536 307 LINE",
"536 30 LINE SMOOTH",
"536 10 OFFCURVE",
"545 0 OFFCURVE",
"567 0 CURVE SMOOTH",
"597 0 LINE SMOOTH",
"619 0 OFFCURVE",
"627 10 OFFCURVE",
"627 30 CURVE SMOOTH",
"627 650 LINE SMOOTH",
"627 670 OFFCURVE",
"619 680 OFFCURVE",
"597 680 CURVE SMOOTH",
"567 680 LINE SMOOTH",
"545 680 OFFCURVE",
"536 670 OFFCURVE",
"536 650 CURVE SMOOTH",
"536 380 LINE",
"158 380 LINE",
"158 650 LINE SMOOTH",
"158 670 OFFCURVE",
"150 680 OFFCURVE",
"128 680 CURVE SMOOTH",
"97 680 LINE SMOOTH",
"76 680 OFFCURVE",
"67 670 OFFCURVE",
"67 650 CURVE SMOOTH",
"67 30 LINE SMOOTH",
"67 10 OFFCURVE",
"76 0 OFFCURVE",
"97 0 CURVE SMOOTH"
);
},
{
closed = 1;
nodes = (
"453 -213 OFFCURVE",
"502 -147 OFFCURVE",
"502 -55 CURVE SMOOTH",
"502 -44 OFFCURVE",
"496 -37 OFFCURVE",
"486 -37 CURVE SMOOTH",
"441 -37 LINE SMOOTH",
"427 -37 OFFCURVE",
"424 -44 OFFCURVE",
"424 -56 CURVE SMOOTH",
"424 -106 OFFCURVE",
"410 -144 OFFCURVE",
"349 -144 CURVE SMOOTH",
"288 -144 OFFCURVE",
"274 -106 OFFCURVE",
"274 -56 CURVE SMOOTH",
"274 -44 OFFCURVE",
"271 -37 OFFCURVE",
"257 -37 CURVE SMOOTH",
"212 -37 LINE SMOOTH",
"202 -37 OFFCURVE",
"196 -44 OFFCURVE",
"196 -55 CURVE SMOOTH",
"196 -147 OFFCURVE",
"244 -213 OFFCURVE",
"349 -213 CURVE SMOOTH"
);
}
);
width = 694;
}
);
note = Hbrevebelow;
unicode = 1E2A;
},
{
glyphname = Hcircumflex;
lastChange = "2015-07-18 10:08:22 +0000";
layers = (
{
layerId = "5D04EF83-1EDC-47E1-87A2-0FB57D789DB8";
name = Light;
paths = (
{
closed = 1;
nodes = (
"128 0 LINE SMOOTH",
"150 0 OFFCURVE",
"158 10 OFFCURVE",
"158 30 CURVE SMOOTH",
"158 307 LINE",
"536 307 LINE",
"536 30 LINE SMOOTH",
"536 10 OFFCURVE",
"545 0 OFFCURVE",
"567 0 CURVE SMOOTH",
"597 0 LINE SMOOTH",
"619 0 OFFCURVE",
"627 10 OFFCURVE",
"627 30 CURVE SMOOTH",
"627 650 LINE SMOOTH",
"627 670 OFFCURVE",
"619 680 OFFCURVE",
"597 680 CURVE SMOOTH",
"567 680 LINE SMOOTH",
"545 680 OFFCURVE",
"536 670 OFFCURVE",
"536 650 CURVE SMOOTH",
"536 380 LINE",
"158 380 LINE",
"158 650 LINE SMOOTH",
"158 670 OFFCURVE",
"150 680 OFFCURVE",
"128 680 CURVE SMOOTH",
"97 680 LINE SMOOTH",
"76 680 OFFCURVE",
"67 670 OFFCURVE",
"67 650 CURVE SMOOTH",
"67 30 LINE SMOOTH",
"67 10 OFFCURVE",
"76 0 OFFCURVE",
"97 0 CURVE SMOOTH"
);
},
{
closed = 1;
nodes = (
"238 744 LINE SMOOTH",
"258 744 OFFCURVE",
"263 751 OFFCURVE",
"271 763 CURVE SMOOTH",
"347 874 LINE",
"423 763 LINE SMOOTH",
"431 751 OFFCURVE",
"436 744 OFFCURVE",
"456 744 CURVE SMOOTH",
"489 744 LINE SMOOTH",
"504 744 OFFCURVE",
"513 755 OFFCURVE",
"503 769 CURVE SMOOTH",
"395 918 LINE SMOOTH",
"385 931 OFFCURVE",
"382 937 OFFCURVE",
"364 937 CURVE SMOOTH",
"330 937 LINE SMOOTH",
"312 937 OFFCURVE",
"309 931 OFFCURVE",
"299 918 CURVE SMOOTH",
"191 769 LINE SMOOTH",
"181 755 OFFCURVE",
"190 744 OFFCURVE",
"205 744 CURVE SMOOTH"
);
}
);
width = 694;
}
);
note = Hcircumflex;
unicode = 0124;
},
{
glyphname = Hdotbelow;
lastChange = "2015-07-18 10:08:20 +0000";
layers = (
{
layerId = "5D04EF83-1EDC-47E1-87A2-0FB57D789DB8";
name = Light;
paths = (
{
closed = 1;
nodes = (
"128 0 LINE SMOOTH",
"150 0 OFFCURVE",
"158 10 OFFCURVE",
"158 30 CURVE SMOOTH",
"158 307 LINE",
"536 307 LINE",
"536 30 LINE SMOOTH",
"536 10 OFFCURVE",
"545 0 OFFCURVE",
"567 0 CURVE SMOOTH",
"597 0 LINE SMOOTH",
"619 0 OFFCURVE",
"627 10 OFFCURVE",
"627 30 CURVE SMOOTH",
"627 650 LINE SMOOTH",
"627 670 OFFCURVE",
"619 680 OFFCURVE",
"597 680 CURVE SMOOTH",
"567 680 LINE SMOOTH",
"545 680 OFFCURVE",
"536 670 OFFCURVE",
"536 650 CURVE SMOOTH",
"536 380 LINE",
"158 380 LINE",
"158 650 LINE SMOOTH",
"158 670 OFFCURVE",
"150 680 OFFCURVE",
"128 680 CURVE SMOOTH",
"97 680 LINE SMOOTH",
"76 680 OFFCURVE",
"67 670 OFFCURVE",
"67 650 CURVE SMOOTH",
"67 30 LINE SMOOTH",
"67 10 OFFCURVE",
"76 0 OFFCURVE",
"97 0 CURVE SMOOTH"
);
},
{
closed = 1;
nodes = (
"356 -172 LINE SMOOTH",
"381 -172 OFFCURVE",
"396 -153 OFFCURVE",
"396 -130 CURVE SMOOTH",
"396 -114 LINE SMOOTH",
"396 -91 OFFCURVE",
"380 -72 OFFCURVE",
"356 -72 CURVE SMOOTH",
"339 -72 LINE SMOOTH",
"316 -72 OFFCURVE",
"299 -91 OFFCURVE",
"299 -114 CURVE SMOOTH",
"299 -130 LINE SMOOTH",
"299 -153 OFFCURVE",
"316 -172 OFFCURVE",
"339 -172 CURVE SMOOTH"
);
}
);
width = 694;
}
);
note = Hdotbelow;
unicode = 1E24;
},
{
glyphname = I;
lastChange = "2015-07-18 10:08:16 +0000";
layers = (
{
layerId = "5D04EF83-1EDC-47E1-87A2-0FB57D789DB8";
name = Light;
paths = (
{
closed = 1;
nodes = (
"128 0 LINE SMOOTH",
"150 0 OFFCURVE",
"158 10 OFFCURVE",
"158 30 CURVE SMOOTH",
"158 650 LINE SMOOTH",
"158 670 OFFCURVE",
"150 680 OFFCURVE",
"128 680 CURVE SMOOTH",
"97 680 LINE SMOOTH",
"76 680 OFFCURVE",
"67 670 OFFCURVE",
"67 650 CURVE SMOOTH",
"67 30 LINE SMOOTH",
"67 10 OFFCURVE",
"76 0 OFFCURVE",
"97 0 CURVE SMOOTH"
);
}
);
width = 225;
}
);
note = I;
unicode = 0049;
},
{
glyphname = IJ;
lastChange = "2015-07-18 10:08:21 +0000";
layers = (
{
layerId = "5D04EF83-1EDC-47E1-87A2-0FB57D789DB8";
name = Light;
paths = (
{
closed = 1;
nodes = (
"514 -15 OFFCURVE",
"575 68 OFFCURVE",
"575 182 CURVE SMOOTH",
"575 650 LINE SMOOTH",
"575 670 OFFCURVE",
"567 680 OFFCURVE",
"545 680 CURVE SMOOTH",
"515 680 LINE SMOOTH",
"493 680 OFFCURVE",
"484 670 OFFCURVE",
"484 650 CURVE SMOOTH",
"484 181 LINE SMOOTH",
"484 97 OFFCURVE",
"451 55 OFFCURVE",
"372 55 CURVE SMOOTH",
"318 55 OFFCURVE",
"267 70 OFFCURVE",
"235 90 CURVE SMOOTH",
"225 96 OFFCURVE",
"221 96 OFFCURVE",
"215 86 CURVE SMOOTH",
"193 50 LINE SMOOTH",
"187 40 OFFCURVE",
"190 33 OFFCURVE",
"198 29 CURVE",
"247 1 OFFCURVE",
"304 -15 OFFCURVE",
"372 -15 CURVE SMOOTH"
);
},
{
closed = 1;
nodes = (
"128 0 LINE SMOOTH",
"150 0 OFFCURVE",
"158 10 OFFCURVE",
"158 30 CURVE SMOOTH",
"158 650 LINE SMOOTH",
"158 670 OFFCURVE",
"150 680 OFFCURVE",
"128 680 CURVE SMOOTH",
"97 680 LINE SMOOTH",
"76 680 OFFCURVE",
"67 670 OFFCURVE",
"67 650 CURVE SMOOTH",
"67 30 LINE SMOOTH",
"67 10 OFFCURVE",
"76 0 OFFCURVE",
"97 0 CURVE SMOOTH"
);
}
);
width = 642;
}
);
note = IJ;
unicode = 0132;
},
{
glyphname = Iacute;
lastChange = "2015-07-18 10:08:21 +0000";
layers = (
{
layerId = "5D04EF83-1EDC-47E1-87A2-0FB57D789DB8";
name = Light;
paths = (
{
closed = 1;
nodes = (
"132 0 LINE SMOOTH",
"154 0 OFFCURVE",
"162 10 OFFCURVE",
"162 30 CURVE SMOOTH",
"162 650 LINE SMOOTH",
"162 670 OFFCURVE",
"154 680 OFFCURVE",
"132 680 CURVE SMOOTH",
"101 680 LINE SMOOTH",
"80 680 OFFCURVE",
"71 670 OFFCURVE",
"71 650 CURVE SMOOTH",
"71 30 LINE SMOOTH",
"71 10 OFFCURVE",
"80 0 OFFCURVE",
"101 0 CURVE SMOOTH"
);
},
{
closed = 1;
nodes = (
"128 759 LINE SMOOTH",
"146 759 OFFCURVE",
"153 763 OFFCURVE",
"159 776 CURVE SMOOTH",
"225 912 LINE SMOOTH",
"233 928 OFFCURVE",
"227 936 OFFCURVE",
"210 936 CURVE SMOOTH",
"159 936 LINE SMOOTH",
"140 936 OFFCURVE",
"135 931 OFFCURVE",
"130 917 CURVE SMOOTH",
"81 781 LINE SMOOTH",
"76 768 OFFCURVE",
"79 759 OFFCURVE",
"94 759 CURVE SMOOTH"
);
}
);
width = 233;
}
);
note = Iacute;
unicode = 00CD;
},
{
glyphname = Ibreve;
lastChange = "2015-07-18 10:08:20 +0000";
layers = (
{
layerId = "5D04EF83-1EDC-47E1-87A2-0FB57D789DB8";
name = Light;
paths = (
{
closed = 1;
nodes = (
"134 0 LINE SMOOTH",
"156 0 OFFCURVE",
"164 10 OFFCURVE",
"164 30 CURVE SMOOTH",
"164 650 LINE SMOOTH",
"164 670 OFFCURVE",
"156 680 OFFCURVE",
"134 680 CURVE SMOOTH",
"103 680 LINE SMOOTH",
"82 680 OFFCURVE",
"73 670 OFFCURVE",
"73 650 CURVE SMOOTH",
"73 30 LINE SMOOTH",
"73 10 OFFCURVE",
"82 0 OFFCURVE",
"103 0 CURVE SMOOTH"
);
},
{
closed = 1;
nodes = (
"223 759 OFFCURVE",
"272 825 OFFCURVE",
"272 917 CURVE SMOOTH",
"272 928 OFFCURVE",
"266 935 OFFCURVE",
"256 935 CURVE SMOOTH",
"211 935 LINE SMOOTH",
"197 935 OFFCURVE",
"194 928 OFFCURVE",
"194 916 CURVE SMOOTH",
"194 866 OFFCURVE",
"180 828 OFFCURVE",
"119 828 CURVE SMOOTH",
"58 828 OFFCURVE",
"44 866 OFFCURVE",
"44 916 CURVE SMOOTH",
"44 928 OFFCURVE",
"41 935 OFFCURVE",
"27 935 CURVE SMOOTH",
"-18 935 LINE SMOOTH",
"-28 935 OFFCURVE",
"-34 928 OFFCURVE",
"-34 917 CURVE SMOOTH",
"-34 825 OFFCURVE",
"14 759 OFFCURVE",
"119 759 CURVE SMOOTH"
);
}
);
width = 238;
}
);
note = Ibreve;
unicode = 012C;
},
{
glyphname = Icaron;
lastChange = "2015-07-18 10:08:22 +0000";
layers = (
{
layerId = "5D04EF83-1EDC-47E1-87A2-0FB57D789DB8";
name = Light;
paths = (
{
closed = 1;
nodes = (
"142 744 LINE SMOOTH",
"160 744 OFFCURVE",
"163 750 OFFCURVE",
"173 763 CURVE SMOOTH",
"281 912 LINE SMOOTH",
"291 925 OFFCURVE",
"288 937 OFFCURVE",
"273 937 CURVE SMOOTH",
"233 937 LINE SMOOTH",
"213 937 OFFCURVE",
"210 933 OFFCURVE",
"202 921 CURVE SMOOTH",
"125 807 LINE",
"47 921 LINE SMOOTH",
"39 933 OFFCURVE",
"36 937 OFFCURVE",
"16 937 CURVE SMOOTH",
"-24 937 LINE SMOOTH",
"-39 937 OFFCURVE",
"-41 926 OFFCURVE",
"-31 912 CURVE SMOOTH",
"77 763 LINE SMOOTH",
"87 750 OFFCURVE",
"90 744 OFFCURVE",
"108 744 CURVE SMOOTH"
);
},
{
closed = 1;
nodes = (
"140 0 LINE SMOOTH",
"162 0 OFFCURVE",
"170 10 OFFCURVE",
"170 30 CURVE SMOOTH",
"170 650 LINE SMOOTH",
"170 670 OFFCURVE",
"162 680 OFFCURVE",
"140 680 CURVE SMOOTH",
"109 680 LINE SMOOTH",
"88 680 OFFCURVE",
"79 670 OFFCURVE",
"79 650 CURVE SMOOTH",
"79 30 LINE SMOOTH",
"79 10 OFFCURVE",
"88 0 OFFCURVE",
"109 0 CURVE SMOOTH"
);
}
);
width = 249;
}
);
note = Icaron;
unicode = 01CF;
},
{
glyphname = Icircumflex;
lastChange = "2015-07-18 10:08:20 +0000";
layers = (
{
layerId = "5D04EF83-1EDC-47E1-87A2-0FB57D789DB8";
name = Light;
paths = (
{
closed = 1;
nodes = (
"127 0 LINE SMOOTH",
"149 0 OFFCURVE",
"157 10 OFFCURVE",
"157 30 CURVE SMOOTH",
"157 650 LINE SMOOTH",
"157 670 OFFCURVE",
"149 680 OFFCURVE",
"127 680 CURVE SMOOTH",
"96 680 LINE SMOOTH",
"75 680 OFFCURVE",
"66 670 OFFCURVE",
"66 650 CURVE SMOOTH",
"66 30 LINE SMOOTH",
"66 10 OFFCURVE",
"75 0 OFFCURVE",
"96 0 CURVE SMOOTH"
);
},
{
closed = 1;
nodes = (
"2 761 LINE SMOOTH",
"22 761 OFFCURVE",
"27 768 OFFCURVE",
"35 780 CURVE SMOOTH",
"111 891 LINE",
"187 780 LINE SMOOTH",
"195 768 OFFCURVE",
"200 761 OFFCURVE",
"220 761 CURVE SMOOTH",
"253 761 LINE SMOOTH",
"268 761 OFFCURVE",
"277 772 OFFCURVE",
"267 786 CURVE SMOOTH",
"159 935 LINE SMOOTH",
"149 948 OFFCURVE",
"146 954 OFFCURVE",
"128 954 CURVE SMOOTH",
"94 954 LINE SMOOTH",
"76 954 OFFCURVE",
"73 948 OFFCURVE",
"63 935 CURVE SMOOTH",
"-45 786 LINE SMOOTH",
"-55 772 OFFCURVE",
"-46 761 OFFCURVE",
"-31 761 CURVE SMOOTH"
);
}
);
width = 222;
}
);
note = Icircumflex;
unicode = 00CE;
},
{
glyphname = Idieresis;
lastChange = "2015-07-18 10:08:20 +0000";
layers = (
{
layerId = "5D04EF83-1EDC-47E1-87A2-0FB57D789DB8";
name = Light;
paths = (
{
closed = 1;
nodes = (
"122 0 LINE SMOOTH",
"144 0 OFFCURVE",
"152 10 OFFCURVE",
"152 30 CURVE SMOOTH",
"152 650 LINE SMOOTH",
"152 670 OFFCURVE",
"144 680 OFFCURVE",
"122 680 CURVE SMOOTH",
"91 680 LINE SMOOTH",
"70 680 OFFCURVE",
"61 670 OFFCURVE",
"61 650 CURVE SMOOTH",
"61 30 LINE SMOOTH",
"61 10 OFFCURVE",
"70 0 OFFCURVE",
"91 0 CURVE SMOOTH"
);
},
{
closed = 1;
nodes = (
"22 725 LINE SMOOTH",
"46 725 OFFCURVE",
"62 744 OFFCURVE",
"62 767 CURVE SMOOTH",
"62 783 LINE SMOOTH",
"62 806 OFFCURVE",
"45 825 OFFCURVE",
"22 825 CURVE SMOOTH",
"5 825 LINE SMOOTH",
"-19 825 OFFCURVE",
"-35 806 OFFCURVE",
"-35 783 CURVE SMOOTH",
"-35 767 LINE SMOOTH",
"-35 744 OFFCURVE",
"-19 725 OFFCURVE",
"5 725 CURVE SMOOTH"
);
},
{
closed = 1;
nodes = (
"210 725 LINE SMOOTH",
"235 725 OFFCURVE",
"250 744 OFFCURVE",
"250 767 CURVE SMOOTH",
"250 783 LINE SMOOTH",
"250 806 OFFCURVE",
"234 825 OFFCURVE",
"210 825 CURVE SMOOTH",
"193 825 LINE SMOOTH",
"170 825 OFFCURVE",
"153 806 OFFCURVE",
"153 783 CURVE SMOOTH",
"153 767 LINE SMOOTH",
"153 744 OFFCURVE",
"170 725 OFFCURVE",
"193 725 CURVE SMOOTH"
);
}
);
width = 214;
}
);
note = Idieresis;
unicode = 00CF;
},
{
glyphname = Idotaccent;
lastChange = "2015-07-18 10:08:21 +0000";
layers = (
{
layerId = "5D04EF83-1EDC-47E1-87A2-0FB57D789DB8";
name = Light;
paths = (
{
closed = 1;
nodes = (
"125 0 LINE SMOOTH",
"147 0 OFFCURVE",
"155 10 OFFCURVE",
"155 30 CURVE SMOOTH",
"155 650 LINE SMOOTH",
"155 670 OFFCURVE",
"147 680 OFFCURVE",
"125 680 CURVE SMOOTH",
"94 680 LINE SMOOTH",
"73 680 OFFCURVE",
"64 670 OFFCURVE",
"64 650 CURVE SMOOTH",
"64 30 LINE SMOOTH",
"64 10 OFFCURVE",
"73 0 OFFCURVE",
"94 0 CURVE SMOOTH"
);
},
{
closed = 1;
nodes = (
"120 758 LINE SMOOTH",
"144 758 OFFCURVE",
"160 777 OFFCURVE",
"160 800 CURVE SMOOTH",
"160 816 LINE SMOOTH",
"160 839 OFFCURVE",
"143 858 OFFCURVE",
"120 858 CURVE SMOOTH",
"102 858 LINE SMOOTH",
"79 858 OFFCURVE",
"62 839 OFFCURVE",
"62 816 CURVE SMOOTH",
"62 800 LINE SMOOTH",
"62 777 OFFCURVE",
"79 758 OFFCURVE",
"102 758 CURVE SMOOTH"
);
}
);
width = 220;
}
);
note = Idotaccent;
unicode = 0130;
},
{
glyphname = Idotbelow;
lastChange = "2015-07-18 10:08:22 +0000";
layers = (
{
layerId = "5D04EF83-1EDC-47E1-87A2-0FB57D789DB8";
name = Light;
paths = (
{
closed = 1;
nodes = (
"128 0 LINE SMOOTH",
"150 0 OFFCURVE",
"158 10 OFFCURVE",
"158 30 CURVE SMOOTH",
"158 650 LINE SMOOTH",
"158 670 OFFCURVE",
"150 680 OFFCURVE",
"128 680 CURVE SMOOTH",
"97 680 LINE SMOOTH",
"76 680 OFFCURVE",
"67 670 OFFCURVE",
"67 650 CURVE SMOOTH",
"67 30 LINE SMOOTH",
"67 10 OFFCURVE",
"76 0 OFFCURVE",
"97 0 CURVE SMOOTH"
);
},
{
closed = 1;
nodes = (
"122 -172 LINE SMOOTH",
"147 -172 OFFCURVE",
"162 -153 OFFCURVE",
"162 -130 CURVE SMOOTH",
"162 -114 LINE SMOOTH",
"162 -91 OFFCURVE",
"146 -72 OFFCURVE",
"122 -72 CURVE SMOOTH",
"105 -72 LINE SMOOTH",
"82 -72 OFFCURVE",
"65 -91 OFFCURVE",
"65 -114 CURVE SMOOTH",
"65 -130 LINE SMOOTH",
"65 -153 OFFCURVE",
"82 -172 OFFCURVE",
"105 -172 CURVE SMOOTH"
);
}
);
width = 225;
}
);
note = Idotbelow;
unicode = 1ECA;
},
{
glyphname = Igrave;
lastChange = "2015-07-18 10:08:21 +0000";
layers = (
{
layerId = "5D04EF83-1EDC-47E1-87A2-0FB57D789DB8";
name = Light;
paths = (
{
closed = 1;
nodes = (
"127 0 LINE SMOOTH",
"149 0 OFFCURVE",
"157 10 OFFCURVE",
"157 30 CURVE SMOOTH",
"157 650 LINE SMOOTH",
"157 670 OFFCURVE",
"149 680 OFFCURVE",
"127 680 CURVE SMOOTH",
"96 680 LINE SMOOTH",
"75 680 OFFCURVE",
"66 670 OFFCURVE",
"66 650 CURVE SMOOTH",
"66 30 LINE SMOOTH",
"66 10 OFFCURVE",
"75 0 OFFCURVE",
"96 0 CURVE SMOOTH"
);
},
{
closed = 1;
nodes = (
"132 759 LINE SMOOTH",
"147 759 OFFCURVE",
"151 768 OFFCURVE",
"146 781 CURVE SMOOTH",
"96 917 LINE SMOOTH",
"91 932 OFFCURVE",
"87 936 OFFCURVE",
"67 936 CURVE SMOOTH",
"17 936 LINE SMOOTH",
"0 936 OFFCURVE",
"-7 928 OFFCURVE",
"1 912 CURVE SMOOTH",
"68 776 LINE SMOOTH",
"74 763 OFFCURVE",
"80 759 OFFCURVE",
"98 759 CURVE SMOOTH"
);
}
);
width = 222;
}
);
note = Igrave;
unicode = 00CC;
},
{
glyphname = Ihookabove;
lastChange = "2015-07-18 10:08:21 +0000";
layers = (
{
layerId = "5D04EF83-1EDC-47E1-87A2-0FB57D789DB8";
name = Light;
paths = (
{
closed = 1;
nodes = (
"126 0 LINE SMOOTH",
"148 0 OFFCURVE",
"156 10 OFFCURVE",
"156 30 CURVE SMOOTH",
"156 650 LINE SMOOTH",
"156 670 OFFCURVE",
"148 680 OFFCURVE",
"126 680 CURVE SMOOTH",
"95 680 LINE SMOOTH",
"74 680 OFFCURVE",
"65 670 OFFCURVE",
"65 650 CURVE SMOOTH",
"65 30 LINE SMOOTH",
"65 10 OFFCURVE",
"74 0 OFFCURVE",
"95 0 CURVE SMOOTH"
);
},
{
closed = 1;
nodes = (
"118 734 LINE SMOOTH",
"134 734 OFFCURVE",
"141 742 OFFCURVE",
"141 757 CURVE SMOOTH",
"141 782 LINE",
"193 782 OFFCURVE",
"242 815 OFFCURVE",
"242 875 CURVE SMOOTH",
"242 932 OFFCURVE",
"202 969 OFFCURVE",
"116 969 CURVE SMOOTH",
"77 969 OFFCURVE",
"34 959 OFFCURVE",
"8 942 CURVE",
"3 939 OFFCURVE",
"3 937 OFFCURVE",
"5 932 CURVE",
"22 894 LINE",
"24 890 OFFCURVE",
"27 890 OFFCURVE",
"31 892 CURVE SMOOTH",
"57 905 OFFCURVE",
"80 912 OFFCURVE",
"110 912 CURVE SMOOTH",
"151 912 OFFCURVE",
"171 900 OFFCURVE",
"171 873 CURVE SMOOTH",
"171 843 OFFCURVE",
"155 830 OFFCURVE",
"105 830 CURVE SMOOTH",
"81 830 OFFCURVE",
"70 819 OFFCURVE",
"70 799 CURVE SMOOTH",
"70 757 LINE SMOOTH",
"70 742 OFFCURVE",
"77 734 OFFCURVE",
"93 734 CURVE SMOOTH"
);
}
);
width = 220;
}
);
note = Ihookabove;
unicode = 1EC8;
},
{
glyphname = Imacron;
lastChange = "2015-07-18 10:08:22 +0000";
layers = (
{
layerId = "5D04EF83-1EDC-47E1-87A2-0FB57D789DB8";
name = Light;
paths = (
{
closed = 1;
nodes = (
"126 0 LINE SMOOTH",
"148 0 OFFCURVE",
"157 10 OFFCURVE",
"157 30 CURVE SMOOTH",
"157 650 LINE SMOOTH",
"157 670 OFFCURVE",
"148 680 OFFCURVE",
"126 680 CURVE SMOOTH",
"96 680 LINE SMOOTH",
"74 680 OFFCURVE",
"66 670 OFFCURVE",
"66 650 CURVE SMOOTH",
"66 30 LINE SMOOTH",
"66 10 OFFCURVE",
"74 0 OFFCURVE",
"96 0 CURVE SMOOTH"
);
},
{
closed = 1;
nodes = (
"247 763 LINE SMOOTH",
"268 763 OFFCURVE",
"277 770 OFFCURVE",
"277 790 CURVE SMOOTH",
"277 807 LINE SMOOTH",
"277 827 OFFCURVE",
"268 836 OFFCURVE",
"247 836 CURVE SMOOTH",
"-29 836 LINE SMOOTH",
"-50 836 OFFCURVE",
"-58 827 OFFCURVE",
"-58 807 CURVE SMOOTH",
"-58 790 LINE SMOOTH",
"-58 770 OFFCURVE",
"-50 763 OFFCURVE",
"-29 763 CURVE SMOOTH"
);
}
);
width = 219;
}
);
note = Imacron;
unicode = 012A;
},
{
glyphname = Iogonek;
lastChange = "2015-07-18 10:08:20 +0000";
layers = (
{
layerId = "5D04EF83-1EDC-47E1-87A2-0FB57D789DB8";
name = Light;
paths = (
{
closed = 1;
nodes = (
"121 0 LINE SMOOTH",
"143 0 OFFCURVE",
"151 10 OFFCURVE",
"151 30 CURVE SMOOTH",
"151 650 LINE SMOOTH",
"151 670 OFFCURVE",
"143 680 OFFCURVE",
"121 680 CURVE SMOOTH",
"90 680 LINE SMOOTH",
"69 680 OFFCURVE",
"60 670 OFFCURVE",
"60 650 CURVE SMOOTH",
"60 30 LINE SMOOTH",
"60 10 OFFCURVE",
"69 0 OFFCURVE",
"90 0 CURVE SMOOTH"
);
},
{
closed = 1;
nodes = (
"105 -193 OFFCURVE",
"126 -191 OFFCURVE",
"141 -183 CURVE SMOOTH",
"153 -177 OFFCURVE",
"154 -173 OFFCURVE",
"151 -166 CURVE",
"138 -139 LINE SMOOTH",
"134 -130 OFFCURVE",
"131 -131 OFFCURVE",
"124 -134 CURVE",
"118 -137 OFFCURVE",
"111 -138 OFFCURVE",
"102 -138 CURVE SMOOTH",
"86 -138 OFFCURVE",
"78 -129 OFFCURVE",
"78 -111 CURVE SMOOTH",
"78 -82 OFFCURVE",
"90 -57 OFFCURVE",
"136 -1 CURVE SMOOTH",
"143 7 OFFCURVE",
"138 15 OFFCURVE",
"126 15 CURVE SMOOTH",
"86 15 LINE SMOOTH",
"73 15 OFFCURVE",
"69 11 OFFCURVE",
"61 2 CURVE SMOOTH",
"17 -48 OFFCURVE",
"0 -85 OFFCURVE",
"0 -121 CURVE SMOOTH",
"0 -160 OFFCURVE",
"26 -193 OFFCURVE",
"80 -193 CURVE SMOOTH"
);
}
);
width = 216;
}
);
note = Iogonek;
unicode = 012E;
},
{
glyphname = Itilde;
lastChange = "2015-07-18 10:08:20 +0000";
layers = (
{
layerId = "5D04EF83-1EDC-47E1-87A2-0FB57D789DB8";
name = Light;
paths = (
{
closed = 1;
nodes = (
"126 0 LINE SMOOTH",
"148 0 OFFCURVE",
"156 10 OFFCURVE",
"156 30 CURVE SMOOTH",
"156 650 LINE SMOOTH",
"156 670 OFFCURVE",
"148 680 OFFCURVE",
"126 680 CURVE SMOOTH",
"95 680 LINE SMOOTH",
"74 680 OFFCURVE",
"65 670 OFFCURVE",
"65 650 CURVE SMOOTH",
"65 30 LINE SMOOTH",
"65 10 OFFCURVE",
"74 0 OFFCURVE",
"95 0 CURVE SMOOTH"
);
},
{
closed = 1;
nodes = (
"270 745 OFFCURVE",
"300 766 OFFCURVE",
"329 809 CURVE SMOOTH",
"341 827 OFFCURVE",
"340 838 OFFCURVE",
"320 854 CURVE SMOOTH",
"301 870 OFFCURVE",
"288 870 OFFCURVE",
"277 855 CURVE SMOOTH",
"255 826 OFFCURVE",
"240 817 OFFCURVE",
"212 817 CURVE SMOOTH",
"150 817 OFFCURVE",
"107 870 OFFCURVE",
"25 870 CURVE SMOOTH",
"-22 870 OFFCURVE",
"-51 843 OFFCURVE",
"-74 816 CURVE SMOOTH",
"-87 801 OFFCURVE",
"-87 788 OFFCURVE",
"-73 774 CURVE SMOOTH",
"-55 756 OFFCURVE",
"-41 754 OFFCURVE",
"-30 767 CURVE",
"-10 789 OFFCURVE",
"0 799 OFFCURVE",
"29 799 CURVE SMOOTH",
"84 799 OFFCURVE",
"143 745 OFFCURVE",
"212 745 CURVE SMOOTH"
);
}
);
width = 223;
}
);
note = Itilde;
unicode = 0128;
},
{
glyphname = J;
lastChange = "2015-07-18 10:08:16 +0000";
layers = (
{
layerId = "5D04EF83-1EDC-47E1-87A2-0FB57D789DB8";
name = Light;
paths = (
{
closed = 1;
nodes = (
"352 -15 OFFCURVE",
"413 68 OFFCURVE",
"413 182 CURVE SMOOTH",
"413 650 LINE SMOOTH",
"413 670 OFFCURVE",
"405 680 OFFCURVE",
"383 680 CURVE SMOOTH",
"353 680 LINE SMOOTH",
"331 680 OFFCURVE",
"322 670 OFFCURVE",
"322 650 CURVE SMOOTH",
"322 181 LINE SMOOTH",
"322 97 OFFCURVE",
"289 55 OFFCURVE",
"210 55 CURVE SMOOTH",
"156 55 OFFCURVE",
"105 70 OFFCURVE",
"73 90 CURVE SMOOTH",
"63 96 OFFCURVE",
"59 96 OFFCURVE",
"53 86 CURVE SMOOTH",
"31 50 LINE SMOOTH",
"25 40 OFFCURVE",
"28 33 OFFCURVE",
"36 29 CURVE",
"85 1 OFFCURVE",
"142 -15 OFFCURVE",
"210 -15 CURVE SMOOTH"
);
}
);
width = 475;
}
);
note = J;
unicode = 004A;
},
{
glyphname = Jcircumflex;
lastChange = "2015-07-18 10:08:21 +0000";
layers = (
{
layerId = "5D04EF83-1EDC-47E1-87A2-0FB57D789DB8";
name = Light;
paths = (
{
closed = 1;
nodes = (
"352 -15 OFFCURVE",
"413 68 OFFCURVE",
"413 182 CURVE SMOOTH",
"413 650 LINE SMOOTH",
"413 670 OFFCURVE",
"405 680 OFFCURVE",
"383 680 CURVE SMOOTH",
"353 680 LINE SMOOTH",
"331 680 OFFCURVE",
"322 670 OFFCURVE",
"322 650 CURVE SMOOTH",
"322 181 LINE SMOOTH",
"322 97 OFFCURVE",
"289 55 OFFCURVE",
"210 55 CURVE SMOOTH",
"156 55 OFFCURVE",
"105 70 OFFCURVE",
"73 90 CURVE SMOOTH",
"63 96 OFFCURVE",
"59 96 OFFCURVE",
"53 86 CURVE SMOOTH",
"31 50 LINE SMOOTH",
"25 40 OFFCURVE",
"28 33 OFFCURVE",
"36 29 CURVE",
"85 1 OFFCURVE",
"142 -15 OFFCURVE",
"210 -15 CURVE SMOOTH"
);
},
{
closed = 1;
nodes = (
"261 754 LINE SMOOTH",
"281 754 OFFCURVE",
"286 761 OFFCURVE",
"294 773 CURVE SMOOTH",
"370 884 LINE",
"446 773 LINE SMOOTH",
"454 761 OFFCURVE",
"459 754 OFFCURVE",
"479 754 CURVE SMOOTH",
"512 754 LINE SMOOTH",
"527 754 OFFCURVE",
"536 765 OFFCURVE",
"526 779 CURVE SMOOTH",
"418 928 LINE SMOOTH",
"408 941 OFFCURVE",
"405 947 OFFCURVE",
"387 947 CURVE SMOOTH",
"353 947 LINE SMOOTH",
"335 947 OFFCURVE",
"332 941 OFFCURVE",
"322 928 CURVE SMOOTH",
"214 779 LINE SMOOTH",
"204 765 OFFCURVE",
"213 754 OFFCURVE",
"228 754 CURVE SMOOTH"
);
}
);
width = 548;
}
);
note = Jcircumflex;
unicode = 0134;
},
{
glyphname = K;
lastChange = "2015-07-18 10:08:22 +0000";
layers = (
{
layerId = "5D04EF83-1EDC-47E1-87A2-0FB57D789DB8";
name = Light;
paths = (
{
closed = 1;
nodes = (
"569 0 LINE SMOOTH",
"581 0 OFFCURVE",
"583 14 OFFCURVE",
"575 23 CURVE SMOOTH",
"288 341 LINE",
"570 657 LINE SMOOTH",
"578 666 OFFCURVE",
"576 680 OFFCURVE",
"564 680 CURVE SMOOTH",
"502 680 LINE SMOOTH",
"485 680 OFFCURVE",
"482 679 OFFCURVE",
"474 670 CURVE SMOOTH",
"217 381 LINE SMOOTH",
"206 369 OFFCURVE",
"200 360 OFFCURVE",
"200 341 CURVE SMOOTH",
"200 322 OFFCURVE",
"207 313 OFFCURVE",
"217 301 CURVE",
"479 10 LINE SMOOTH",
"486 2 OFFCURVE",
"491 0 OFFCURVE",
"503 0 CURVE SMOOTH"
);
},
{
closed = 1;
nodes = (
"128 0 LINE SMOOTH",
"150 0 OFFCURVE",
"158 10 OFFCURVE",
"158 30 CURVE SMOOTH",
"158 650 LINE SMOOTH",
"158 670 OFFCURVE",
"150 680 OFFCURVE",
"128 680 CURVE SMOOTH",
"97 680 LINE SMOOTH",
"76 680 OFFCURVE",
"67 670 OFFCURVE",
"67 650 CURVE SMOOTH",
"67 30 LINE SMOOTH",
"67 10 OFFCURVE",
"76 0 OFFCURVE",
"97 0 CURVE SMOOTH"
);
}
);
width = 622;
}
);
note = K;
unicode = 004B;
},
{
glyphname = Kcommaaccent;
lastChange = "2015-07-18 10:08:21 +0000";
layers = (
{
layerId = "5D04EF83-1EDC-47E1-87A2-0FB57D789DB8";
name = Light;
paths = (
{
closed = 1;
nodes = (
"569 0 LINE SMOOTH",
"581 0 OFFCURVE",
"583 14 OFFCURVE",
"575 23 CURVE SMOOTH",
"288 341 LINE",
"570 657 LINE SMOOTH",
"578 666 OFFCURVE",
"576 680 OFFCURVE",
"564 680 CURVE SMOOTH",
"502 680 LINE SMOOTH",
"485 680 OFFCURVE",
"482 679 OFFCURVE",
"474 670 CURVE SMOOTH",
"217 381 LINE SMOOTH",
"206 369 OFFCURVE",
"200 360 OFFCURVE",
"200 341 CURVE SMOOTH",
"200 322 OFFCURVE",
"207 313 OFFCURVE",
"217 301 CURVE",
"479 10 LINE SMOOTH",
"486 2 OFFCURVE",
"491 0 OFFCURVE",
"503 0 CURVE SMOOTH"
);
},
{
closed = 1;
nodes = (
"229 -224 LINE SMOOTH",
"243 -224 OFFCURVE",
"250 -220 OFFCURVE",
"254 -210 CURVE SMOOTH",
"318 -60 LINE SMOOTH",
"325 -44 OFFCURVE",
"322 -36 OFFCURVE",
"303 -36 CURVE SMOOTH",
"265 -36 LINE SMOOTH",
"247 -36 OFFCURVE",
"241 -40 OFFCURVE",
"236 -56 CURVE SMOOTH",
"189 -204 LINE SMOOTH",
"185 -216 OFFCURVE",
"187 -224 OFFCURVE",
"201 -224 CURVE SMOOTH"
);
},
{
closed = 1;
nodes = (
"128 0 LINE SMOOTH",
"150 0 OFFCURVE",
"158 10 OFFCURVE",
"158 30 CURVE SMOOTH",
"158 650 LINE SMOOTH",
"158 670 OFFCURVE",
"150 680 OFFCURVE",
"128 680 CURVE SMOOTH",
"97 680 LINE SMOOTH",
"76 680 OFFCURVE",
"67 670 OFFCURVE",
"67 650 CURVE SMOOTH",
"67 30 LINE SMOOTH",
"67 10 OFFCURVE",
"76 0 OFFCURVE",
"97 0 CURVE SMOOTH"
);
}
);
width = 622;
}
);
note = Kcommaaccent;
unicode = 0136;
},
{
glyphname = L;
lastChange = "2015-07-18 10:08:16 +0000";
layers = (
{
layerId = "5D04EF83-1EDC-47E1-87A2-0FB57D789DB8";
name = Light;
paths = (
{
closed = 1;
nodes = (
"489 0 LINE SMOOTH",
"510 0 OFFCURVE",
"518 7 OFFCURVE",
"518 27 CURVE SMOOTH",
"518 44 LINE SMOOTH",
"518 65 OFFCURVE",
"510 73 OFFCURVE",
"489 73 CURVE SMOOTH",
"158 73 LINE",
"158 650 LINE SMOOTH",
"158 670 OFFCURVE",
"150 680 OFFCURVE",
"128 680 CURVE SMOOTH",
"97 680 LINE SMOOTH",
"76 680 OFFCURVE",
"67 670 OFFCURVE",
"67 650 CURVE SMOOTH",
"67 30 LINE SMOOTH",
"67 10 OFFCURVE",
"76 0 OFFCURVE",
"97 0 CURVE SMOOTH"
);
}
);
width = 545;
}
);
note = L;
unicode = 004C;
},
{
glyphname = Lacute;
lastChange = "2015-07-18 10:08:21 +0000";
layers = (
{
layerId = "5D04EF83-1EDC-47E1-87A2-0FB57D789DB8";
name = Light;
paths = (
{
closed = 1;
nodes = (
"489 0 LINE SMOOTH",
"510 0 OFFCURVE",
"518 7 OFFCURVE",
"518 27 CURVE SMOOTH",
"518 44 LINE SMOOTH",
"518 65 OFFCURVE",
"510 73 OFFCURVE",
"489 73 CURVE SMOOTH",
"158 73 LINE",
"158 650 LINE SMOOTH",
"158 670 OFFCURVE",
"150 680 OFFCURVE",
"128 680 CURVE SMOOTH",
"97 680 LINE SMOOTH",
"76 680 OFFCURVE",
"67 670 OFFCURVE",
"67 650 CURVE SMOOTH",
"67 30 LINE SMOOTH",
"67 10 OFFCURVE",
"76 0 OFFCURVE",
"97 0 CURVE SMOOTH"
);
},
{
closed = 1;
nodes = (
"131 735 LINE SMOOTH",
"149 735 OFFCURVE",
"156 739 OFFCURVE",
"162 752 CURVE SMOOTH",
"228 888 LINE SMOOTH",
"236 904 OFFCURVE",
"230 912 OFFCURVE",
"213 912 CURVE SMOOTH",
"162 912 LINE SMOOTH",
"143 912 OFFCURVE",
"138 907 OFFCURVE",
"133 893 CURVE SMOOTH",
"84 757 LINE SMOOTH",
"79 744 OFFCURVE",
"82 735 OFFCURVE",
"97 735 CURVE SMOOTH"
);
}
);
width = 545;
}
);
note = Lacute;
unicode = 0139;
},
{
glyphname = Lcaron;
lastChange = "2015-07-18 10:08:20 +0000";
layers = (
{
layerId = "5D04EF83-1EDC-47E1-87A2-0FB57D789DB8";
name = Light;
paths = (
{
closed = 1;
nodes = (
"489 0 LINE SMOOTH",
"510 0 OFFCURVE",
"518 7 OFFCURVE",
"518 27 CURVE SMOOTH",
"518 44 LINE SMOOTH",
"518 65 OFFCURVE",
"510 73 OFFCURVE",
"489 73 CURVE SMOOTH",
"158 73 LINE",
"158 650 LINE SMOOTH",
"158 670 OFFCURVE",
"150 680 OFFCURVE",
"128 680 CURVE SMOOTH",
"97 680 LINE SMOOTH",
"76 680 OFFCURVE",
"67 670 OFFCURVE",
"67 650 CURVE SMOOTH",
"67 30 LINE SMOOTH",
"67 10 OFFCURVE",
"76 0 OFFCURVE",
"97 0 CURVE SMOOTH"
);
},
{
closed = 1;
nodes = (
"362 539 LINE SMOOTH",
"376 539 OFFCURVE",
"383 543 OFFCURVE",
"387 553 CURVE SMOOTH",
"451 703 LINE SMOOTH",
"458 719 OFFCURVE",
"455 727 OFFCURVE",
"436 727 CURVE SMOOTH",
"398 727 LINE SMOOTH",
"380 727 OFFCURVE",
"374 723 OFFCURVE",
"369 707 CURVE SMOOTH",
"322 559 LINE SMOOTH",
"318 547 OFFCURVE",
"320 539 OFFCURVE",
"334 539 CURVE SMOOTH"
);
}
);
width = 553;
}
);
note = Lcaron;
unicode = 013D;
},
{
glyphname = Lcommaaccent;
lastChange = "2015-07-18 10:08:20 +0000";
layers = (
{
layerId = "5D04EF83-1EDC-47E1-87A2-0FB57D789DB8";
name = Light;
paths = (
{
closed = 1;
nodes = (
"489 0 LINE SMOOTH",
"510 0 OFFCURVE",
"518 7 OFFCURVE",
"518 27 CURVE SMOOTH",
"518 44 LINE SMOOTH",
"518 65 OFFCURVE",
"510 73 OFFCURVE",
"489 73 CURVE SMOOTH",
"158 73 LINE",
"158 650 LINE SMOOTH",
"158 670 OFFCURVE",
"150 680 OFFCURVE",
"128 680 CURVE SMOOTH",
"97 680 LINE SMOOTH",
"76 680 OFFCURVE",
"67 670 OFFCURVE",
"67 650 CURVE SMOOTH",
"67 30 LINE SMOOTH",
"67 10 OFFCURVE",
"76 0 OFFCURVE",
"97 0 CURVE SMOOTH"
);
},
{
closed = 1;
nodes = (
"244 -224 LINE SMOOTH",
"258 -224 OFFCURVE",
"265 -220 OFFCURVE",
"269 -210 CURVE SMOOTH",
"333 -60 LINE SMOOTH",
"340 -44 OFFCURVE",
"337 -36 OFFCURVE",
"318 -36 CURVE SMOOTH",
"280 -36 LINE SMOOTH",
"262 -36 OFFCURVE",
"256 -40 OFFCURVE",
"251 -56 CURVE SMOOTH",
"204 -204 LINE SMOOTH",
"200 -216 OFFCURVE",
"202 -224 OFFCURVE",
"216 -224 CURVE SMOOTH"
);
}
);
width = 545;
}
);
note = Lcommaaccent;
unicode = 013B;
},
{
glyphname = Ldot;
lastChange = "2015-07-18 10:08:21 +0000";
layers = (
{
layerId = "5D04EF83-1EDC-47E1-87A2-0FB57D789DB8";
name = Light;
paths = (
{
closed = 1;
nodes = (
"489 0 LINE SMOOTH",
"510 0 OFFCURVE",
"518 7 OFFCURVE",
"518 27 CURVE SMOOTH",
"518 44 LINE SMOOTH",
"518 65 OFFCURVE",
"510 73 OFFCURVE",
"489 73 CURVE SMOOTH",
"158 73 LINE",
"158 650 LINE SMOOTH",
"158 670 OFFCURVE",
"150 680 OFFCURVE",
"128 680 CURVE SMOOTH",
"97 680 LINE SMOOTH",
"76 680 OFFCURVE",
"67 670 OFFCURVE",
"67 650 CURVE SMOOTH",
"67 30 LINE SMOOTH",
"67 10 OFFCURVE",
"76 0 OFFCURVE",
"97 0 CURVE SMOOTH"
);
},
{
closed = 1;
nodes = (
"347 281 LINE SMOOTH",
"371 281 OFFCURVE",
"387 300 OFFCURVE",
"387 323 CURVE SMOOTH",
"387 339 LINE SMOOTH",
"387 362 OFFCURVE",
"370 381 OFFCURVE",
"347 381 CURVE SMOOTH",
"330 381 LINE SMOOTH",
"307 381 OFFCURVE",
"290 362 OFFCURVE",
"290 339 CURVE SMOOTH",
"290 323 LINE SMOOTH",
"290 300 OFFCURVE",
"307 281 OFFCURVE",
"330 281 CURVE SMOOTH"
);
}
);
width = 545;
}
);
note = Ldot;
unicode = 013F;
},
{
glyphname = Ldotbelow;
lastChange = "2015-07-18 10:08:22 +0000";
layers = (
{
layerId = "5D04EF83-1EDC-47E1-87A2-0FB57D789DB8";
name = Light;
paths = (
{
closed = 1;
nodes = (
"489 0 LINE SMOOTH",
"510 0 OFFCURVE",
"518 7 OFFCURVE",
"518 27 CURVE SMOOTH",
"518 44 LINE SMOOTH",
"518 65 OFFCURVE",
"510 73 OFFCURVE",
"489 73 CURVE SMOOTH",
"158 73 LINE",
"158 650 LINE SMOOTH",
"158 670 OFFCURVE",
"150 680 OFFCURVE",
"128 680 CURVE SMOOTH",
"97 680 LINE SMOOTH",
"76 680 OFFCURVE",
"67 670 OFFCURVE",
"67 650 CURVE SMOOTH",
"67 30 LINE SMOOTH",
"67 10 OFFCURVE",
"76 0 OFFCURVE",
"97 0 CURVE SMOOTH"
);
},
{
closed = 1;
nodes = (
"304 -172 LINE SMOOTH",
"329 -172 OFFCURVE",
"344 -153 OFFCURVE",
"344 -130 CURVE SMOOTH",
"344 -114 LINE SMOOTH",
"344 -91 OFFCURVE",
"328 -72 OFFCURVE",
"304 -72 CURVE SMOOTH",
"287 -72 LINE SMOOTH",
"264 -72 OFFCURVE",
"247 -91 OFFCURVE",
"247 -114 CURVE SMOOTH",
"247 -130 LINE SMOOTH",
"247 -153 OFFCURVE",
"264 -172 OFFCURVE",
"287 -172 CURVE SMOOTH"
);
}
);
width = 545;
}
);
note = Ldotbelow;
unicode = 1E36;
},
{
glyphname = Ldotbelowmacron;
lastChange = "2015-07-18 10:08:21 +0000";
layers = (
{
layerId = "5D04EF83-1EDC-47E1-87A2-0FB57D789DB8";
name = Light;
paths = (
{
closed = 1;
nodes = (
"510 0 LINE SMOOTH",
"531 0 OFFCURVE",
"539 7 OFFCURVE",
"539 27 CURVE SMOOTH",
"539 44 LINE SMOOTH",
"539 65 OFFCURVE",
"531 73 OFFCURVE",
"510 73 CURVE SMOOTH",
"179 73 LINE",
"179 650 LINE SMOOTH",
"179 670 OFFCURVE",
"171 680 OFFCURVE",
"149 680 CURVE SMOOTH",
"118 680 LINE SMOOTH",
"97 680 OFFCURVE",
"88 670 OFFCURVE",
"88 650 CURVE SMOOTH",
"88 30 LINE SMOOTH",
"88 10 OFFCURVE",
"97 0 OFFCURVE",
"118 0 CURVE SMOOTH"
);
},
{
closed = 1;
nodes = (
"325 -172 LINE SMOOTH",
"350 -172 OFFCURVE",
"365 -153 OFFCURVE",
"365 -130 CURVE SMOOTH",
"365 -114 LINE SMOOTH",
"365 -91 OFFCURVE",
"349 -72 OFFCURVE",
"325 -72 CURVE SMOOTH",
"308 -72 LINE SMOOTH",
"285 -72 OFFCURVE",
"268 -91 OFFCURVE",
"268 -114 CURVE SMOOTH",
"268 -130 LINE SMOOTH",
"268 -153 OFFCURVE",
"285 -172 OFFCURVE",
"308 -172 CURVE SMOOTH"
);
},
{
closed = 1;
nodes = (
"272 777 LINE SMOOTH",
"293 777 OFFCURVE",
"301 784 OFFCURVE",
"301 805 CURVE SMOOTH",
"301 821 LINE SMOOTH",
"301 842 OFFCURVE",
"293 850 OFFCURVE",
"272 850 CURVE SMOOTH",
"-4 850 LINE SMOOTH",
"-25 850 OFFCURVE",
"-33 842 OFFCURVE",
"-33 821 CURVE SMOOTH",
"-33 805 LINE SMOOTH",
"-33 784 OFFCURVE",
"-25 777 OFFCURVE",
"-4 777 CURVE SMOOTH"
);
}
);
width = 566;
}
);
note = Ldotbelowmacron;
unicode = 1E38;
},
{
glyphname = Llinebelow;
lastChange = "2015-07-18 10:08:21 +0000";
layers = (
{
layerId = "5D04EF83-1EDC-47E1-87A2-0FB57D789DB8";
name = Light;
paths = (
{
closed = 1;
nodes = (
"489 0 LINE SMOOTH",
"510 0 OFFCURVE",
"518 7 OFFCURVE",
"518 27 CURVE SMOOTH",
"518 44 LINE SMOOTH",
"518 65 OFFCURVE",
"510 73 OFFCURVE",
"489 73 CURVE SMOOTH",
"158 73 LINE",
"158 650 LINE SMOOTH",
"158 670 OFFCURVE",
"150 680 OFFCURVE",
"128 680 CURVE SMOOTH",
"97 680 LINE SMOOTH",
"76 680 OFFCURVE",
"67 670 OFFCURVE",
"67 650 CURVE SMOOTH",
"67 30 LINE SMOOTH",
"67 10 OFFCURVE",
"76 0 OFFCURVE",
"97 0 CURVE SMOOTH"
);
},
{
closed = 1;
nodes = (
"416 -147 LINE SMOOTH",
"437 -147 OFFCURVE",
"446 -140 OFFCURVE",
"446 -120 CURVE SMOOTH",
"446 -107 LINE SMOOTH",
"446 -87 OFFCURVE",
"437 -78 OFFCURVE",
"416 -78 CURVE SMOOTH",
"147 -78 LINE SMOOTH",
"126 -78 OFFCURVE",
"118 -87 OFFCURVE",
"118 -107 CURVE SMOOTH",
"118 -120 LINE SMOOTH",
"118 -140 OFFCURVE",
"126 -147 OFFCURVE",
"147 -147 CURVE SMOOTH"
);
}
);
width = 545;
}
);
note = Llinebelow;
unicode = 1E3A;
},
{
glyphname = Lslash;
lastChange = "2015-07-18 10:08:20 +0000";
layers = (
{
layerId = "5D04EF83-1EDC-47E1-87A2-0FB57D789DB8";
name = Light;
paths = (
{
closed = 1;
nodes = (
"565 0 LINE SMOOTH",
"586 0 OFFCURVE",
"595 7 OFFCURVE",
"595 27 CURVE SMOOTH",
"595 44 LINE SMOOTH",
"595 65 OFFCURVE",
"586 73 OFFCURVE",
"565 73 CURVE SMOOTH",
"235 73 LINE",
"235 650 LINE SMOOTH",
"235 670 OFFCURVE",
"226 680 OFFCURVE",
"204 680 CURVE SMOOTH",
"174 680 LINE SMOOTH",
"152 680 OFFCURVE",
"144 670 OFFCURVE",
"144 650 CURVE SMOOTH",
"144 30 LINE SMOOTH",
"144 10 OFFCURVE",
"152 0 OFFCURVE",
"174 0 CURVE SMOOTH"
);
},
{
closed = 1;
nodes = (
"367 390 LINE SMOOTH",
"380 397 OFFCURVE",
"385 405 OFFCURVE",
"377 418 CURVE SMOOTH",
"362 443 LINE SMOOTH",
"354 457 OFFCURVE",
"345 459 OFFCURVE",
"332 451 CURVE SMOOTH",
"30 278 LINE SMOOTH",
"17 271 OFFCURVE",
"14 262 OFFCURVE",
"22 248 CURVE SMOOTH",
"36 224 LINE SMOOTH",
"44 210 OFFCURVE",
"53 210 OFFCURVE",
"66 218 CURVE SMOOTH"
);
}
);
width = 622;
}
);
note = Lslash;
unicode = 0141;
},
{
glyphname = M;
lastChange = "2015-07-18 10:08:16 +0000";
layers = (
{
layerId = "5D04EF83-1EDC-47E1-87A2-0FB57D789DB8";
name = Light;
paths = (
{
closed = 1;
nodes = (
"123 0 LINE SMOOTH",
"145 0 OFFCURVE",
"154 10 OFFCURVE",
"154 30 CURVE SMOOTH",
"154 513 LINE",
"362 50 LINE SMOOTH",
"368 36 OFFCURVE",
"376 28 OFFCURVE",
"394 28 CURVE SMOOTH",
"413 28 OFFCURVE",
"420 36 OFFCURVE",
"426 50 CURVE SMOOTH",
"635 513 LINE",
"635 30 LINE SMOOTH",
"635 10 OFFCURVE",
"643 0 OFFCURVE",
"665 0 CURVE SMOOTH",
"691 0 LINE SMOOTH",
"713 0 OFFCURVE",
"721 10 OFFCURVE",
"721 30 CURVE SMOOTH",
"721 650 LINE SMOOTH",
"721 670 OFFCURVE",
"713 680 OFFCURVE",
"691 680 CURVE SMOOTH",
"657 680 LINE SMOOTH",
"641 680 OFFCURVE",
"632 678 OFFCURVE",
"625 663 CURVE SMOOTH",
"394 141 LINE",
"164 663 LINE SMOOTH",
"157 678 OFFCURVE",
"148 680 OFFCURVE",
"132 680 CURVE SMOOTH",
"98 680 LINE SMOOTH",
"76 680 OFFCURVE",
"67 670 OFFCURVE",
"67 650 CURVE SMOOTH",
"67 30 LINE SMOOTH",
"67 10 OFFCURVE",
"76 0 OFFCURVE",
"97 0 CURVE SMOOTH"
);
}
);
width = 788;
}
);
note = M;
unicode = 004D;
},
{
glyphname = Mdotbelow;
lastChange = "2015-07-18 10:08:21 +0000";
layers = (
{
layerId = "5D04EF83-1EDC-47E1-87A2-0FB57D789DB8";
name = Light;
paths = (
{
closed = 1;
nodes = (
"123 0 LINE SMOOTH",
"145 0 OFFCURVE",
"154 10 OFFCURVE",
"154 30 CURVE SMOOTH",
"154 513 LINE",
"362 50 LINE SMOOTH",
"368 36 OFFCURVE",
"376 28 OFFCURVE",
"394 28 CURVE SMOOTH",
"413 28 OFFCURVE",
"420 36 OFFCURVE",
"426 50 CURVE SMOOTH",
"635 513 LINE",
"635 30 LINE SMOOTH",
"635 10 OFFCURVE",
"643 0 OFFCURVE",
"665 0 CURVE SMOOTH",
"691 0 LINE SMOOTH",
"713 0 OFFCURVE",
"721 10 OFFCURVE",
"721 30 CURVE SMOOTH",
"721 650 LINE SMOOTH",
"721 670 OFFCURVE",
"713 680 OFFCURVE",
"691 680 CURVE SMOOTH",
"657 680 LINE SMOOTH",
"641 680 OFFCURVE",
"632 678 OFFCURVE",
"625 663 CURVE SMOOTH",
"394 141 LINE",
"164 663 LINE SMOOTH",
"157 678 OFFCURVE",
"148 680 OFFCURVE",
"132 680 CURVE SMOOTH",
"98 680 LINE SMOOTH",
"76 680 OFFCURVE",
"67 670 OFFCURVE",
"67 650 CURVE SMOOTH",
"67 30 LINE SMOOTH",
"67 10 OFFCURVE",
"76 0 OFFCURVE",
"97 0 CURVE SMOOTH"
);
},
{
closed = 1;
nodes = (
"404 -172 LINE SMOOTH",
"429 -172 OFFCURVE",
"444 -153 OFFCURVE",
"444 -130 CURVE SMOOTH",
"444 -114 LINE SMOOTH",
"444 -91 OFFCURVE",
"428 -72 OFFCURVE",
"404 -72 CURVE SMOOTH",
"387 -72 LINE SMOOTH",
"364 -72 OFFCURVE",
"347 -91 OFFCURVE",
"347 -114 CURVE SMOOTH",
"347 -130 LINE SMOOTH",
"347 -153 OFFCURVE",
"364 -172 OFFCURVE",
"387 -172 CURVE SMOOTH"
);
}
);
width = 788;
}
);
note = Mdotbelow;
unicode = 1E42;
},
{
glyphname = N;
lastChange = "2015-07-18 10:08:16 +0000";
layers = (
{
layerId = "5D04EF83-1EDC-47E1-87A2-0FB57D789DB8";
name = Light;
paths = (
{
closed = 1;
nodes = (
"128 0 LINE SMOOTH",
"150 0 OFFCURVE",
"158 10 OFFCURVE",
"158 30 CURVE SMOOTH",
"158 537 LINE",
"538 17 LINE SMOOTH",
"548 3 OFFCURVE",
"554 0 OFFCURVE",
"569 0 CURVE SMOOTH",
"600 0 LINE SMOOTH",
"622 0 OFFCURVE",
"630 10 OFFCURVE",
"630 30 CURVE SMOOTH",
"630 650 LINE SMOOTH",
"630 670 OFFCURVE",
"622 680 OFFCURVE",
"600 680 CURVE SMOOTH",
"569 680 LINE SMOOTH",
"548 680 OFFCURVE",
"539 670 OFFCURVE",
"539 650 CURVE SMOOTH",
"539 142 LINE",
"160 663 LINE SMOOTH",
"150 677 OFFCURVE",
"144 680 OFFCURVE",
"128 680 CURVE SMOOTH",
"98 680 LINE SMOOTH",
"76 680 OFFCURVE",
"67 670 OFFCURVE",
"67 650 CURVE SMOOTH",
"67 30 LINE SMOOTH",
"67 10 OFFCURVE",
"76 0 OFFCURVE",
"97 0 CURVE SMOOTH"
);
}
);
width = 697;
}
);
note = N;
unicode = 004E;
},
{
glyphname = Nacute;
lastChange = "2015-07-18 10:08:22 +0000";
layers = (
{
layerId = "5D04EF83-1EDC-47E1-87A2-0FB57D789DB8";
name = Light;
paths = (
{
closed = 1;
nodes = (
"128 0 LINE SMOOTH",
"150 0 OFFCURVE",
"158 10 OFFCURVE",
"158 30 CURVE SMOOTH",
"158 537 LINE",
"538 17 LINE SMOOTH",
"548 3 OFFCURVE",
"554 0 OFFCURVE",
"569 0 CURVE SMOOTH",
"600 0 LINE SMOOTH",
"622 0 OFFCURVE",
"630 10 OFFCURVE",
"630 30 CURVE SMOOTH",
"630 650 LINE SMOOTH",
"630 670 OFFCURVE",
"622 680 OFFCURVE",
"600 680 CURVE SMOOTH",
"569 680 LINE SMOOTH",
"548 680 OFFCURVE",
"539 670 OFFCURVE",
"539 650 CURVE SMOOTH",
"539 142 LINE",
"160 663 LINE SMOOTH",
"150 677 OFFCURVE",
"144 680 OFFCURVE",
"128 680 CURVE SMOOTH",
"98 680 LINE SMOOTH",
"76 680 OFFCURVE",
"67 670 OFFCURVE",
"67 650 CURVE SMOOTH",
"67 30 LINE SMOOTH",
"67 10 OFFCURVE",
"76 0 OFFCURVE",
"97 0 CURVE SMOOTH"
);
},
{
closed = 1;
nodes = (
"359 747 LINE SMOOTH",
"377 747 OFFCURVE",
"384 751 OFFCURVE",
"390 764 CURVE SMOOTH",
"456 900 LINE SMOOTH",
"464 916 OFFCURVE",
"458 924 OFFCURVE",
"441 924 CURVE SMOOTH",
"390 924 LINE SMOOTH",
"371 924 OFFCURVE",
"366 919 OFFCURVE",
"361 905 CURVE SMOOTH",
"312 769 LINE SMOOTH",
"307 756 OFFCURVE",
"310 747 OFFCURVE",
"325 747 CURVE SMOOTH"
);
}
);
width = 697;
}
);
note = Nacute;
unicode = 0143;
},
{
glyphname = Ncaron;
lastChange = "2015-07-18 10:08:21 +0000";
layers = (
{
layerId = "5D04EF83-1EDC-47E1-87A2-0FB57D789DB8";
name = Light;
paths = (
{
closed = 1;
nodes = (
"128 0 LINE SMOOTH",
"150 0 OFFCURVE",
"158 10 OFFCURVE",
"158 30 CURVE SMOOTH",
"158 537 LINE",
"538 17 LINE SMOOTH",
"548 3 OFFCURVE",
"554 0 OFFCURVE",
"569 0 CURVE SMOOTH",
"600 0 LINE SMOOTH",
"622 0 OFFCURVE",
"630 10 OFFCURVE",
"630 30 CURVE SMOOTH",
"630 650 LINE SMOOTH",
"630 670 OFFCURVE",
"622 680 OFFCURVE",
"600 680 CURVE SMOOTH",
"569 680 LINE SMOOTH",
"548 680 OFFCURVE",
"539 670 OFFCURVE",
"539 650 CURVE SMOOTH",
"539 142 LINE",
"160 663 LINE SMOOTH",
"150 677 OFFCURVE",
"144 680 OFFCURVE",
"128 680 CURVE SMOOTH",
"98 680 LINE SMOOTH",
"76 680 OFFCURVE",
"67 670 OFFCURVE",
"67 650 CURVE SMOOTH",
"67 30 LINE SMOOTH",
"67 10 OFFCURVE",
"76 0 OFFCURVE",
"97 0 CURVE SMOOTH"
);
},
{
closed = 1;
nodes = (
"366 744 LINE SMOOTH",
"384 744 OFFCURVE",
"387 750 OFFCURVE",
"397 763 CURVE SMOOTH",
"505 912 LINE SMOOTH",
"515 925 OFFCURVE",
"512 937 OFFCURVE",
"497 937 CURVE SMOOTH",
"457 937 LINE SMOOTH",
"437 937 OFFCURVE",
"434 933 OFFCURVE",
"426 921 CURVE SMOOTH",
"349 807 LINE",
"271 921 LINE SMOOTH",
"263 933 OFFCURVE",
"260 937 OFFCURVE",
"240 937 CURVE SMOOTH",
"200 937 LINE SMOOTH",
"185 937 OFFCURVE",
"183 926 OFFCURVE",
"193 912 CURVE SMOOTH",
"301 763 LINE SMOOTH",
"311 750 OFFCURVE",
"314 744 OFFCURVE",
"332 744 CURVE SMOOTH"
);
}
);
width = 697;
}
);
note = Ncaron;
unicode = 0147;
},
{
glyphname = Ncommaaccent;
lastChange = "2015-07-18 10:08:20 +0000";
layers = (
{
layerId = "5D04EF83-1EDC-47E1-87A2-0FB57D789DB8";
name = Light;
paths = (
{
closed = 1;
nodes = (
"128 0 LINE SMOOTH",
"150 0 OFFCURVE",
"158 10 OFFCURVE",
"158 30 CURVE SMOOTH",
"158 537 LINE",
"538 17 LINE SMOOTH",
"548 3 OFFCURVE",
"554 0 OFFCURVE",
"569 0 CURVE SMOOTH",
"600 0 LINE SMOOTH",
"622 0 OFFCURVE",
"630 10 OFFCURVE",
"630 30 CURVE SMOOTH",
"630 650 LINE SMOOTH",
"630 670 OFFCURVE",
"622 680 OFFCURVE",
"600 680 CURVE SMOOTH",
"569 680 LINE SMOOTH",
"548 680 OFFCURVE",
"539 670 OFFCURVE",
"539 650 CURVE SMOOTH",
"539 142 LINE",
"160 663 LINE SMOOTH",
"150 677 OFFCURVE",
"144 680 OFFCURVE",
"128 680 CURVE SMOOTH",
"98 680 LINE SMOOTH",
"76 680 OFFCURVE",
"67 670 OFFCURVE",
"67 650 CURVE SMOOTH",
"67 30 LINE SMOOTH",
"67 10 OFFCURVE",
"76 0 OFFCURVE",
"97 0 CURVE SMOOTH"
);
},
{
closed = 1;
nodes = (
"314 -224 LINE SMOOTH",
"328 -224 OFFCURVE",
"335 -220 OFFCURVE",
"339 -210 CURVE SMOOTH",
"403 -60 LINE SMOOTH",
"410 -44 OFFCURVE",
"407 -36 OFFCURVE",
"388 -36 CURVE SMOOTH",
"350 -36 LINE SMOOTH",
"332 -36 OFFCURVE",
"326 -40 OFFCURVE",
"321 -56 CURVE SMOOTH",
"274 -204 LINE SMOOTH",
"270 -216 OFFCURVE",
"272 -224 OFFCURVE",
"286 -224 CURVE SMOOTH"
);
}
);
width = 697;
}
);
note = Ncommaaccent;
unicode = 0145;
},
{
glyphname = Ndotaccent;
lastChange = "2015-07-18 10:08:22 +0000";
layers = (
{
layerId = "5D04EF83-1EDC-47E1-87A2-0FB57D789DB8";
name = Light;
paths = (
{
closed = 1;
nodes = (
"128 0 LINE SMOOTH",
"150 0 OFFCURVE",
"158 10 OFFCURVE",
"158 30 CURVE SMOOTH",
"158 537 LINE",
"538 17 LINE SMOOTH",
"548 3 OFFCURVE",
"554 0 OFFCURVE",
"569 0 CURVE SMOOTH",
"600 0 LINE SMOOTH",
"622 0 OFFCURVE",
"630 10 OFFCURVE",
"630 30 CURVE SMOOTH",
"630 650 LINE SMOOTH",
"630 670 OFFCURVE",
"622 680 OFFCURVE",
"600 680 CURVE SMOOTH",
"569 680 LINE SMOOTH",
"548 680 OFFCURVE",
"539 670 OFFCURVE",
"539 650 CURVE SMOOTH",
"539 142 LINE",
"160 663 LINE SMOOTH",
"150 677 OFFCURVE",
"144 680 OFFCURVE",
"128 680 CURVE SMOOTH",
"98 680 LINE SMOOTH",
"76 680 OFFCURVE",
"67 670 OFFCURVE",
"67 650 CURVE SMOOTH",
"67 30 LINE SMOOTH",
"67 10 OFFCURVE",
"76 0 OFFCURVE",
"97 0 CURVE SMOOTH"
);
},
{
closed = 1;
nodes = (
"368 770 LINE SMOOTH",
"392 770 OFFCURVE",
"408 789 OFFCURVE",
"408 812 CURVE SMOOTH",
"408 828 LINE SMOOTH",
"408 851 OFFCURVE",
"391 870 OFFCURVE",
"368 870 CURVE SMOOTH",
"350 870 LINE SMOOTH",
"327 870 OFFCURVE",
"310 851 OFFCURVE",
"310 828 CURVE SMOOTH",
"310 812 LINE SMOOTH",
"310 789 OFFCURVE",
"327 770 OFFCURVE",
"350 770 CURVE SMOOTH"
);
}
);
width = 697;
}
);
note = Ndotaccent;
unicode = 1E44;
},
{
glyphname = Ndotbelow;
lastChange = "2015-07-18 10:08:20 +0000";
layers = (
{
layerId = "5D04EF83-1EDC-47E1-87A2-0FB57D789DB8";
name = Light;
paths = (
{
closed = 1;
nodes = (
"128 0 LINE SMOOTH",
"150 0 OFFCURVE",
"158 10 OFFCURVE",
"158 30 CURVE SMOOTH",
"158 537 LINE",
"538 17 LINE SMOOTH",
"548 3 OFFCURVE",
"554 0 OFFCURVE",
"569 0 CURVE SMOOTH",
"600 0 LINE SMOOTH",
"622 0 OFFCURVE",
"630 10 OFFCURVE",
"630 30 CURVE SMOOTH",
"630 650 LINE SMOOTH",
"630 670 OFFCURVE",
"622 680 OFFCURVE",
"600 680 CURVE SMOOTH",
"569 680 LINE SMOOTH",
"548 680 OFFCURVE",
"539 670 OFFCURVE",
"539 650 CURVE SMOOTH",
"539 142 LINE",
"160 663 LINE SMOOTH",
"150 677 OFFCURVE",
"144 680 OFFCURVE",
"128 680 CURVE SMOOTH",
"98 680 LINE SMOOTH",
"76 680 OFFCURVE",
"67 670 OFFCURVE",
"67 650 CURVE SMOOTH",
"67 30 LINE SMOOTH",
"67 10 OFFCURVE",
"76 0 OFFCURVE",
"97 0 CURVE SMOOTH"
);
},
{
closed = 1;
nodes = (
"363 -172 LINE SMOOTH",
"388 -172 OFFCURVE",
"403 -153 OFFCURVE",
"403 -130 CURVE SMOOTH",
"403 -114 LINE SMOOTH",
"403 -91 OFFCURVE",
"387 -72 OFFCURVE",
"363 -72 CURVE SMOOTH",
"346 -72 LINE SMOOTH",
"323 -72 OFFCURVE",
"306 -91 OFFCURVE",
"306 -114 CURVE SMOOTH",
"306 -130 LINE SMOOTH",
"306 -153 OFFCURVE",
"323 -172 OFFCURVE",
"346 -172 CURVE SMOOTH"
);
}
);
width = 697;
}
);
note = Ndotbelow;
unicode = 1E46;
},
{
glyphname = Eng;
lastChange = "2015-07-18 10:08:16 +0000";
layers = (
{
layerId = "5D04EF83-1EDC-47E1-87A2-0FB57D789DB8";
name = Light;
paths = (
{
closed = 1;
nodes = (
"569 -254 OFFCURVE",
"630 -171 OFFCURVE",
"630 -57 CURVE SMOOTH",
"630 650 LINE SMOOTH",
"630 670 OFFCURVE",
"622 680 OFFCURVE",
"600 680 CURVE SMOOTH",
"569 680 LINE SMOOTH",
"548 680 OFFCURVE",
"539 670 OFFCURVE",
"539 650 CURVE SMOOTH",
"539 142 LINE",
"160 663 LINE SMOOTH",
"150 677 OFFCURVE",
"144 680 OFFCURVE",
"128 680 CURVE SMOOTH",
"98 680 LINE SMOOTH",
"76 680 OFFCURVE",
"67 670 OFFCURVE",
"67 650 CURVE SMOOTH",
"67 30 LINE SMOOTH",
"67 10 OFFCURVE",
"76 0 OFFCURVE",
"97 0 CURVE SMOOTH",
"128 0 LINE SMOOTH",
"150 0 OFFCURVE",
"158 10 OFFCURVE",
"158 30 CURVE SMOOTH",
"158 537 LINE",
"539 15 LINE",
"539 -58 LINE SMOOTH",
"539 -142 OFFCURVE",
"506 -184 OFFCURVE",
"427 -184 CURVE SMOOTH",
"373 -184 OFFCURVE",
"322 -169 OFFCURVE",
"290 -149 CURVE SMOOTH",
"280 -143 OFFCURVE",
"276 -143 OFFCURVE",
"270 -153 CURVE SMOOTH",
"248 -189 LINE SMOOTH",
"242 -199 OFFCURVE",
"245 -206 OFFCURVE",
"253 -210 CURVE",
"302 -238 OFFCURVE",
"359 -254 OFFCURVE",
"427 -254 CURVE SMOOTH"
);
}
);
width = 697;
}
);
note = Eng;
unicode = 014A;
},
{
glyphname = Nlinebelow;
lastChange = "2015-07-18 10:08:22 +0000";
layers = (
{
layerId = "5D04EF83-1EDC-47E1-87A2-0FB57D789DB8";
name = Light;
paths = (
{
closed = 1;
nodes = (
"128 0 LINE SMOOTH",
"150 0 OFFCURVE",
"158 10 OFFCURVE",
"158 30 CURVE SMOOTH",
"158 537 LINE",
"538 17 LINE SMOOTH",
"548 3 OFFCURVE",
"554 0 OFFCURVE",
"569 0 CURVE SMOOTH",
"600 0 LINE SMOOTH",
"622 0 OFFCURVE",
"630 10 OFFCURVE",
"630 30 CURVE SMOOTH",
"630 650 LINE SMOOTH",
"630 670 OFFCURVE",
"622 680 OFFCURVE",
"600 680 CURVE SMOOTH",
"569 680 LINE SMOOTH",
"548 680 OFFCURVE",
"539 670 OFFCURVE",
"539 650 CURVE SMOOTH",
"539 142 LINE",
"160 663 LINE SMOOTH",
"150 677 OFFCURVE",
"144 680 OFFCURVE",
"128 680 CURVE SMOOTH",
"98 680 LINE SMOOTH",
"76 680 OFFCURVE",
"67 670 OFFCURVE",
"67 650 CURVE SMOOTH",
"67 30 LINE SMOOTH",
"67 10 OFFCURVE",
"76 0 OFFCURVE",
"97 0 CURVE SMOOTH"
);
},
{
closed = 1;
nodes = (
"484 -147 LINE SMOOTH",
"505 -147 OFFCURVE",
"514 -140 OFFCURVE",
"514 -120 CURVE SMOOTH",
"514 -107 LINE SMOOTH",
"514 -87 OFFCURVE",
"505 -78 OFFCURVE",
"484 -78 CURVE SMOOTH",
"215 -78 LINE SMOOTH",
"194 -78 OFFCURVE",
"186 -87 OFFCURVE",
"186 -107 CURVE SMOOTH",
"186 -120 LINE SMOOTH",
"186 -140 OFFCURVE",
"194 -147 OFFCURVE",
"215 -147 CURVE SMOOTH"
);
}
);
width = 697;
}
);
note = Nlinebelow;
unicode = 1E48;
},
{
glyphname = Ntilde;
lastChange = "2015-07-18 10:08:22 +0000";
layers = (
{
layerId = "5D04EF83-1EDC-47E1-87A2-0FB57D789DB8";
name = Light;
paths = (
{
closed = 1;
nodes = (
"128 0 LINE SMOOTH",
"150 0 OFFCURVE",
"158 10 OFFCURVE",
"158 30 CURVE SMOOTH",
"158 537 LINE",
"538 17 LINE SMOOTH",
"548 3 OFFCURVE",
"554 0 OFFCURVE",
"569 0 CURVE SMOOTH",
"600 0 LINE SMOOTH",
"622 0 OFFCURVE",
"630 10 OFFCURVE",
"630 30 CURVE SMOOTH",
"630 650 LINE SMOOTH",
"630 670 OFFCURVE",
"622 680 OFFCURVE",
"600 680 CURVE SMOOTH",
"569 680 LINE SMOOTH",
"548 680 OFFCURVE",
"539 670 OFFCURVE",
"539 650 CURVE SMOOTH",
"539 142 LINE",
"160 663 LINE SMOOTH",
"150 677 OFFCURVE",
"144 680 OFFCURVE",
"128 680 CURVE SMOOTH",
"98 680 LINE SMOOTH",
"76 680 OFFCURVE",
"67 670 OFFCURVE",
"67 650 CURVE SMOOTH",
"67 30 LINE SMOOTH",
"67 10 OFFCURVE",
"76 0 OFFCURVE",
"97 0 CURVE SMOOTH"
);
},
{
closed = 1;
nodes = (
"504 769 OFFCURVE",
"534 790 OFFCURVE",
"563 833 CURVE SMOOTH",
"575 851 OFFCURVE",
"574 862 OFFCURVE",
"554 878 CURVE SMOOTH",
"535 894 OFFCURVE",
"522 894 OFFCURVE",
"511 879 CURVE SMOOTH",
"489 850 OFFCURVE",
"474 841 OFFCURVE",
"446 841 CURVE SMOOTH",
"384 841 OFFCURVE",
"341 894 OFFCURVE",
"259 894 CURVE SMOOTH",
"212 894 OFFCURVE",
"183 867 OFFCURVE",
"160 840 CURVE SMOOTH",
"147 825 OFFCURVE",
"147 812 OFFCURVE",
"161 798 CURVE SMOOTH",
"179 780 OFFCURVE",
"193 778 OFFCURVE",
"204 791 CURVE",
"224 813 OFFCURVE",
"234 823 OFFCURVE",
"263 823 CURVE SMOOTH",
"318 823 OFFCURVE",
"377 769 OFFCURVE",
"446 769 CURVE SMOOTH"
);
}
);
width = 697;
}
);
note = Ntilde;
unicode = 00D1;
},
{
glyphname = O;
lastChange = "2015-07-18 10:08:20 +0000";
layers = (
{
layerId = "5D04EF83-1EDC-47E1-87A2-0FB57D789DB8";
name = Light;
paths = (
{
closed = 1;
nodes = (
"596 -15 OFFCURVE",
"718 116 OFFCURVE",
"718 340 CURVE SMOOTH",
"718 564 OFFCURVE",
"596 695 OFFCURVE",
"383 695 CURVE SMOOTH",
"169 695 OFFCURVE",
"47 564 OFFCURVE",
"47 340 CURVE SMOOTH",
"47 116 OFFCURVE",
"169 -15 OFFCURVE",
"383 -15 CURVE SMOOTH"
);
},
{
closed = 1;
nodes = (
"227 55 OFFCURVE",
"136 153 OFFCURVE",
"136 340 CURVE SMOOTH",
"136 527 OFFCURVE",
"227 625 OFFCURVE",
"383 625 CURVE SMOOTH",
"538 625 OFFCURVE",
"629 527 OFFCURVE",
"629 340 CURVE SMOOTH",
"629 153 OFFCURVE",
"538 55 OFFCURVE",
"383 55 CURVE SMOOTH"
);
}
);
width = 765;
}
);
note = O;
unicode = 004F;
},
{
glyphname = Oacute;
lastChange = "2015-07-18 10:08:20 +0000";
layers = (
{
layerId = "5D04EF83-1EDC-47E1-87A2-0FB57D789DB8";
name = Light;
paths = (
{
closed = 1;
nodes = (
"596 -15 OFFCURVE",
"718 116 OFFCURVE",
"718 340 CURVE SMOOTH",
"718 564 OFFCURVE",
"596 695 OFFCURVE",
"383 695 CURVE SMOOTH",
"169 695 OFFCURVE",
"47 564 OFFCURVE",
"47 340 CURVE SMOOTH",
"47 116 OFFCURVE",
"169 -15 OFFCURVE",
"383 -15 CURVE SMOOTH"
);
},
{
closed = 1;
nodes = (
"227 55 OFFCURVE",
"136 153 OFFCURVE",
"136 340 CURVE SMOOTH",
"136 527 OFFCURVE",
"227 625 OFFCURVE",
"383 625 CURVE SMOOTH",
"538 625 OFFCURVE",
"629 527 OFFCURVE",
"629 340 CURVE SMOOTH",
"629 153 OFFCURVE",
"538 55 OFFCURVE",
"383 55 CURVE SMOOTH"
);
},
{
closed = 1;
nodes = (
"393 759 LINE SMOOTH",
"411 759 OFFCURVE",
"418 763 OFFCURVE",
"424 776 CURVE SMOOTH",
"490 912 LINE SMOOTH",
"498 928 OFFCURVE",
"492 936 OFFCURVE",
"475 936 CURVE SMOOTH",
"424 936 LINE SMOOTH",
"405 936 OFFCURVE",
"400 931 OFFCURVE",
"395 917 CURVE SMOOTH",
"346 781 LINE SMOOTH",
"341 768 OFFCURVE",
"344 759 OFFCURVE",
"359 759 CURVE SMOOTH"
);
}
);
width = 765;
}
);
note = Oacute;
unicode = 00D3;
},
{
glyphname = Obreve;
lastChange = "2015-07-18 10:08:20 +0000";
layers = (
{
layerId = "5D04EF83-1EDC-47E1-87A2-0FB57D789DB8";
name = Light;
paths = (
{
closed = 1;
nodes = (
"596 -15 OFFCURVE",
"718 116 OFFCURVE",
"718 340 CURVE SMOOTH",
"718 564 OFFCURVE",
"596 695 OFFCURVE",
"383 695 CURVE SMOOTH",
"169 695 OFFCURVE",
"47 564 OFFCURVE",
"47 340 CURVE SMOOTH",
"47 116 OFFCURVE",
"169 -15 OFFCURVE",
"383 -15 CURVE SMOOTH"
);
},
{
closed = 1;
nodes = (
"227 55 OFFCURVE",
"136 153 OFFCURVE",
"136 340 CURVE SMOOTH",
"136 527 OFFCURVE",
"227 625 OFFCURVE",
"383 625 CURVE SMOOTH",
"538 625 OFFCURVE",
"629 527 OFFCURVE",
"629 340 CURVE SMOOTH",
"629 153 OFFCURVE",
"538 55 OFFCURVE",
"383 55 CURVE SMOOTH"
);
},
{
closed = 1;
nodes = (
"487 750 OFFCURVE",
"536 816 OFFCURVE",
"536 908 CURVE SMOOTH",
"536 919 OFFCURVE",
"530 926 OFFCURVE",
"520 926 CURVE SMOOTH",
"475 926 LINE SMOOTH",
"461 926 OFFCURVE",
"458 919 OFFCURVE",
"458 907 CURVE SMOOTH",
"458 857 OFFCURVE",
"444 819 OFFCURVE",
"383 819 CURVE SMOOTH",
"322 819 OFFCURVE",
"308 857 OFFCURVE",
"308 907 CURVE SMOOTH",
"308 919 OFFCURVE",
"305 926 OFFCURVE",
"291 926 CURVE SMOOTH",
"246 926 LINE SMOOTH",
"236 926 OFFCURVE",
"230 919 OFFCURVE",
"230 908 CURVE SMOOTH",
"230 816 OFFCURVE",
"278 750 OFFCURVE",
"383 750 CURVE SMOOTH"
);
}
);
width = 765;
}
);
note = Obreve;
unicode = 014E;
},
{
glyphname = Ocaron;
lastChange = "2015-07-18 10:08:22 +0000";
layers = (
{
layerId = "5D04EF83-1EDC-47E1-87A2-0FB57D789DB8";
name = Light;
paths = (
{
closed = 1;
nodes = (
"596 -15 OFFCURVE",
"718 116 OFFCURVE",
"718 340 CURVE SMOOTH",
"718 564 OFFCURVE",
"596 695 OFFCURVE",
"383 695 CURVE SMOOTH",
"169 695 OFFCURVE",
"47 564 OFFCURVE",
"47 340 CURVE SMOOTH",
"47 116 OFFCURVE",
"169 -15 OFFCURVE",
"383 -15 CURVE SMOOTH"
);
},
{
closed = 1;
nodes = (
"227 55 OFFCURVE",
"136 153 OFFCURVE",
"136 340 CURVE SMOOTH",
"136 527 OFFCURVE",
"227 625 OFFCURVE",
"383 625 CURVE SMOOTH",
"538 625 OFFCURVE",
"629 527 OFFCURVE",
"629 340 CURVE SMOOTH",
"629 153 OFFCURVE",
"538 55 OFFCURVE",
"383 55 CURVE SMOOTH"
);
},
{
closed = 1;
nodes = (
"400 744 LINE SMOOTH",
"418 744 OFFCURVE",
"421 750 OFFCURVE",
"431 763 CURVE SMOOTH",
"539 912 LINE SMOOTH",
"549 925 OFFCURVE",
"546 937 OFFCURVE",
"531 937 CURVE SMOOTH",
"491 937 LINE SMOOTH",
"471 937 OFFCURVE",
"468 933 OFFCURVE",
"460 921 CURVE SMOOTH",
"383 807 LINE",
"305 921 LINE SMOOTH",
"297 933 OFFCURVE",
"294 937 OFFCURVE",
"274 937 CURVE SMOOTH",
"234 937 LINE SMOOTH",
"219 937 OFFCURVE",
"217 926 OFFCURVE",
"227 912 CURVE SMOOTH",
"335 763 LINE SMOOTH",
"345 750 OFFCURVE",
"348 744 OFFCURVE",
"366 744 CURVE SMOOTH"
);
}
);
width = 765;
}
);
note = Ocaron;
unicode = 01D1;
},
{
glyphname = Ocircumflex;
lastChange = "2015-07-18 10:08:20 +0000";
layers = (
{
layerId = "5D04EF83-1EDC-47E1-87A2-0FB57D789DB8";
name = Light;
paths = (
{
closed = 1;
nodes = (
"596 -15 OFFCURVE",
"718 116 OFFCURVE",
"718 340 CURVE SMOOTH",
"718 564 OFFCURVE",
"596 695 OFFCURVE",
"383 695 CURVE SMOOTH",
"169 695 OFFCURVE",
"47 564 OFFCURVE",
"47 340 CURVE SMOOTH",
"47 116 OFFCURVE",
"169 -15 OFFCURVE",
"383 -15 CURVE SMOOTH"
);
},
{
closed = 1;
nodes = (
"227 55 OFFCURVE",
"136 153 OFFCURVE",
"136 340 CURVE SMOOTH",
"136 527 OFFCURVE",
"227 625 OFFCURVE",
"383 625 CURVE SMOOTH",
"538 625 OFFCURVE",
"629 527 OFFCURVE",
"629 340 CURVE SMOOTH",
"629 153 OFFCURVE",
"538 55 OFFCURVE",
"383 55 CURVE SMOOTH"
);
},
{
closed = 1;
nodes = (
"273 754 LINE SMOOTH",
"293 754 OFFCURVE",
"298 761 OFFCURVE",
"306 773 CURVE SMOOTH",
"382 884 LINE",
"458 773 LINE SMOOTH",
"466 761 OFFCURVE",
"471 754 OFFCURVE",
"491 754 CURVE SMOOTH",
"524 754 LINE SMOOTH",
"539 754 OFFCURVE",
"548 765 OFFCURVE",
"538 779 CURVE SMOOTH",
"430 928 LINE SMOOTH",
"420 941 OFFCURVE",
"417 947 OFFCURVE",
"399 947 CURVE SMOOTH",
"365 947 LINE SMOOTH",
"347 947 OFFCURVE",
"344 941 OFFCURVE",
"334 928 CURVE SMOOTH",
"226 779 LINE SMOOTH",
"216 765 OFFCURVE",
"225 754 OFFCURVE",
"240 754 CURVE SMOOTH"
);
}
);
width = 765;
}
);
note = Ocircumflex;
unicode = 00D4;
},
{
glyphname = Ocircumflexacute;
lastChange = "2015-07-18 10:08:21 +0000";
layers = (
{
layerId = "5D04EF83-1EDC-47E1-87A2-0FB57D789DB8";
name = Light;
paths = (
{
closed = 1;
nodes = (
"596 -15 OFFCURVE",
"718 116 OFFCURVE",
"718 340 CURVE SMOOTH",
"718 564 OFFCURVE",
"596 695 OFFCURVE",
"383 695 CURVE SMOOTH",
"169 695 OFFCURVE",
"47 564 OFFCURVE",
"47 340 CURVE SMOOTH",
"47 116 OFFCURVE",
"169 -15 OFFCURVE",
"383 -15 CURVE SMOOTH"
);
},
{
closed = 1;
nodes = (
"227 55 OFFCURVE",
"136 153 OFFCURVE",
"136 340 CURVE SMOOTH",
"136 527 OFFCURVE",
"227 625 OFFCURVE",
"383 625 CURVE SMOOTH",
"538 625 OFFCURVE",
"629 527 OFFCURVE",
"629 340 CURVE SMOOTH",
"629 153 OFFCURVE",
"538 55 OFFCURVE",
"383 55 CURVE SMOOTH"
);
},
{
closed = 1;
nodes = (
"278 741 LINE SMOOTH",
"295 741 OFFCURVE",
"300 743 OFFCURVE",
"309 756 CURVE",
"384 846 LINE",
"459 756 LINE SMOOTH",
"469 744 OFFCURVE",
"473 741 OFFCURVE",
"490 741 CURVE SMOOTH",
"522 741 LINE SMOOTH",
"538 741 OFFCURVE",
"545 753 OFFCURVE",
"534 766 CURVE SMOOTH",
"430 891 LINE",
"420 904 OFFCURVE",
"414 910 OFFCURVE",
"397 910 CURVE SMOOTH",
"371 910 LINE SMOOTH",
"354 910 OFFCURVE",
"348 904 OFFCURVE",
"338 891 CURVE",
"234 766 LINE SMOOTH",
"223 753 OFFCURVE",
"230 741 OFFCURVE",
"246 741 CURVE SMOOTH"
);
},
{
closed = 1;
nodes = (
"517 859 LINE SMOOTH",
"534 859 OFFCURVE",
"540 862 OFFCURVE",
"547 875 CURVE SMOOTH",
"599 977 LINE SMOOTH",
"607 992 OFFCURVE",
"602 1001 OFFCURVE",
"586 1001 CURVE SMOOTH",
"547 1001 LINE SMOOTH",
"529 1001 OFFCURVE",
"524 996 OFFCURVE",
"519 982 CURVE SMOOTH",
"482 879 LINE SMOOTH",
"478 867 OFFCURVE",
"481 859 OFFCURVE",
"495 859 CURVE SMOOTH"
);
}
);
width = 765;
}
);
note = Ocircumflexacute;
unicode = 1ED0;
},
{
glyphname = Ocircumflexdotbelow;
lastChange = "2015-07-18 10:08:22 +0000";
layers = (
{
layerId = "5D04EF83-1EDC-47E1-87A2-0FB57D789DB8";
name = Light;
paths = (
{
closed = 1;
nodes = (
"596 -15 OFFCURVE",
"718 116 OFFCURVE",
"718 340 CURVE SMOOTH",
"718 564 OFFCURVE",
"596 695 OFFCURVE",
"383 695 CURVE SMOOTH",
"169 695 OFFCURVE",
"47 564 OFFCURVE",
"47 340 CURVE SMOOTH",
"47 116 OFFCURVE",
"169 -15 OFFCURVE",
"383 -15 CURVE SMOOTH"
);
},
{
closed = 1;
nodes = (
"390 -172 LINE SMOOTH",
"415 -172 OFFCURVE",
"430 -153 OFFCURVE",
"430 -130 CURVE SMOOTH",
"430 -114 LINE SMOOTH",
"430 -91 OFFCURVE",
"414 -72 OFFCURVE",
"390 -72 CURVE SMOOTH",
"373 -72 LINE SMOOTH",
"350 -72 OFFCURVE",
"333 -91 OFFCURVE",
"333 -114 CURVE SMOOTH",
"333 -130 LINE SMOOTH",
"333 -153 OFFCURVE",
"350 -172 OFFCURVE",
"373 -172 CURVE SMOOTH"
);
},
{
closed = 1;
nodes = (
"227 55 OFFCURVE",
"136 153 OFFCURVE",
"136 340 CURVE SMOOTH",
"136 527 OFFCURVE",
"227 625 OFFCURVE",
"383 625 CURVE SMOOTH",
"538 625 OFFCURVE",
"629 527 OFFCURVE",
"629 340 CURVE SMOOTH",
"629 153 OFFCURVE",
"538 55 OFFCURVE",
"383 55 CURVE SMOOTH"
);
},
{
closed = 1;
nodes = (
"273 742 LINE SMOOTH",
"293 742 OFFCURVE",
"298 749 OFFCURVE",
"306 761 CURVE SMOOTH",
"382 872 LINE",
"458 761 LINE SMOOTH",
"466 749 OFFCURVE",
"471 742 OFFCURVE",
"491 742 CURVE SMOOTH",
"524 742 LINE SMOOTH",
"539 742 OFFCURVE",
"548 753 OFFCURVE",
"538 767 CURVE SMOOTH",
"430 916 LINE SMOOTH",
"420 929 OFFCURVE",
"417 935 OFFCURVE",
"399 935 CURVE SMOOTH",
"365 935 LINE SMOOTH",
"347 935 OFFCURVE",
"344 929 OFFCURVE",
"334 916 CURVE SMOOTH",
"226 767 LINE SMOOTH",
"216 753 OFFCURVE",
"225 742 OFFCURVE",
"240 742 CURVE SMOOTH"
);
}
);
width = 765;
}
);
note = Ocircumflexdotbelow;
unicode = 1ED8;
},
{
glyphname = Ocircumflexgrave;
lastChange = "2015-07-18 10:08:20 +0000";
layers = (
{
layerId = "5D04EF83-1EDC-47E1-87A2-0FB57D789DB8";
name = Light;
paths = (
{
closed = 1;
nodes = (
"596 -15 OFFCURVE",
"718 116 OFFCURVE",
"718 340 CURVE SMOOTH",
"718 564 OFFCURVE",
"596 695 OFFCURVE",
"383 695 CURVE SMOOTH",
"169 695 OFFCURVE",
"47 564 OFFCURVE",
"47 340 CURVE SMOOTH",
"47 116 OFFCURVE",
"169 -15 OFFCURVE",
"383 -15 CURVE SMOOTH"
);
},
{
closed = 1;
nodes = (
"227 55 OFFCURVE",
"136 153 OFFCURVE",
"136 340 CURVE SMOOTH",
"136 527 OFFCURVE",
"227 625 OFFCURVE",
"383 625 CURVE SMOOTH",
"538 625 OFFCURVE",
"629 527 OFFCURVE",
"629 340 CURVE SMOOTH",
"629 153 OFFCURVE",
"538 55 OFFCURVE",
"383 55 CURVE SMOOTH"
);
},
{
closed = 1;
nodes = (
"272 859 LINE SMOOTH",
"286 859 OFFCURVE",
"289 867 OFFCURVE",
"285 879 CURVE SMOOTH",
"248 982 LINE SMOOTH",
"243 996 OFFCURVE",
"238 1001 OFFCURVE",
"220 1001 CURVE SMOOTH",
"181 1001 LINE SMOOTH",
"165 1001 OFFCURVE",
"160 992 OFFCURVE",
"168 977 CURVE SMOOTH",
"220 875 LINE SMOOTH",
"227 862 OFFCURVE",
"233 859 OFFCURVE",
"250 859 CURVE SMOOTH"
);
},
{
closed = 1;
nodes = (
"277 741 LINE SMOOTH",
"294 741 OFFCURVE",
"298 744 OFFCURVE",
"308 756 CURVE SMOOTH",
"383 846 LINE",
"458 756 LINE",
"467 743 OFFCURVE",
"472 741 OFFCURVE",
"489 741 CURVE SMOOTH",
"521 741 LINE SMOOTH",
"537 741 OFFCURVE",
"544 753 OFFCURVE",
"533 766 CURVE SMOOTH",
"429 891 LINE",
"419 904 OFFCURVE",
"413 910 OFFCURVE",
"396 910 CURVE SMOOTH",
"370 910 LINE SMOOTH",
"353 910 OFFCURVE",
"347 904 OFFCURVE",
"337 891 CURVE",
"233 766 LINE SMOOTH",
"222 753 OFFCURVE",
"229 741 OFFCURVE",
"245 741 CURVE SMOOTH"
);
}
);
width = 765;
}
);
note = Ocircumflexgrave;
unicode = 1ED2;
},
{
glyphname = Ocircumflexhookabove;
lastChange = "2015-07-18 10:08:21 +0000";
layers = (
{
layerId = "5D04EF83-1EDC-47E1-87A2-0FB57D789DB8";
name = Light;
paths = (
{
closed = 1;
nodes = (
"596 -15 OFFCURVE",
"718 116 OFFCURVE",
"718 340 CURVE SMOOTH",
"718 564 OFFCURVE",
"596 695 OFFCURVE",
"383 695 CURVE SMOOTH",
"169 695 OFFCURVE",
"47 564 OFFCURVE",
"47 340 CURVE SMOOTH",
"47 116 OFFCURVE",
"169 -15 OFFCURVE",
"383 -15 CURVE SMOOTH"
);
},
{
closed = 1;
nodes = (
"227 55 OFFCURVE",
"136 153 OFFCURVE",
"136 340 CURVE SMOOTH",
"136 527 OFFCURVE",
"227 625 OFFCURVE",
"383 625 CURVE SMOOTH",
"538 625 OFFCURVE",
"629 527 OFFCURVE",
"629 340 CURVE SMOOTH",
"629 153 OFFCURVE",
"538 55 OFFCURVE",
"383 55 CURVE SMOOTH"
);
},
{
closed = 1;
nodes = (
"278 741 LINE SMOOTH",
"295 741 OFFCURVE",
"300 743 OFFCURVE",
"309 756 CURVE",
"384 846 LINE",
"459 756 LINE SMOOTH",
"469 744 OFFCURVE",
"473 741 OFFCURVE",
"490 741 CURVE SMOOTH",
"522 741 LINE SMOOTH",
"538 741 OFFCURVE",
"545 753 OFFCURVE",
"534 766 CURVE SMOOTH",
"430 891 LINE",
"420 904 OFFCURVE",
"414 910 OFFCURVE",
"397 910 CURVE SMOOTH",
"371 910 LINE SMOOTH",
"354 910 OFFCURVE",
"348 904 OFFCURVE",
"338 891 CURVE",
"234 766 LINE SMOOTH",
"223 753 OFFCURVE",
"230 741 OFFCURVE",
"246 741 CURVE SMOOTH"
);
},
{
closed = 1;
nodes = (
"527 849 LINE SMOOTH",
"541 849 OFFCURVE",
"548 857 OFFCURVE",
"548 871 CURVE SMOOTH",
"548 883 LINE",
"587 883 OFFCURVE",
"624 907 OFFCURVE",
"624 957 CURVE SMOOTH",
"624 1005 OFFCURVE",
"591 1032 OFFCURVE",
"528 1032 CURVE SMOOTH",
"498 1032 OFFCURVE",
"464 1024 OFFCURVE",
"444 1012 CURVE",
"440 1009 OFFCURVE",
"439 1007 OFFCURVE",
"441 1002 CURVE",
"457 970 LINE SMOOTH",
"459 966 OFFCURVE",
"461 966 OFFCURVE",
"465 968 CURVE",
"480 977 OFFCURVE",
"501 982 OFFCURVE",
"521 982 CURVE SMOOTH",
"547 982 OFFCURVE",
"560 974 OFFCURVE",
"560 956 CURVE SMOOTH",
"560 934 OFFCURVE",
"550 926 OFFCURVE",
"517 926 CURVE SMOOTH",
"495 926 OFFCURVE",
"484 916 OFFCURVE",
"484 896 CURVE SMOOTH",
"484 871 LINE SMOOTH",
"484 857 OFFCURVE",
"491 849 OFFCURVE",
"506 849 CURVE SMOOTH"
);
}
);
width = 765;
}
);
note = Ocircumflexhookabove;
unicode = 1ED4;
},
{
glyphname = Ocircumflextilde;
lastChange = "2015-07-18 10:08:21 +0000";
layers = (
{
layerId = "5D04EF83-1EDC-47E1-87A2-0FB57D789DB8";
name = Light;
paths = (
{
closed = 1;
nodes = (
"596 -15 OFFCURVE",
"718 116 OFFCURVE",
"718 340 CURVE SMOOTH",
"718 564 OFFCURVE",
"596 695 OFFCURVE",
"383 695 CURVE SMOOTH",
"169 695 OFFCURVE",
"47 564 OFFCURVE",
"47 340 CURVE SMOOTH",
"47 116 OFFCURVE",
"169 -15 OFFCURVE",
"383 -15 CURVE SMOOTH"
);
},
{
closed = 1;
nodes = (
"227 55 OFFCURVE",
"136 153 OFFCURVE",
"136 340 CURVE SMOOTH",
"136 527 OFFCURVE",
"227 625 OFFCURVE",
"383 625 CURVE SMOOTH",
"538 625 OFFCURVE",
"629 527 OFFCURVE",
"629 340 CURVE SMOOTH",
"629 153 OFFCURVE",
"538 55 OFFCURVE",
"383 55 CURVE SMOOTH"
);
},
{
closed = 1;
nodes = (
"467 745 OFFCURVE",
"536 785 OFFCURVE",
"536 877 CURVE SMOOTH",
"536 888 OFFCURVE",
"530 895 OFFCURVE",
"520 895 CURVE SMOOTH",
"475 895 LINE SMOOTH",
"461 895 OFFCURVE",
"458 888 OFFCURVE",
"458 876 CURVE SMOOTH",
"458 826 OFFCURVE",
"434 814 OFFCURVE",
"383 814 CURVE SMOOTH",
"332 814 OFFCURVE",
"308 826 OFFCURVE",
"308 876 CURVE SMOOTH",
"308 888 OFFCURVE",
"305 895 OFFCURVE",
"291 895 CURVE SMOOTH",
"246 895 LINE SMOOTH",
"236 895 OFFCURVE",
"230 888 OFFCURVE",
"230 877 CURVE SMOOTH",
"230 785 OFFCURVE",
"298 745 OFFCURVE",
"383 745 CURVE SMOOTH"
);
},
{
closed = 1;
nodes = (
"481 920 OFFCURVE",
"513 939 OFFCURVE",
"538 972 CURVE SMOOTH",
"551 989 OFFCURVE",
"552 998 OFFCURVE",
"535 1011 CURVE SMOOTH",
"515 1027 OFFCURVE",
"507 1026 OFFCURVE",
"495 1010 CURVE SMOOTH",
"480 989 OFFCURVE",
"467 980 OFFCURVE",
"441 980 CURVE SMOOTH",
"393 980 OFFCURVE",
"379 1027 OFFCURVE",
"309 1027 CURVE SMOOTH",
"268 1027 OFFCURVE",
"235 1006 OFFCURVE",
"211 973 CURVE SMOOTH",
"198 956 OFFCURVE",
"207 947 OFFCURVE",
"216 939 CURVE SMOOTH",
"233 924 OFFCURVE",
"245 921 OFFCURVE",
"256 935 CURVE SMOOTH",
"271 954 OFFCURVE",
"284 967 OFFCURVE",
"311 967 CURVE SMOOTH",
"357 967 OFFCURVE",
"379 920 OFFCURVE",
"440 920 CURVE SMOOTH"
);
}
);
width = 765;
}
);
note = Ocircumflextilde;
unicode = 1ED6;
},
{
glyphname = Odieresis;
lastChange = "2015-07-18 10:08:21 +0000";
layers = (
{
layerId = "5D04EF83-1EDC-47E1-87A2-0FB57D789DB8";
name = Light;
paths = (
{
closed = 1;
nodes = (
"596 -15 OFFCURVE",
"718 116 OFFCURVE",
"718 340 CURVE SMOOTH",
"718 564 OFFCURVE",
"596 695 OFFCURVE",
"383 695 CURVE SMOOTH",
"169 695 OFFCURVE",
"47 564 OFFCURVE",
"47 340 CURVE SMOOTH",
"47 116 OFFCURVE",
"169 -15 OFFCURVE",
"383 -15 CURVE SMOOTH"
);
},
{
closed = 1;
nodes = (
"227 55 OFFCURVE",
"136 153 OFFCURVE",
"136 340 CURVE SMOOTH",
"136 527 OFFCURVE",
"227 625 OFFCURVE",
"383 625 CURVE SMOOTH",
"538 625 OFFCURVE",
"629 527 OFFCURVE",
"629 340 CURVE SMOOTH",
"629 153 OFFCURVE",
"538 55 OFFCURVE",
"383 55 CURVE SMOOTH"
);
},
{
closed = 1;
nodes = (
"296 752 LINE SMOOTH",
"320 752 OFFCURVE",
"336 771 OFFCURVE",
"336 794 CURVE SMOOTH",
"336 810 LINE SMOOTH",
"336 833 OFFCURVE",
"319 852 OFFCURVE",
"296 852 CURVE SMOOTH",
"279 852 LINE SMOOTH",
"255 852 OFFCURVE",
"239 833 OFFCURVE",
"239 810 CURVE SMOOTH",
"239 794 LINE SMOOTH",
"239 771 OFFCURVE",
"255 752 OFFCURVE",
"279 752 CURVE SMOOTH"
);
},
{
closed = 1;
nodes = (
"484 752 LINE SMOOTH",
"509 752 OFFCURVE",
"524 771 OFFCURVE",
"524 794 CURVE SMOOTH",
"524 810 LINE SMOOTH",
"524 833 OFFCURVE",
"508 852 OFFCURVE",
"484 852 CURVE SMOOTH",
"467 852 LINE SMOOTH",
"444 852 OFFCURVE",
"427 833 OFFCURVE",
"427 810 CURVE SMOOTH",
"427 794 LINE SMOOTH",
"427 771 OFFCURVE",
"444 752 OFFCURVE",
"467 752 CURVE SMOOTH"
);
}
);
width = 765;
}
);
note = Odieresis;
unicode = 00D6;
},
{
glyphname = Odotbelow;
lastChange = "2015-07-18 10:08:22 +0000";
layers = (
{
layerId = "5D04EF83-1EDC-47E1-87A2-0FB57D789DB8";
name = Light;
paths = (
{
closed = 1;
nodes = (
"596 -15 OFFCURVE",
"718 116 OFFCURVE",
"718 340 CURVE SMOOTH",
"718 564 OFFCURVE",
"596 695 OFFCURVE",
"383 695 CURVE SMOOTH",
"169 695 OFFCURVE",
"47 564 OFFCURVE",
"47 340 CURVE SMOOTH",
"47 116 OFFCURVE",
"169 -15 OFFCURVE",
"383 -15 CURVE SMOOTH"
);
},
{
closed = 1;
nodes = (
"390 -172 LINE SMOOTH",
"415 -172 OFFCURVE",
"430 -153 OFFCURVE",
"430 -130 CURVE SMOOTH",
"430 -114 LINE SMOOTH",
"430 -91 OFFCURVE",
"414 -72 OFFCURVE",
"390 -72 CURVE SMOOTH",
"373 -72 LINE SMOOTH",
"350 -72 OFFCURVE",
"333 -91 OFFCURVE",
"333 -114 CURVE SMOOTH",
"333 -130 LINE SMOOTH",
"333 -153 OFFCURVE",
"350 -172 OFFCURVE",
"373 -172 CURVE SMOOTH"
);
},
{
closed = 1;
nodes = (
"227 55 OFFCURVE",
"136 153 OFFCURVE",
"136 340 CURVE SMOOTH",
"136 527 OFFCURVE",
"227 625 OFFCURVE",
"383 625 CURVE SMOOTH",
"538 625 OFFCURVE",
"629 527 OFFCURVE",
"629 340 CURVE SMOOTH",
"629 153 OFFCURVE",
"538 55 OFFCURVE",
"383 55 CURVE SMOOTH"
);
}
);
width = 765;
}
);
note = Odotbelow;
unicode = 1ECC;
},
{
glyphname = Ograve;
lastChange = "2015-07-18 10:08:21 +0000";
layers = (
{
layerId = "5D04EF83-1EDC-47E1-87A2-0FB57D789DB8";
name = Light;
paths = (
{
closed = 1;
nodes = (
"596 -15 OFFCURVE",
"718 116 OFFCURVE",
"718 340 CURVE SMOOTH",
"718 564 OFFCURVE",
"596 695 OFFCURVE",
"383 695 CURVE SMOOTH",
"169 695 OFFCURVE",
"47 564 OFFCURVE",
"47 340 CURVE SMOOTH",
"47 116 OFFCURVE",
"169 -15 OFFCURVE",
"383 -15 CURVE SMOOTH"
);
},
{
closed = 1;
nodes = (
"227 55 OFFCURVE",
"136 153 OFFCURVE",
"136 340 CURVE SMOOTH",
"136 527 OFFCURVE",
"227 625 OFFCURVE",
"383 625 CURVE SMOOTH",
"538 625 OFFCURVE",
"629 527 OFFCURVE",
"629 340 CURVE SMOOTH",
"629 153 OFFCURVE",
"538 55 OFFCURVE",
"383 55 CURVE SMOOTH"
);
},
{
closed = 1;
nodes = (
"419 759 LINE SMOOTH",
"434 759 OFFCURVE",
"438 768 OFFCURVE",
"433 781 CURVE SMOOTH",
"383 917 LINE SMOOTH",
"378 932 OFFCURVE",
"374 936 OFFCURVE",
"354 936 CURVE SMOOTH",
"304 936 LINE SMOOTH",
"287 936 OFFCURVE",
"280 928 OFFCURVE",
"288 912 CURVE SMOOTH",
"355 776 LINE SMOOTH",
"361 763 OFFCURVE",
"367 759 OFFCURVE",
"385 759 CURVE SMOOTH"
);
}
);
width = 765;
}
);
note = Ograve;
unicode = 00D2;
},
{
glyphname = Ohookabove;
lastChange = "2015-07-18 10:08:21 +0000";
layers = (
{
layerId = "5D04EF83-1EDC-47E1-87A2-0FB57D789DB8";
name = Light;
paths = (
{
closed = 1;
nodes = (
"596 -15 OFFCURVE",
"718 116 OFFCURVE",
"718 340 CURVE SMOOTH",
"718 564 OFFCURVE",
"596 695 OFFCURVE",
"383 695 CURVE SMOOTH",
"169 695 OFFCURVE",
"47 564 OFFCURVE",
"47 340 CURVE SMOOTH",
"47 116 OFFCURVE",
"169 -15 OFFCURVE",
"383 -15 CURVE SMOOTH"
);
},
{
closed = 1;
nodes = (
"227 55 OFFCURVE",
"136 153 OFFCURVE",
"136 340 CURVE SMOOTH",
"136 527 OFFCURVE",
"227 625 OFFCURVE",
"383 625 CURVE SMOOTH",
"538 625 OFFCURVE",
"629 527 OFFCURVE",
"629 340 CURVE SMOOTH",
"629 153 OFFCURVE",
"538 55 OFFCURVE",
"383 55 CURVE SMOOTH"
);
},
{
closed = 1;
nodes = (
"395 734 LINE SMOOTH",
"411 734 OFFCURVE",
"418 742 OFFCURVE",
"418 757 CURVE SMOOTH",
"418 782 LINE",
"470 782 OFFCURVE",
"519 815 OFFCURVE",
"519 875 CURVE SMOOTH",
"519 932 OFFCURVE",
"479 969 OFFCURVE",
"393 969 CURVE SMOOTH",
"354 969 OFFCURVE",
"311 959 OFFCURVE",
"285 942 CURVE",
"280 939 OFFCURVE",
"280 937 OFFCURVE",
"282 932 CURVE",
"299 894 LINE",
"301 890 OFFCURVE",
"304 890 OFFCURVE",
"308 892 CURVE SMOOTH",
"334 905 OFFCURVE",
"357 912 OFFCURVE",
"387 912 CURVE SMOOTH",
"428 912 OFFCURVE",
"448 900 OFFCURVE",
"448 873 CURVE SMOOTH",
"448 843 OFFCURVE",
"432 830 OFFCURVE",
"382 830 CURVE SMOOTH",
"358 830 OFFCURVE",
"347 819 OFFCURVE",
"347 799 CURVE SMOOTH",
"347 757 LINE SMOOTH",
"347 742 OFFCURVE",
"354 734 OFFCURVE",
"370 734 CURVE SMOOTH"
);
}
);
width = 765;
}
);
note = Ohookabove;
unicode = 1ECE;
},
{
glyphname = Ohorn;
lastChange = "2015-07-18 10:08:22 +0000";
layers = (
{
layerId = "5D04EF83-1EDC-47E1-87A2-0FB57D789DB8";
name = Light;
paths = (
{
closed = 1;
nodes = (
"596 -15 OFFCURVE",
"718 116 OFFCURVE",
"718 340 CURVE SMOOTH",
"718 424 OFFCURVE",
"700 494 OFFCURVE",
"668 549 CURVE",
"741 568 OFFCURVE",
"782 626 OFFCURVE",
"782 727 CURVE SMOOTH",
"782 742 OFFCURVE",
"776 749 OFFCURVE",
"763 749 CURVE SMOOTH",
"718 749 LINE SMOOTH",
"703 749 OFFCURVE",
"699 742 OFFCURVE",
"699 726 CURVE SMOOTH",
"699 647 OFFCURVE",
"674 617 OFFCURVE",
"616 615 CURVE",
"560 667 OFFCURVE",
"481 695 OFFCURVE",
"383 695 CURVE SMOOTH",
"169 695 OFFCURVE",
"47 564 OFFCURVE",
"47 340 CURVE SMOOTH",
"47 116 OFFCURVE",
"169 -15 OFFCURVE",
"383 -15 CURVE SMOOTH"
);
},
{
closed = 1;
nodes = (
"227 55 OFFCURVE",
"136 153 OFFCURVE",
"136 340 CURVE SMOOTH",
"136 527 OFFCURVE",
"227 625 OFFCURVE",
"383 625 CURVE SMOOTH",
"538 625 OFFCURVE",
"629 527 OFFCURVE",
"629 340 CURVE SMOOTH",
"629 153 OFFCURVE",
"538 55 OFFCURVE",
"383 55 CURVE SMOOTH"
);
}
);
width = 799;
}
);
note = Ohorn;
unicode = 01A0;
},
{
glyphname = Ohornacute;
lastChange = "2015-07-18 10:08:22 +0000";
layers = (
{
layerId = "5D04EF83-1EDC-47E1-87A2-0FB57D789DB8";
name = Light;
paths = (
{
closed = 1;
nodes = (
"596 -15 OFFCURVE",
"718 116 OFFCURVE",
"718 340 CURVE SMOOTH",
"718 424 OFFCURVE",
"700 494 OFFCURVE",
"668 549 CURVE",
"741 568 OFFCURVE",
"782 626 OFFCURVE",
"782 727 CURVE SMOOTH",
"782 742 OFFCURVE",
"776 749 OFFCURVE",
"763 749 CURVE SMOOTH",
"718 749 LINE SMOOTH",
"703 749 OFFCURVE",
"699 742 OFFCURVE",
"699 726 CURVE SMOOTH",
"699 647 OFFCURVE",
"674 617 OFFCURVE",
"616 615 CURVE",
"560 667 OFFCURVE",
"481 695 OFFCURVE",
"383 695 CURVE SMOOTH",
"169 695 OFFCURVE",
"47 564 OFFCURVE",
"47 340 CURVE SMOOTH",
"47 116 OFFCURVE",
"169 -15 OFFCURVE",
"383 -15 CURVE SMOOTH"
);
},
{
closed = 1;
nodes = (
"227 55 OFFCURVE",
"136 153 OFFCURVE",
"136 340 CURVE SMOOTH",
"136 527 OFFCURVE",
"227 625 OFFCURVE",
"383 625 CURVE SMOOTH",
"538 625 OFFCURVE",
"629 527 OFFCURVE",
"629 340 CURVE SMOOTH",
"629 153 OFFCURVE",
"538 55 OFFCURVE",
"383 55 CURVE SMOOTH"
);
},
{
closed = 1;
nodes = (
"396 735 LINE SMOOTH",
"414 735 OFFCURVE",
"421 739 OFFCURVE",
"427 752 CURVE SMOOTH",
"493 888 LINE SMOOTH",
"501 904 OFFCURVE",
"495 912 OFFCURVE",
"478 912 CURVE SMOOTH",
"427 912 LINE SMOOTH",
"408 912 OFFCURVE",
"403 907 OFFCURVE",
"398 893 CURVE SMOOTH",
"349 757 LINE SMOOTH",
"344 744 OFFCURVE",
"347 735 OFFCURVE",
"362 735 CURVE SMOOTH"
);
}
);
width = 799;
}
);
note = Ohornacute;
unicode = 1EDA;
},
{
glyphname = Ohorndotbelow;
lastChange = "2015-07-18 10:08:20 +0000";
layers = (
{
layerId = "5D04EF83-1EDC-47E1-87A2-0FB57D789DB8";
name = Light;
paths = (
{
closed = 1;
nodes = (
"596 -15 OFFCURVE",
"718 116 OFFCURVE",
"718 340 CURVE SMOOTH",
"718 424 OFFCURVE",
"700 494 OFFCURVE",
"668 549 CURVE",
"741 568 OFFCURVE",
"782 626 OFFCURVE",
"782 727 CURVE SMOOTH",
"782 742 OFFCURVE",
"776 749 OFFCURVE",
"763 749 CURVE SMOOTH",
"718 749 LINE SMOOTH",
"703 749 OFFCURVE",
"699 742 OFFCURVE",
"699 726 CURVE SMOOTH",
"699 647 OFFCURVE",
"674 617 OFFCURVE",
"616 615 CURVE",
"560 667 OFFCURVE",
"481 695 OFFCURVE",
"383 695 CURVE SMOOTH",
"169 695 OFFCURVE",
"47 564 OFFCURVE",
"47 340 CURVE SMOOTH",
"47 116 OFFCURVE",
"169 -15 OFFCURVE",
"383 -15 CURVE SMOOTH"
);
},
{
closed = 1;
nodes = (
"390 -172 LINE SMOOTH",
"415 -172 OFFCURVE",
"430 -153 OFFCURVE",
"430 -130 CURVE SMOOTH",
"430 -114 LINE SMOOTH",
"430 -91 OFFCURVE",
"414 -72 OFFCURVE",
"390 -72 CURVE SMOOTH",
"373 -72 LINE SMOOTH",
"350 -72 OFFCURVE",
"333 -91 OFFCURVE",
"333 -114 CURVE SMOOTH",
"333 -130 LINE SMOOTH",
"333 -153 OFFCURVE",
"350 -172 OFFCURVE",
"373 -172 CURVE SMOOTH"
);
},
{
closed = 1;
nodes = (
"227 55 OFFCURVE",
"136 153 OFFCURVE",
"136 340 CURVE SMOOTH",
"136 527 OFFCURVE",
"227 625 OFFCURVE",
"383 625 CURVE SMOOTH",
"538 625 OFFCURVE",
"629 527 OFFCURVE",
"629 340 CURVE SMOOTH",
"629 153 OFFCURVE",
"538 55 OFFCURVE",
"383 55 CURVE SMOOTH"
);
}
);
width = 799;
}
);
note = Ohorndotbelow;
unicode = 1EE2;
},
{
glyphname = Ohorngrave;
lastChange = "2015-07-18 10:08:22 +0000";
layers = (
{
layerId = "5D04EF83-1EDC-47E1-87A2-0FB57D789DB8";
name = Light;
paths = (
{
closed = 1;
nodes = (
"596 -15 OFFCURVE",
"718 116 OFFCURVE",
"718 340 CURVE SMOOTH",
"718 424 OFFCURVE",
"700 494 OFFCURVE",
"668 549 CURVE",
"741 568 OFFCURVE",
"782 626 OFFCURVE",
"782 727 CURVE SMOOTH",
"782 742 OFFCURVE",
"776 749 OFFCURVE",
"763 749 CURVE SMOOTH",
"718 749 LINE SMOOTH",
"703 749 OFFCURVE",
"699 742 OFFCURVE",
"699 726 CURVE SMOOTH",
"699 647 OFFCURVE",
"674 617 OFFCURVE",
"616 615 CURVE",
"560 667 OFFCURVE",
"481 695 OFFCURVE",
"383 695 CURVE SMOOTH",
"169 695 OFFCURVE",
"47 564 OFFCURVE",
"47 340 CURVE SMOOTH",
"47 116 OFFCURVE",
"169 -15 OFFCURVE",
"383 -15 CURVE SMOOTH"
);
},
{
closed = 1;
nodes = (
"227 55 OFFCURVE",
"136 153 OFFCURVE",
"136 340 CURVE SMOOTH",
"136 527 OFFCURVE",
"227 625 OFFCURVE",
"383 625 CURVE SMOOTH",
"538 625 OFFCURVE",
"629 527 OFFCURVE",
"629 340 CURVE SMOOTH",
"629 153 OFFCURVE",
"538 55 OFFCURVE",
"383 55 CURVE SMOOTH"
);
},
{
closed = 1;
nodes = (
"424 735 LINE SMOOTH",
"439 735 OFFCURVE",
"443 744 OFFCURVE",
"438 757 CURVE SMOOTH",
"388 893 LINE SMOOTH",
"383 908 OFFCURVE",
"379 912 OFFCURVE",
"359 912 CURVE SMOOTH",
"309 912 LINE SMOOTH",
"292 912 OFFCURVE",
"285 904 OFFCURVE",
"293 888 CURVE SMOOTH",
"360 752 LINE SMOOTH",
"366 739 OFFCURVE",
"372 735 OFFCURVE",
"390 735 CURVE SMOOTH"
);
}
);
width = 799;
}
);
note = Ohorngrave;
unicode = 1EDC;
},
{
glyphname = Ohornhookabove;
lastChange = "2015-07-18 10:08:22 +0000";
layers = (
{
layerId = "5D04EF83-1EDC-47E1-87A2-0FB57D789DB8";
name = Light;
paths = (
{
closed = 1;
nodes = (
"596 -15 OFFCURVE",
"718 116 OFFCURVE",
"718 340 CURVE SMOOTH",
"718 424 OFFCURVE",
"700 494 OFFCURVE",
"668 549 CURVE",
"741 568 OFFCURVE",
"782 626 OFFCURVE",
"782 727 CURVE SMOOTH",
"782 742 OFFCURVE",
"776 749 OFFCURVE",
"763 749 CURVE SMOOTH",
"718 749 LINE SMOOTH",
"703 749 OFFCURVE",
"699 742 OFFCURVE",
"699 726 CURVE SMOOTH",
"699 647 OFFCURVE",
"674 617 OFFCURVE",
"616 615 CURVE",
"560 667 OFFCURVE",
"481 695 OFFCURVE",
"383 695 CURVE SMOOTH",
"169 695 OFFCURVE",
"47 564 OFFCURVE",
"47 340 CURVE SMOOTH",
"47 116 OFFCURVE",
"169 -15 OFFCURVE",
"383 -15 CURVE SMOOTH"
);
},
{
closed = 1;
nodes = (
"227 55 OFFCURVE",
"136 153 OFFCURVE",
"136 340 CURVE SMOOTH",
"136 527 OFFCURVE",
"227 625 OFFCURVE",
"383 625 CURVE SMOOTH",
"538 625 OFFCURVE",
"629 527 OFFCURVE",
"629 340 CURVE SMOOTH",
"629 153 OFFCURVE",
"538 55 OFFCURVE",
"383 55 CURVE SMOOTH"
);
},
{
closed = 1;
nodes = (
"398 734 LINE SMOOTH",
"414 734 OFFCURVE",
"421 742 OFFCURVE",
"421 757 CURVE SMOOTH",
"421 782 LINE",
"473 782 OFFCURVE",
"522 815 OFFCURVE",
"522 875 CURVE SMOOTH",
"522 932 OFFCURVE",
"482 969 OFFCURVE",
"396 969 CURVE SMOOTH",
"357 969 OFFCURVE",
"314 959 OFFCURVE",
"288 942 CURVE",
"283 939 OFFCURVE",
"283 937 OFFCURVE",
"285 932 CURVE",
"302 894 LINE",
"304 890 OFFCURVE",
"307 890 OFFCURVE",
"311 892 CURVE SMOOTH",
"337 905 OFFCURVE",
"360 912 OFFCURVE",
"390 912 CURVE SMOOTH",
"431 912 OFFCURVE",
"451 900 OFFCURVE",
"451 873 CURVE SMOOTH",
"451 843 OFFCURVE",
"435 830 OFFCURVE",
"385 830 CURVE SMOOTH",
"361 830 OFFCURVE",
"350 819 OFFCURVE",
"350 799 CURVE SMOOTH",
"350 757 LINE SMOOTH",
"350 742 OFFCURVE",
"357 734 OFFCURVE",
"373 734 CURVE SMOOTH"
);
}
);
width = 799;
}
);
note = Ohornhookabove;
unicode = 1EDE;
},
{
glyphname = Ohorntilde;
lastChange = "2015-07-18 10:08:22 +0000";
layers = (
{
layerId = "5D04EF83-1EDC-47E1-87A2-0FB57D789DB8";
name = Light;
paths = (
{
closed = 1;
nodes = (
"596 -15 OFFCURVE",
"718 116 OFFCURVE",
"718 340 CURVE SMOOTH",
"718 424 OFFCURVE",
"700 494 OFFCURVE",
"668 549 CURVE",
"741 568 OFFCURVE",
"782 626 OFFCURVE",
"782 727 CURVE SMOOTH",
"782 742 OFFCURVE",
"776 749 OFFCURVE",
"763 749 CURVE SMOOTH",
"718 749 LINE SMOOTH",
"703 749 OFFCURVE",
"699 742 OFFCURVE",
"699 726 CURVE SMOOTH",
"699 647 OFFCURVE",
"674 617 OFFCURVE",
"616 615 CURVE",
"560 667 OFFCURVE",
"481 695 OFFCURVE",
"383 695 CURVE SMOOTH",
"169 695 OFFCURVE",
"47 564 OFFCURVE",
"47 340 CURVE SMOOTH",
"47 116 OFFCURVE",
"169 -15 OFFCURVE",
"383 -15 CURVE SMOOTH"
);
},
{
closed = 1;
nodes = (
"227 55 OFFCURVE",
"136 153 OFFCURVE",
"136 340 CURVE SMOOTH",
"136 527 OFFCURVE",
"227 625 OFFCURVE",
"383 625 CURVE SMOOTH",
"538 625 OFFCURVE",
"629 527 OFFCURVE",
"629 340 CURVE SMOOTH",
"629 153 OFFCURVE",
"538 55 OFFCURVE",
"383 55 CURVE SMOOTH"
);
},
{
closed = 1;
nodes = (
"558 747 OFFCURVE",
"588 768 OFFCURVE",
"617 811 CURVE SMOOTH",
"629 829 OFFCURVE",
"628 840 OFFCURVE",
"608 856 CURVE SMOOTH",
"589 872 OFFCURVE",
"576 872 OFFCURVE",
"565 857 CURVE SMOOTH",
"543 828 OFFCURVE",
"528 819 OFFCURVE",
"500 819 CURVE SMOOTH",
"438 819 OFFCURVE",
"395 872 OFFCURVE",
"313 872 CURVE SMOOTH",
"266 872 OFFCURVE",
"237 845 OFFCURVE",
"214 818 CURVE SMOOTH",
"201 803 OFFCURVE",
"201 790 OFFCURVE",
"215 776 CURVE SMOOTH",
"233 758 OFFCURVE",
"247 756 OFFCURVE",
"258 769 CURVE",
"278 791 OFFCURVE",
"288 801 OFFCURVE",
"317 801 CURVE SMOOTH",
"372 801 OFFCURVE",
"431 747 OFFCURVE",
"500 747 CURVE SMOOTH"
);
}
);
width = 799;
}
);
note = Ohorntilde;
unicode = 1EE0;
},
{
glyphname = Ohungarumlaut;
lastChange = "2015-07-18 10:08:22 +0000";
layers = (
{
layerId = "5D04EF83-1EDC-47E1-87A2-0FB57D789DB8";
name = Light;
paths = (
{
closed = 1;
nodes = (
"596 -15 OFFCURVE",
"718 116 OFFCURVE",
"718 340 CURVE SMOOTH",
"718 564 OFFCURVE",
"596 695 OFFCURVE",
"383 695 CURVE SMOOTH",
"169 695 OFFCURVE",
"47 564 OFFCURVE",
"47 340 CURVE SMOOTH",
"47 116 OFFCURVE",
"169 -15 OFFCURVE",
"383 -15 CURVE SMOOTH"
);
},
{
closed = 1;
nodes = (
"227 55 OFFCURVE",
"136 153 OFFCURVE",
"136 340 CURVE SMOOTH",
"136 527 OFFCURVE",
"227 625 OFFCURVE",
"383 625 CURVE SMOOTH",
"538 625 OFFCURVE",
"629 527 OFFCURVE",
"629 340 CURVE SMOOTH",
"629 153 OFFCURVE",
"538 55 OFFCURVE",
"383 55 CURVE SMOOTH"
);
},
{
closed = 1;
nodes = (
"294 749 LINE SMOOTH",
"313 749 OFFCURVE",
"317 754 OFFCURVE",
"325 766 CURVE SMOOTH",
"410 902 LINE SMOOTH",
"420 917 OFFCURVE",
"412 926 OFFCURVE",
"395 926 CURVE SMOOTH",
"349 926 LINE SMOOTH",
"329 926 OFFCURVE",
"326 920 OFFCURVE",
"319 907 CURVE SMOOTH",
"251 771 LINE SMOOTH",
"245 758 OFFCURVE",
"249 749 OFFCURVE",
"265 749 CURVE SMOOTH"
);
},
{
closed = 1;
nodes = (
"472 749 LINE SMOOTH",
"491 749 OFFCURVE",
"495 754 OFFCURVE",
"503 766 CURVE SMOOTH",
"589 902 LINE SMOOTH",
"598 917 OFFCURVE",
"590 926 OFFCURVE",
"573 926 CURVE SMOOTH",
"527 926 LINE SMOOTH",
"507 926 OFFCURVE",
"504 920 OFFCURVE",
"497 907 CURVE SMOOTH",
"429 771 LINE SMOOTH",
"423 758 OFFCURVE",
"428 749 OFFCURVE",
"443 749 CURVE SMOOTH"
);
}
);
width = 765;
}
);
note = Ohungarumlaut;
unicode = 0150;
},
{
glyphname = Omacron;
lastChange = "2015-07-18 10:08:22 +0000";
layers = (
{
layerId = "5D04EF83-1EDC-47E1-87A2-0FB57D789DB8";
name = Light;
paths = (
{
closed = 1;
nodes = (
"596 -15 OFFCURVE",
"718 116 OFFCURVE",
"718 340 CURVE SMOOTH",
"718 564 OFFCURVE",
"596 695 OFFCURVE",
"383 695 CURVE SMOOTH",
"169 695 OFFCURVE",
"47 564 OFFCURVE",
"47 340 CURVE SMOOTH",
"47 116 OFFCURVE",
"169 -15 OFFCURVE",
"383 -15 CURVE SMOOTH"
);
},
{
closed = 1;
nodes = (
"227 55 OFFCURVE",
"136 153 OFFCURVE",
"136 340 CURVE SMOOTH",
"136 527 OFFCURVE",
"227 625 OFFCURVE",
"383 625 CURVE SMOOTH",
"538 625 OFFCURVE",
"629 527 OFFCURVE",
"629 340 CURVE SMOOTH",
"629 153 OFFCURVE",
"538 55 OFFCURVE",
"383 55 CURVE SMOOTH"
);
},
{
closed = 1;
nodes = (
"521 777 LINE SMOOTH",
"542 777 OFFCURVE",
"550 784 OFFCURVE",
"550 805 CURVE SMOOTH",
"550 821 LINE SMOOTH",
"550 842 OFFCURVE",
"542 850 OFFCURVE",
"521 850 CURVE SMOOTH",
"245 850 LINE SMOOTH",
"224 850 OFFCURVE",
"216 842 OFFCURVE",
"216 821 CURVE SMOOTH",
"216 805 LINE SMOOTH",
"216 784 OFFCURVE",
"224 777 OFFCURVE",
"245 777 CURVE SMOOTH"
);
}
);
width = 765;
}
);
note = Omacron;
unicode = 014C;
},
{
glyphname = Oslash;
lastChange = "2015-07-18 10:08:20 +0000";
layers = (
{
layerId = "5D04EF83-1EDC-47E1-87A2-0FB57D789DB8";
name = Light;
paths = (
{
closed = 1;
nodes = (
"596 -15 OFFCURVE",
"718 116 OFFCURVE",
"718 340 CURVE SMOOTH",
"718 564 OFFCURVE",
"596 695 OFFCURVE",
"383 695 CURVE SMOOTH",
"169 695 OFFCURVE",
"47 564 OFFCURVE",
"47 340 CURVE SMOOTH",
"47 116 OFFCURVE",
"169 -15 OFFCURVE",
"383 -15 CURVE SMOOTH"
);
},
{
closed = 1;
nodes = (
"236 -86 LINE SMOOTH",
"247 -86 OFFCURVE",
"253 -81 OFFCURVE",
"256 -73 CURVE SMOOTH",
"586 732 LINE SMOOTH",
"590 742 OFFCURVE",
"589 751 OFFCURVE",
"577 751 CURVE SMOOTH",
"513 751 LINE SMOOTH",
"503 751 OFFCURVE",
"497 746 OFFCURVE",
"494 738 CURVE SMOOTH",
"164 -67 LINE SMOOTH",
"160 -77 OFFCURVE",
"160 -86 OFFCURVE",
"173 -86 CURVE SMOOTH"
);
},
{
closed = 1;
nodes = (
"227 55 OFFCURVE",
"136 153 OFFCURVE",
"136 340 CURVE SMOOTH",
"136 527 OFFCURVE",
"227 625 OFFCURVE",
"383 625 CURVE SMOOTH",
"538 625 OFFCURVE",
"629 527 OFFCURVE",
"629 340 CURVE SMOOTH",
"629 153 OFFCURVE",
"538 55 OFFCURVE",
"383 55 CURVE SMOOTH"
);
}
);
width = 765;
}
);
note = Oslash;
unicode = 00D8;
},
{
glyphname = Oslashacute;
lastChange = "2015-07-18 10:08:21 +0000";
layers = (
{
layerId = "5D04EF83-1EDC-47E1-87A2-0FB57D789DB8";
name = Light;
paths = (
{
closed = 1;
nodes = (
"596 -15 OFFCURVE",
"718 116 OFFCURVE",
"718 340 CURVE SMOOTH",
"718 564 OFFCURVE",
"596 695 OFFCURVE",
"383 695 CURVE SMOOTH",
"169 695 OFFCURVE",
"47 564 OFFCURVE",
"47 340 CURVE SMOOTH",
"47 116 OFFCURVE",
"169 -15 OFFCURVE",
"383 -15 CURVE SMOOTH"
);
},
{
closed = 1;
nodes = (
"236 -86 LINE SMOOTH",
"247 -86 OFFCURVE",
"253 -81 OFFCURVE",
"256 -73 CURVE SMOOTH",
"586 732 LINE SMOOTH",
"590 742 OFFCURVE",
"589 751 OFFCURVE",
"577 751 CURVE SMOOTH",
"513 751 LINE SMOOTH",
"503 751 OFFCURVE",
"497 746 OFFCURVE",
"494 738 CURVE SMOOTH",
"164 -67 LINE SMOOTH",
"160 -77 OFFCURVE",
"160 -86 OFFCURVE",
"173 -86 CURVE SMOOTH"
);
},
{
closed = 1;
nodes = (
"227 55 OFFCURVE",
"136 153 OFFCURVE",
"136 340 CURVE SMOOTH",
"136 527 OFFCURVE",
"227 625 OFFCURVE",
"383 625 CURVE SMOOTH",
"538 625 OFFCURVE",
"629 527 OFFCURVE",
"629 340 CURVE SMOOTH",
"629 153 OFFCURVE",
"538 55 OFFCURVE",
"383 55 CURVE SMOOTH"
);
},
{
closed = 1;
nodes = (
"390 735 LINE SMOOTH",
"408 735 OFFCURVE",
"415 739 OFFCURVE",
"421 752 CURVE SMOOTH",
"487 888 LINE SMOOTH",
"495 904 OFFCURVE",
"489 912 OFFCURVE",
"472 912 CURVE SMOOTH",
"421 912 LINE SMOOTH",
"402 912 OFFCURVE",
"397 907 OFFCURVE",
"392 893 CURVE SMOOTH",
"343 757 LINE SMOOTH",
"338 744 OFFCURVE",
"341 735 OFFCURVE",
"356 735 CURVE SMOOTH"
);
}
);
width = 765;
}
);
note = Oslashacute;
unicode = 01FE;
},
{
glyphname = Otilde;
lastChange = "2015-07-18 10:08:21 +0000";
layers = (
{
layerId = "5D04EF83-1EDC-47E1-87A2-0FB57D789DB8";
name = Light;
paths = (
{
closed = 1;
nodes = (
"596 -15 OFFCURVE",
"718 116 OFFCURVE",
"718 340 CURVE SMOOTH",
"718 564 OFFCURVE",
"596 695 OFFCURVE",
"383 695 CURVE SMOOTH",
"169 695 OFFCURVE",
"47 564 OFFCURVE",
"47 340 CURVE SMOOTH",
"47 116 OFFCURVE",
"169 -15 OFFCURVE",
"383 -15 CURVE SMOOTH"
);
},
{
closed = 1;
nodes = (
"227 55 OFFCURVE",
"136 153 OFFCURVE",
"136 340 CURVE SMOOTH",
"136 527 OFFCURVE",
"227 625 OFFCURVE",
"383 625 CURVE SMOOTH",
"538 625 OFFCURVE",
"629 527 OFFCURVE",
"629 340 CURVE SMOOTH",
"629 153 OFFCURVE",
"538 55 OFFCURVE",
"383 55 CURVE SMOOTH"
);
},
{
closed = 1;
nodes = (
"524 759 OFFCURVE",
"554 780 OFFCURVE",
"583 823 CURVE SMOOTH",
"595 841 OFFCURVE",
"594 852 OFFCURVE",
"574 868 CURVE SMOOTH",
"555 884 OFFCURVE",
"542 884 OFFCURVE",
"531 869 CURVE SMOOTH",
"509 840 OFFCURVE",
"494 831 OFFCURVE",
"466 831 CURVE SMOOTH",
"404 831 OFFCURVE",
"361 884 OFFCURVE",
"279 884 CURVE SMOOTH",
"232 884 OFFCURVE",
"203 857 OFFCURVE",
"180 830 CURVE SMOOTH",
"167 815 OFFCURVE",
"167 802 OFFCURVE",
"181 788 CURVE SMOOTH",
"199 770 OFFCURVE",
"213 768 OFFCURVE",
"224 781 CURVE",
"244 803 OFFCURVE",
"254 813 OFFCURVE",
"283 813 CURVE SMOOTH",
"338 813 OFFCURVE",
"397 759 OFFCURVE",
"466 759 CURVE SMOOTH"
);
}
);
width = 765;
}
);
note = Otilde;
unicode = 00D5;
},
{
glyphname = OE;
lastChange = "2015-07-18 10:08:21 +0000";
layers = (
{
layerId = "5D04EF83-1EDC-47E1-87A2-0FB57D789DB8";
name = Light;
paths = (
{
closed = 1;
nodes = (
"489.267 -15 OFFCURVE",
"581 21 OFFCURVE",
"630 101 CURVE",
"630 30 LINE SMOOTH",
"630 10 OFFCURVE",
"639 0 OFFCURVE",
"660 0 CURVE SMOOTH",
"1076 0 LINE SMOOTH",
"1097 0 OFFCURVE",
"1105 7 OFFCURVE",
"1105 27 CURVE SMOOTH",
"1105 44 LINE SMOOTH",
"1105 65 OFFCURVE",
"1097 73 OFFCURVE",
"1076 73 CURVE SMOOTH",
"721 73 LINE",
"721 304 LINE",
"988 304 LINE SMOOTH",
"1009 304 OFFCURVE",
"1018 313 OFFCURVE",
"1018 333 CURVE SMOOTH",
"1018 349 LINE SMOOTH",
"1018 370 OFFCURVE",
"1009 377 OFFCURVE",
"988 377 CURVE SMOOTH",
"721 377 LINE",
"721 607 LINE",
"1076 607 LINE SMOOTH",
"1097 607 OFFCURVE",
"1105 615 OFFCURVE",
"1105 636 CURVE SMOOTH",
"1105 653 LINE SMOOTH",
"1105 673 OFFCURVE",
"1097 680 OFFCURVE",
"1076 680 CURVE SMOOTH",
"660 680 LINE SMOOTH",
"639 680 OFFCURVE",
"630 670 OFFCURVE",
"630 650 CURVE SMOOTH",
"630 582 LINE",
"583 657 OFFCURVE",
"489.267 695 OFFCURVE",
"383 695 CURVE SMOOTH",
"169 695 OFFCURVE",
"47 564 OFFCURVE",
"47 340 CURVE SMOOTH",
"47 116 OFFCURVE",
"169 -15 OFFCURVE",
"383 -15 CURVE SMOOTH"
);
},
{
closed = 1;
nodes = (
"227 55 OFFCURVE",
"136 153 OFFCURVE",
"136 340 CURVE SMOOTH",
"136 527 OFFCURVE",
"227 625 OFFCURVE",
"383 625 CURVE SMOOTH",
"538 625 OFFCURVE",
"629 527 OFFCURVE",
"629 340 CURVE SMOOTH",
"629 153 OFFCURVE",
"538 55 OFFCURVE",
"383 55 CURVE SMOOTH"
);
}
);
width = 1152;
}
);
note = OE;
unicode = 0152;
},
{
glyphname = P;
lastChange = "2015-07-18 10:08:20 +0000";
layers = (
{
layerId = "5D04EF83-1EDC-47E1-87A2-0FB57D789DB8";
name = Light;
paths = (
{
closed = 1;
nodes = (
"128 0 LINE SMOOTH",
"150 0 OFFCURVE",
"158 10 OFFCURVE",
"158 30 CURVE SMOOTH",
"158 239 LINE",
"358 239 LINE SMOOTH",
"513 239 OFFCURVE",
"586 323 OFFCURVE",
"586 459 CURVE SMOOTH",
"586 596 OFFCURVE",
"513 680 OFFCURVE",
"359 680 CURVE SMOOTH",
"97 680 LINE SMOOTH",
"76 680 OFFCURVE",
"67 670 OFFCURVE",
"67 650 CURVE SMOOTH",
"67 30 LINE SMOOTH",
"67 10 OFFCURVE",
"76 0 OFFCURVE",
"97 0 CURVE SMOOTH"
);
},
{
closed = 1;
nodes = (
"158 607 LINE",
"358 607 LINE SMOOTH",
"452 607 OFFCURVE",
"496 559 OFFCURVE",
"496 459 CURVE SMOOTH",
"496 360 OFFCURVE",
"452 312 OFFCURVE",
"358 312 CURVE SMOOTH",
"158 312 LINE"
);
}
);
width = 613;
}
);
note = P;
unicode = 0050;
},
{
glyphname = Thorn;
lastChange = "2015-07-18 10:08:22 +0000";
layers = (
{
layerId = "5D04EF83-1EDC-47E1-87A2-0FB57D789DB8";
name = Light;
paths = (
{
closed = 1;
nodes = (
"128 0 LINE SMOOTH",
"150 0 OFFCURVE",
"158 10 OFFCURVE",
"158 30 CURVE SMOOTH",
"158 120 LINE",
"358 120 LINE SMOOTH",
"513 120 OFFCURVE",
"586 204 OFFCURVE",
"586 340 CURVE SMOOTH",
"586 476 OFFCURVE",
"513 561 OFFCURVE",
"359 561 CURVE SMOOTH",
"158 561 LINE",
"158 650 LINE SMOOTH",
"158 670 OFFCURVE",
"150 680 OFFCURVE",
"128 680 CURVE SMOOTH",
"97 680 LINE SMOOTH",
"76 680 OFFCURVE",
"67 670 OFFCURVE",
"67 650 CURVE SMOOTH",
"67 30 LINE SMOOTH",
"67 10 OFFCURVE",
"76 0 OFFCURVE",
"97 0 CURVE SMOOTH"
);
},
{
closed = 1;
nodes = (
"158 487 LINE",
"358 487 LINE SMOOTH",
"452 487 OFFCURVE",
"496 439 OFFCURVE",
"496 340 CURVE SMOOTH",
"496 241 OFFCURVE",
"452 193 OFFCURVE",
"358 193 CURVE SMOOTH",
"158 193 LINE"
);
}
);
width = 633;
}
);
note = Thorn;
unicode = 00DE;
},
{
glyphname = Q;
lastChange = "2015-07-18 10:08:21 +0000";
layers = (
{
layerId = "5D04EF83-1EDC-47E1-87A2-0FB57D789DB8";
name = Light;
paths = (
{
closed = 1;
nodes = (
"589 -181 OFFCURVE",
"632 -168 OFFCURVE",
"675 -142 CURVE SMOOTH",
"683 -137 OFFCURVE",
"686 -132 OFFCURVE",
"681 -123 CURVE",
"659 -88 LINE",
"654 -81 OFFCURVE",
"651 -80 OFFCURVE",
"642 -85 CURVE",
"614 -103 OFFCURVE",
"579 -115 OFFCURVE",
"537 -115 CURVE SMOOTH",
"466 -115 OFFCURVE",
"412 -87 OFFCURVE",
"412 -13 CURVE",
"607 -1 OFFCURVE",
"718 126 OFFCURVE",
"718 340 CURVE SMOOTH",
"718 564 OFFCURVE",
"596 695 OFFCURVE",
"383 695 CURVE SMOOTH",
"169 695 OFFCURVE",
"47 564 OFFCURVE",
"47 340 CURVE SMOOTH",
"47 133 OFFCURVE",
"151 5 OFFCURVE",
"335 -12 CURVE",
"335 -115 OFFCURVE",
"408 -181 OFFCURVE",
"530 -181 CURVE SMOOTH"
);
},
{
closed = 1;
nodes = (
"227 55 OFFCURVE",
"136 153 OFFCURVE",
"136 340 CURVE SMOOTH",
"136 527 OFFCURVE",
"227 625 OFFCURVE",
"383 625 CURVE SMOOTH",
"538 625 OFFCURVE",
"629 527 OFFCURVE",
"629 340 CURVE SMOOTH",
"629 153 OFFCURVE",
"538 55 OFFCURVE",
"383 55 CURVE SMOOTH"
);
}
);
width = 765;
}
);
note = Q;
unicode = 0051;
},
{
glyphname = R;
lastChange = "2015-07-18 10:08:22 +0000";
layers = (
{
layerId = "5D04EF83-1EDC-47E1-87A2-0FB57D789DB8";
name = Light;
paths = (
{
closed = 1;
nodes = (
"128 0 LINE SMOOTH",
"150 0 OFFCURVE",
"158 10 OFFCURVE",
"158 30 CURVE SMOOTH",
"158 272 LINE",
"361 272 LINE",
"472 18 LINE SMOOTH",
"478 3 OFFCURVE",
"483 0 OFFCURVE",
"498 0 CURVE SMOOTH",
"551 0 LINE SMOOTH",
"565 0 OFFCURVE",
"569 9 OFFCURVE",
"564 21 CURVE SMOOTH",
"447 283 LINE",
"536 314 OFFCURVE",
"586 382 OFFCURVE",
"586 475 CURVE SMOOTH",
"586 613 OFFCURVE",
"501 680 OFFCURVE",
"365 680 CURVE SMOOTH",
"97 680 LINE SMOOTH",
"76 680 OFFCURVE",
"67 670 OFFCURVE",
"67 650 CURVE SMOOTH",
"67 30 LINE SMOOTH",
"67 10 OFFCURVE",
"76 0 OFFCURVE",
"97 0 CURVE SMOOTH"
);
},
{
closed = 1;
nodes = (
"158 607 LINE",
"358 607 LINE SMOOTH",
"452 607 OFFCURVE",
"496 567 OFFCURVE",
"496 475 CURVE SMOOTH",
"496 380 OFFCURVE",
"446 344 OFFCURVE",
"338 344 CURVE SMOOTH",
"158 344 LINE"
);
}
);
width = 633;
}
);
note = R;
unicode = 0052;
},
{
glyphname = Racute;
lastChange = "2015-07-18 10:08:20 +0000";
layers = (
{
layerId = "5D04EF83-1EDC-47E1-87A2-0FB57D789DB8";
name = Light;
paths = (
{
closed = 1;
nodes = (
"128 0 LINE SMOOTH",
"150 0 OFFCURVE",
"158 10 OFFCURVE",
"158 30 CURVE SMOOTH",
"158 272 LINE",
"361 272 LINE",
"472 18 LINE SMOOTH",
"478 3 OFFCURVE",
"483 0 OFFCURVE",
"498 0 CURVE SMOOTH",
"551 0 LINE SMOOTH",
"565 0 OFFCURVE",
"569 9 OFFCURVE",
"564 21 CURVE SMOOTH",
"447 283 LINE",
"536 314 OFFCURVE",
"586 382 OFFCURVE",
"586 475 CURVE SMOOTH",
"586 613 OFFCURVE",
"501 680 OFFCURVE",
"365 680 CURVE SMOOTH",
"97 680 LINE SMOOTH",
"76 680 OFFCURVE",
"67 670 OFFCURVE",
"67 650 CURVE SMOOTH",
"67 30 LINE SMOOTH",
"67 10 OFFCURVE",
"76 0 OFFCURVE",
"97 0 CURVE SMOOTH"
);
},
{
closed = 1;
nodes = (
"158 607 LINE",
"358 607 LINE SMOOTH",
"452 607 OFFCURVE",
"496 567 OFFCURVE",
"496 475 CURVE SMOOTH",
"496 380 OFFCURVE",
"446 344 OFFCURVE",
"338 344 CURVE SMOOTH",
"158 344 LINE"
);
},
{
closed = 1;
nodes = (
"298 747 LINE SMOOTH",
"316 747 OFFCURVE",
"323 751 OFFCURVE",
"329 764 CURVE SMOOTH",
"395 900 LINE SMOOTH",
"403 916 OFFCURVE",
"397 924 OFFCURVE",
"380 924 CURVE SMOOTH",
"329 924 LINE SMOOTH",
"310 924 OFFCURVE",
"305 919 OFFCURVE",
"300 905 CURVE SMOOTH",
"251 769 LINE SMOOTH",
"246 756 OFFCURVE",
"249 747 OFFCURVE",
"264 747 CURVE SMOOTH"
);
}
);
width = 633;
}
);
note = Racute;
unicode = 0154;
},
{
glyphname = Rcaron;
lastChange = "2015-07-18 10:08:21 +0000";
layers = (
{
layerId = "5D04EF83-1EDC-47E1-87A2-0FB57D789DB8";
name = Light;
paths = (
{
closed = 1;
nodes = (
"128 0 LINE SMOOTH",
"150 0 OFFCURVE",
"158 10 OFFCURVE",
"158 30 CURVE SMOOTH",
"158 272 LINE",
"361 272 LINE",
"472 18 LINE SMOOTH",
"478 3 OFFCURVE",
"483 0 OFFCURVE",
"498 0 CURVE SMOOTH",
"551 0 LINE SMOOTH",
"565 0 OFFCURVE",
"569 9 OFFCURVE",
"564 21 CURVE SMOOTH",
"447 283 LINE",
"536 314 OFFCURVE",
"586 382 OFFCURVE",
"586 475 CURVE SMOOTH",
"586 613 OFFCURVE",
"501 680 OFFCURVE",
"365 680 CURVE SMOOTH",
"97 680 LINE SMOOTH",
"76 680 OFFCURVE",
"67 670 OFFCURVE",
"67 650 CURVE SMOOTH",
"67 30 LINE SMOOTH",
"67 10 OFFCURVE",
"76 0 OFFCURVE",
"97 0 CURVE SMOOTH"
);
},
{
closed = 1;
nodes = (
"158 607 LINE",
"358 607 LINE SMOOTH",
"452 607 OFFCURVE",
"496 567 OFFCURVE",
"496 475 CURVE SMOOTH",
"496 380 OFFCURVE",
"446 344 OFFCURVE",
"338 344 CURVE SMOOTH",
"158 344 LINE"
);
},
{
closed = 1;
nodes = (
"312 744 LINE SMOOTH",
"330 744 OFFCURVE",
"333 750 OFFCURVE",
"343 763 CURVE SMOOTH",
"451 912 LINE SMOOTH",
"461 925 OFFCURVE",
"458 937 OFFCURVE",
"443 937 CURVE SMOOTH",
"403 937 LINE SMOOTH",
"383 937 OFFCURVE",
"380 933 OFFCURVE",
"372 921 CURVE SMOOTH",
"295 807 LINE",
"217 921 LINE SMOOTH",
"209 933 OFFCURVE",
"206 937 OFFCURVE",
"186 937 CURVE SMOOTH",
"146 937 LINE SMOOTH",
"131 937 OFFCURVE",
"129 926 OFFCURVE",
"139 912 CURVE SMOOTH",
"247 763 LINE SMOOTH",
"257 750 OFFCURVE",
"260 744 OFFCURVE",
"278 744 CURVE SMOOTH"
);
}
);
width = 633;
}
);
note = Rcaron;
unicode = 0158;
},
{
glyphname = Rcommaaccent;
lastChange = "2015-07-18 10:08:21 +0000";
layers = (
{
layerId = "5D04EF83-1EDC-47E1-87A2-0FB57D789DB8";
name = Light;
paths = (
{
closed = 1;
nodes = (
"128 0 LINE SMOOTH",
"150 0 OFFCURVE",
"158 10 OFFCURVE",
"158 30 CURVE SMOOTH",
"158 272 LINE",
"361 272 LINE",
"472 18 LINE SMOOTH",
"478 3 OFFCURVE",
"483 0 OFFCURVE",
"498 0 CURVE SMOOTH",
"551 0 LINE SMOOTH",
"565 0 OFFCURVE",
"569 9 OFFCURVE",
"564 21 CURVE SMOOTH",
"447 283 LINE",
"536 314 OFFCURVE",
"586 382 OFFCURVE",
"586 475 CURVE SMOOTH",
"586 613 OFFCURVE",
"501 680 OFFCURVE",
"365 680 CURVE SMOOTH",
"97 680 LINE SMOOTH",
"76 680 OFFCURVE",
"67 670 OFFCURVE",
"67 650 CURVE SMOOTH",
"67 30 LINE SMOOTH",
"67 10 OFFCURVE",
"76 0 OFFCURVE",
"97 0 CURVE SMOOTH"
);
},
{
closed = 1;
nodes = (
"265 -224 LINE SMOOTH",
"279 -224 OFFCURVE",
"286 -220 OFFCURVE",
"290 -210 CURVE SMOOTH",
"354 -60 LINE SMOOTH",
"361 -44 OFFCURVE",
"358 -36 OFFCURVE",
"339 -36 CURVE SMOOTH",
"301 -36 LINE SMOOTH",
"283 -36 OFFCURVE",
"277 -40 OFFCURVE",
"272 -56 CURVE SMOOTH",
"225 -204 LINE SMOOTH",
"221 -216 OFFCURVE",
"223 -224 OFFCURVE",
"237 -224 CURVE SMOOTH"
);
},
{
closed = 1;
nodes = (
"158 607 LINE",
"358 607 LINE SMOOTH",
"452 607 OFFCURVE",
"496 567 OFFCURVE",
"496 475 CURVE SMOOTH",
"496 380 OFFCURVE",
"446 344 OFFCURVE",
"338 344 CURVE SMOOTH",
"158 344 LINE"
);
}
);
width = 633;
}
);
note = Rcommaaccent;
unicode = 0156;
},
